<?xml version="1.0" encoding="utf-8"?>
<!-- Generator: Adobe Illustrator 17.0.0, SVG Export Plug-In . SVG Version: 6.00 Build 0)  -->
<svg version="1.2" baseProfile="tiny" id="Layer_1" xmlns="http://www.w3.org/2000/svg" xmlns:xlink="http://www.w3.org/1999/xlink"
	 x="0px" y="0px" width="1242.032px" height="2285.904px" viewBox="0 0 1242.032 2285.904" xml:space="preserve">
<g>
	<path fill="#00AEDF" d="M1250.001,1745.875c-0.903-1.383-1.864-2.733-2.702-4.154c-17.863-30.279-34.941-61.012-53.367-90.965
		c-0.742-1.668-1.344-3.414-2.247-4.991c-38.678-67.562-77.373-135.115-116.136-202.629c-1.172-2.041-1.604-5.551-4.356-5.481
		c-2.339,0.059-2.854,3.381-3.968,5.337c-26.644,46.792-53.289,93.583-79.758,140.473c-4.901,8.682-10.492,17.018-14.235,26.325
		c-1.965,3.072-4.072,6.065-5.873,9.229c-13.992,24.575-27.904,49.196-41.909,73.764c-1.535,2.692-2.474,5.88-5.464,7.562
		c-3.314-3.277-4.23-7.844-6.378-11.75c-76.752-139.605-153.462-279.234-230.197-418.848
		c-15.731-28.622-31.537-57.203-47.308-85.803c-0.01-1.169-0.675-1.96-1.54-2.636c-3.511-6.788-7.023-13.576-10.534-20.364
		c-0.015-1.152-0.567-2.013-1.473-2.682c-0.116-1.332-0.857-2.339-1.727-3.279c-0.372-1.393-0.474-2.943-1.18-4.141
		c-1.083-1.839-2.567-2.625-3.814,0.029c-0.227,0.082-0.311,0.239-0.252,0.471c-0.364,0.334-0.851,0.602-1.073,1.012
		c-12.432,22.979-24.873,45.955-37.249,68.964c-23.239,43.206-46.372,86.468-69.674,129.64
		c-22.156,41.049-44.492,82.003-66.711,123.019c-19.342,35.704-38.625,71.438-57.945,107.154
		c-15.682,28.99-31.389,57.968-47.065,86.961c-6.644,12.287-13.185,24.63-19.909,36.874c-1.075,1.957-1.945,5.873-5.535,2.195
		c-0.347-1.092-0.578-2.237-1.057-3.268c-11.289-24.298-22.579-48.596-33.922-72.87c-29.447-63.018-58.92-126.024-88.383-189.035
		c0.146-1.177-0.47-1.933-1.405-2.514c-0.156-0.509-0.312-1.019-0.469-1.528c-0.047-1.099-0.473-1.922-1.717-1.838
		c-0.984,0.066-1.282,0.844-1.374,1.707c-0.142,0.508-0.284,1.015-0.426,1.523c-1.594,0.842-2.211,2.451-3.038,3.878
		c-16.519,28.534-33.044,57.065-49.536,85.615c-41.909,72.55-83.8,145.111-125.724,217.653c-0.786,1.36-1.129,3.274-3.276,3.389
		c0-581.76,0.004-1163.521-0.093-1745.281C0.001,0.845,0.85-0.001,4.624,0C418.24,0.099,831.856,0.099,1245.472,0
		c3.772-0.001,4.623,0.842,4.623,4.592 M1094.131,1171.888c3.471,0,7.661-0.054,11.849,0.021c2.333,0.042,4.106-0.625,5.657-2.52
		c9.335-11.408,7.834-28.108-3.49-37.656c-4.927-4.154-10.994-4.76-16.856-1.629c-1.177,0.628-2.247,1.45-3.392,2.139
		c-2.016,1.214-3.338,0.648-3.256-1.705c0.125-3.592-1.182-6.869-1.901-10.27c-2.667-12.602-11.817-28.214-31.351-29.869
		c-20.141-1.706-46.27,6.572-44.915,34.437c0.046,0.941,0.323,2.171-0.794,2.668c-1.452,0.646-2.052-0.745-2.762-1.558
		c-3.321-3.807-7.41-5.406-12.506-4.963c-8.549,0.743-16.195,6.891-17.897,15.729c-0.965,5.008-2.422,4.666-6.107,2.463
		c-6.026-3.602-12.692-5.365-18.76-0.44c-9.135,7.415-12.231,17.541-11.484,28.972c0.192,2.943,1.817,4.355,4.966,4.344
		c5.021-0.019,10.042,0.414,15.063,0.42C1001.935,1172.525,1047.678,1173.129,1094.131,1171.888z M218.219,1150.722
		c0,0.031,0,0.062,0,0.093c26.983,0,53.967,0.01,80.95-0.008c5.83-0.004,7.29-1.109,7.284-6.837
		c-0.01-8.342-2.203-16.167-7.831-22.608c-7.018-8.032-12.91-9.234-22.124-3.825c-4.422,2.596-5.489,2.254-6.941-2.832
		c-4.4-15.416-18.804-19.331-31.231-8.973c-0.463,0.386-1.207,0.902-1.643,0.772c-1.3-0.387-0.925-1.594-0.794-2.52
		c0.793-5.646-0.494-10.96-2.879-15.981c-7.542-15.882-32.442-24.402-50.58-17.243c-16.364,6.458-22.398,20.031-24.35,36.094
		c-0.706,5.808-0.602,5.963-5.451,2.843c-7.216-4.644-13.965-3.95-19.955,2.118c-7.108,7.2-9.6,15.824-7.552,25.64
		c1.932,9.262,6.839,13.239,16.171,13.254C166.936,1150.75,192.577,1150.722,218.219,1150.722z"/>
	<path fill="#0F592F" d="M615.582,1151.342c-0.059-0.233,0.024-0.39,0.252-0.471c2.938-0.156,2.674,3.528,4.994,4.112
		c0.87,0.94,1.61,1.948,1.725,3.281c-0.436,1.399-0.043,2.346,1.475,2.68c3.511,6.788,7.023,13.576,10.533,20.365
		c-0.386,1.398,0.067,2.312,1.541,2.635c15.771,28.6,31.577,57.181,47.308,85.803c76.735,139.615,153.445,279.243,230.197,418.848
		c2.147,3.906,3.064,8.473,6.376,11.747c4.411,7.998,8.842,15.988,13.235,24c18.184,33.166,36.344,66.346,54.537,99.508
		c22.601,41.196,45.221,82.382,67.847,123.564c4.706,8.565,8.294,17.743,14.23,25.634c-0.232,3.453,2.982,5.025,4.321,7.657
		c4.82,9.474,10.038,18.75,15.173,28.064c12.607,22.868,25.297,45.692,37.868,68.579c9.531,17.352,18.871,34.806,28.401,52.157
		c12.649,23.029,25.406,46,38.105,69.002c11.336,20.533,22.735,41.032,33.945,61.633c4.605,8.462,9.51,16.784,13.299,25.668
		c-208.653,0-417.306,0-625.959,0c0.01-2.499,0.028-4.998,0.028-7.497c0.001-371.523-0.001-743.046,0.025-1114.568
		C615.037,1159.608,615.393,1155.475,615.582,1151.342z"/>
	<path fill="#187D49" d="M615.582,1151.342c-0.19,4.134-0.545,8.267-0.545,12.4c-0.025,371.523-0.023,743.046-0.025,1114.568
		c0,2.499-0.018,4.998-0.028,7.497c-11.741,0-23.482,0-35.223,0c-8.847-18.091-19.206-35.377-28.674-53.137
		c-6.028-11.308-12.355-22.458-18.467-33.722c-0.872-1.607-2.408-4.619,0.678-4.61c6.139,0.018,3.878-2.992,2.644-5.638
		c-7.251-15.54-14.64-31.016-21.893-46.555c-14.372-30.789-28.662-61.615-43.032-92.404c-11.48-24.598-23.059-49.15-34.541-73.748
		c-14.367-30.781-28.649-61.601-43.024-92.378c-13.81-29.568-27.517-59.186-41.595-88.628
		c-13.56-28.358-25.007-57.726-40.924-84.966c-0.46-0.787-0.355-1.9-0.513-2.86c3.59,3.678,4.461-0.238,5.535-2.195
		c6.724-12.244,13.265-24.587,19.909-36.874c15.676-28.994,31.383-57.971,47.065-86.961c19.32-35.715,38.603-71.45,57.945-107.154
		c22.219-41.016,44.555-81.969,66.711-123.019c23.302-43.172,46.436-86.434,69.674-129.64c12.376-23.01,24.816-45.985,37.249-68.964
		C614.731,1151.944,615.219,1151.676,615.582,1151.342z"/>
	<path fill="#0F764B" d="M310.421,1707.16c0.158,0.961,0.053,2.073,0.513,2.86c15.917,27.24,27.364,56.608,40.924,84.966
		c14.078,29.442,27.785,59.06,41.595,88.628c14.375,30.777,28.656,61.597,43.024,92.378c11.481,24.598,23.06,49.15,34.541,73.748
		c14.37,30.789,28.66,61.615,43.032,92.404c7.254,15.539,14.643,31.015,21.893,46.555c1.234,2.646,3.495,5.656-2.644,5.638
		c-3.086-0.009-1.55,3.002-0.678,4.61c6.112,11.264,12.439,22.415,18.467,33.722c9.468,17.761,19.827,35.047,28.674,53.137
		c-132.505,0-265.01,0-397.514,0c-0.023-2.498-0.067-4.996-0.067-7.494c-0.003-276.843-0.002-553.686-0.017-830.529
		c0-2.818,0.333-5.669-0.494-8.445c0.142-0.508,0.284-1.015,0.427-1.523c1.03,0.044,2.06,0.087,3.09,0.13
		c0.156,0.509,0.312,1.019,0.467,1.529c-0.323,1.276,0.127,2.123,1.406,2.513c29.463,63.011,58.936,126.017,88.383,189.035
		c11.343,24.274,22.632,48.572,33.922,72.87C309.843,1704.923,310.074,1706.068,310.421,1707.16z"/>
	<path fill="#1B9F73" d="M181.669,1439.339c0.827,2.776,0.494,5.627,0.494,8.445c0.015,276.843,0.014,553.686,0.017,830.529
		c0,2.498,0.044,4.996,0.067,7.494c-59.376,0-118.751-0.038-178.126,0.097c-3.447,0.008-4.123-0.673-4.121-4.096
		c0.108-177.311,0.095-354.622,0.095-531.933c2.147-0.115,2.49-2.029,3.276-3.389c41.924-72.542,83.815-145.103,125.724-217.653
		c16.492-28.55,33.017-57.081,49.536-85.615C179.458,1441.79,180.075,1440.181,181.669,1439.339z"/>
	<path fill="#21841E" d="M1240.944,2285.807c-3.789-8.885-8.694-17.206-13.299-25.668c-11.21-20.601-22.609-41.1-33.945-61.633
		c-12.699-23.002-25.457-45.973-38.105-69.002c-9.53-17.352-18.871-34.806-28.401-52.157c-12.571-22.887-25.26-45.711-37.868-68.579
		c-5.135-9.314-10.353-18.589-15.173-28.064c-1.339-2.632-4.552-4.204-4.321-7.659c2.467-2.422,1.931-5.54,1.932-8.496
		c0.015-92.966,0.008-185.932,0.021-278.899c0.001-5.417-0.613-10.918,1.811-16.073c11.56-29.215,23.131-58.425,34.672-87.647
		c2.201-5.573,2.411-5.66,6.869-1.671c26.266,23.499,52.531,46.998,78.796,70.497c18.426,29.953,35.504,60.686,53.367,90.965
		c0.838,1.421,1.798,2.771,2.702,4.154c0,177.811,0,355.622,0,533.433c0,6.499,0,6.499-6.541,6.499
		C1242.621,2285.807,1241.783,2285.807,1240.944,2285.807z"/>
	<path fill="#44B53F" d="M1073.596,1669.577c-2.424,5.154-1.81,10.656-1.811,16.073c-0.013,92.966-0.007,185.932-0.021,278.899
		c0,2.957,0.535,6.074-1.932,8.496c-5.937-7.889-9.525-17.067-14.23-25.632c-22.626-41.182-45.245-82.368-67.847-123.564
		c-18.193-33.161-36.353-66.341-54.537-99.508c-4.392-8.011-8.824-16.002-13.235-24c2.993-1.679,3.932-4.867,5.467-7.559
		c14.005-24.568,27.917-49.189,41.909-73.764c1.801-3.164,3.908-6.157,5.873-9.229c20.962-16.866,41.955-33.693,62.846-50.644
		c2.811-2.281,4.453-2.712,5.541,1.299c3.35,12.362,6.746,24.711,10.166,37.054c6.397,23.087,12.828,46.164,19.227,69.25
		C1071.404,1668.162,1071.345,1669.882,1073.596,1669.577z"/>
	<path fill="#FBFDFC" d="M1073.595,1669.577c-2.251,0.304-2.192-1.416-2.584-2.83c-6.399-23.086-12.83-46.163-19.227-69.25
		c-3.42-12.343-6.816-24.692-10.166-37.054c-1.087-4.011-2.73-3.58-5.541-1.299c-20.891,16.952-41.885,33.778-62.846,50.644
		c3.743-9.307,9.334-17.643,14.235-26.325c26.469-46.889,53.115-93.681,79.758-140.473c1.114-1.956,1.629-5.278,3.968-5.337
		c2.752-0.07,3.184,3.44,4.356,5.481c38.763,67.514,77.458,135.067,116.136,202.629c0.903,1.576,1.504,3.323,2.247,4.991
		c-26.265-23.499-52.53-46.998-78.796-70.496c-4.458-3.988-4.668-3.901-6.869,1.671
		C1096.726,1611.152,1085.156,1640.363,1073.595,1669.577z"/>
	<path fill="#FBFEFD" d="M1094.131,1171.888c-46.453,1.241-92.196,0.637-137.937,0.582c-5.021-0.006-10.043-0.439-15.063-0.42
		c-3.149,0.012-4.773-1.401-4.966-4.344c-0.747-11.431,2.348-21.557,11.484-28.972c6.068-4.925,12.735-3.161,18.76,0.44
		c3.685,2.203,5.143,2.544,6.107-2.463c1.702-8.838,9.349-14.986,17.897-15.729c5.096-0.443,9.185,1.156,12.506,4.963
		c0.709,0.813,1.309,2.204,2.762,1.558c1.117-0.497,0.84-1.727,0.794-2.668c-1.355-27.865,24.773-36.143,44.915-34.437
		c19.534,1.654,28.684,17.267,31.351,29.869c0.72,3.401,2.027,6.679,1.901,10.27c-0.082,2.354,1.24,2.919,3.256,1.705
		c1.146-0.689,2.216-1.511,3.392-2.139c5.861-3.131,11.928-2.525,16.856,1.629c11.325,9.549,12.826,26.248,3.49,37.656
		c-1.551,1.896-3.324,2.562-5.657,2.52C1101.793,1171.834,1097.602,1171.888,1094.131,1171.888z"/>
	<path fill="#FBFEFD" d="M218.219,1150.722c-25.642,0-51.284,0.028-76.925-0.015c-9.332-0.015-14.239-3.993-16.171-13.254
		c-2.048-9.816,0.444-18.44,7.552-25.64c5.99-6.068,12.739-6.762,19.955-2.118c4.849,3.121,4.745,2.965,5.451-2.843
		c1.953-16.062,7.986-29.636,24.35-36.094c18.138-7.158,43.038,1.361,50.58,17.243c2.384,5.021,3.672,10.336,2.879,15.981
		c-0.13,0.926-0.506,2.133,0.794,2.52c0.437,0.13,1.18-0.386,1.643-0.772c12.426-10.358,26.83-6.443,31.231,8.973
		c1.452,5.087,2.519,5.428,6.941,2.832c9.214-5.409,15.107-4.206,22.124,3.825c5.628,6.44,7.821,14.266,7.831,22.608
		c0.007,5.727-1.453,6.833-7.284,6.837c-26.983,0.018-53.967,0.008-80.95,0.008C218.219,1150.784,218.219,1150.753,218.219,1150.722
		z"/>
	<path fill="#187D49" d="M620.828,1154.983c-2.321-0.584-2.056-4.268-4.994-4.112c1.247-2.654,2.731-1.869,3.814-0.029
		C620.354,1152.04,620.456,1153.59,620.828,1154.983z"/>
	<path fill="#1B9F73" d="M185.186,1437.946c-1.03-0.043-2.06-0.086-3.09-0.13c0.091-0.863,0.39-1.641,1.374-1.708
		C184.713,1436.025,185.139,1436.847,185.186,1437.946z"/>
	<path fill="#187D49" d="M624.028,1160.943c-1.518-0.334-1.911-1.281-1.475-2.68C623.462,1158.93,624.013,1159.792,624.028,1160.943
		z"/>
	<path fill="#187D49" d="M636.102,1183.943c-1.474-0.323-1.927-1.237-1.541-2.635
		C635.427,1181.983,636.092,1182.774,636.102,1183.943z"/>
	<path fill="#1B9F73" d="M187.059,1441.988c-1.279-0.389-1.729-1.237-1.406-2.513
		C186.589,1440.055,187.205,1440.811,187.059,1441.988z"/>
</g>
</svg>
