<?xml version="1.0" encoding="iso-8859-1"?>
<svg version="1.2" baseProfile="tiny" id="Layer_1" xmlns="http://www.w3.org/2000/svg" xmlns:xlink="http://www.w3.org/1999/xlink"
	 x="0px" y="0px" width="24.965px" height="30.7365px" viewBox="0 0 49.93 61.473" xml:space="preserve">
<g>
	<path fill="#FEFEFE" d="M17.568,61.473c1.225-3.219,2.354-6.149,3.451-9.092c0.301-0.806,1.079-1.73,0.699-2.414
		c-0.34-0.612-1.537-0.39-2.342-0.602C10.082,46.91,3.774,41.151,1.11,31.934c-2.637-9.125-0.562-17.442,6.098-24.241
		c7.013-7.16,15.652-9.401,25.208-6.389c9.538,3.006,15.354,9.773,17.101,19.627c1.436,8.097-0.911,15.255-6.508,21.324
		c-2.604,2.823-5.946,4.689-8.957,6.982c-5.213,3.97-10.51,7.83-15.772,11.736C18.131,61.083,17.976,61.187,17.568,61.473z"/>
	<path fill="#FEBB0D" d="M12.819,6.424c0.112-0.522,0.51-0.593,0.81-0.727c5.185-2.321,10.576-3.39,16.229-2.359
		c6.373,1.163,10.912,6.209,11.954,13.064c0.284,1.869,0.34,3.74,0.229,5.619c-0.112,1.896-1.138,2.847-2.9,2.73
		c-1.553-0.103-2.334-1.165-2.238-3.041c0.296-5.802-2.765-11.507-7.361-13.675c-2.538-1.197-5.257-1.635-8.028-1.746
		c-2.356-0.094-4.716-0.091-7.068,0.167C13.916,6.515,13.366,6.598,12.819,6.424z"/>
	<path fill="#FEBB0D" d="M6.66,36.869c-0.43-0.044-0.496-0.413-0.61-0.674c-2.158-4.931-3.223-10.068-2.359-15.427
		C4.813,13.811,9.578,9.253,16.597,8.111c2.027-0.33,4.059-0.379,6.098-0.231c1.86,0.134,2.747,1.113,2.645,2.848
		c-0.092,1.576-1.162,2.359-3,2.291c-5.088-0.19-9.485,1.377-12.705,5.442c-2.001,2.526-2.554,5.634-2.859,8.771
		c-0.272,2.797-0.13,5.592,0.005,8.389C6.801,36.031,6.958,36.474,6.66,36.869z"/>
	<path fill="#2D343E" d="M46.566,28.783c-0.879,6.586-5.552,11.533-12.033,12.732c-0.192,0.036-0.394,0.014-0.592,0.019
		c-0.465,0.072-0.934,0.08-1.404,0.097c-0.172,0.006-0.37-0.109-0.522,0.068c0.205-0.149,0.369-0.093,0.504,0.103
		c-0.507,0.179-1.027,0.239-1.56,0.16c-0.871-0.157-1.743-0.156-2.614,0c-2.584,0.001-3.729-1.028-3.453-3.104
		c0.189-1.419,1.278-2.257,2.822-2.105c4.074,0.4,7.639-0.857,10.835-3.303c2.838-2.173,3.998-5.273,4.589-8.631
		c0.276-1.567,0.342-3.17,0.504-4.757c0.381,0.411,0.025,0.908,0.169,1.227c0.006-1.629,0-3.379,0.002-5.076
		c-0.098,0.418,0.184,0.939-0.173,1.378c-0.058-0.991-0.116-1.981-0.175-2.972c0.275-0.375-0.131-1.022,0.503-1.253
		c1.532,2.789,2.208,5.825,2.585,8.947c-0.219,0.814-0.046,1.644-0.101,2.466C46.597,26.11,46.269,27.456,46.566,28.783z"/>
	<path fill="#2D343E" d="M13.254,29.926c0.359,2.417,0.967,4.741,2.199,6.893c2.179,3.807,5.592,5.655,9.773,6.32
		c1.295,0.206,2.606,0.32,3.909,0.476c-0.018,0.035-0.049,0.103-0.052,0.102c-0.116-0.05-0.142,0.072-0.086,0.071
		c1.506-0.026,3.011,0.013,4.478-0.007c0.199,0.015,0.087-0.158,0.079,0.002c0,0.007-0.041,0.011-0.119,0
		c-0.219-0.032-0.482,0.092-0.637-0.175c0.828-0.165,1.665-0.2,2.506-0.165c0.355,0.191,0.741,0.058,1.109,0.108
		c0.239,0.032,0.453,0.091,0.337,0.414c-3.233,1.743-6.732,2.5-10.357,2.787c-1.27-0.139-2.539-0.158-3.808,0.008
		c-0.437,0.059-0.859,0.01-1.26-0.183c-0.522-0.212-1.046-0.413-1.628-0.287c-4.663-1.015-7.857-3.838-9.849-8.088
		c-1.005-2.145-1.55-4.422-1.644-6.798c0.135-1.111,0.169-2.222-0.015-3.332c-0.033-1.18,0.17-2.365,1.408-2.758
		c1.949-0.619,2.858-0.192,3.573,1.327c-0.059,1.076-0.105,2.153-0.066,3.231c0.006,0.16,0.06,0.246,0.045,0.087
		C13.146,29.952,13.216,29.937,13.254,29.926z"/>
	<path fill="#2D343E" d="M21.396,24.951c-0.003-0.086-0.006-0.172-0.008-0.258c1.481-0.688,3.027-0.262,4.548-0.264
		c1.569,1.586,3.099,3.215,4.724,4.742c0.859,0.807,0.471,1.352-0.13,1.972c-0.65,0.67-1.182,0.662-1.891-0.048
		c-1.489-1.492-3.088-2.875-4.599-4.264c0,0.969,0.024,2.21-0.011,3.449c-0.015,0.515,0.26,1.208-0.454,1.457
		c-0.746,0.26-1.55,0.466-2.163-0.332C21.532,29.254,21.568,27.102,21.396,24.951z"/>
	<path fill="#FDBB0D" d="M21.394,24.295c-0.015-1.837-0.015-3.674-0.049-5.51c-0.02-1.055,0.76-0.961,1.411-1.01
		c0.71-0.054,1.249,0.104,1.209,1.035c-0.054,1.234-0.013,2.472-0.013,3.854c0.926-0.467,1.407-1.212,2.024-1.787
		c0.848-0.789,1.694-1.587,2.464-2.45c0.671-0.752,1.212-0.571,1.794,0.05c0.57,0.608,0.745,1.165,0.008,1.829
		c-1.454,1.309-2.855,2.676-4.278,4.02C24.439,24.522,22.916,24.594,21.394,24.295z"/>
	<path fill="#001A3D" d="M21.394,24.295c1.523,0.01,3.046,0.021,4.569,0.031c0,0-0.028,0.104-0.028,0.104
		c-1.487,0.599-3.035,0.122-4.548,0.264C21.39,24.56,21.392,24.427,21.394,24.295z"/>
	<path fill="#1B1D20" d="M32.798,43.607c0.545,0.043,1.09,0.087,1.635,0.13c0,0.036-0.001,0.072-0.001,0.108
		c-2.139,0-4.279,0-6.418,0c-0.007-0.027-0.014-0.054-0.021-0.08c0.381-0.05,0.762-0.1,1.143-0.15
		C30.356,43.613,31.577,43.61,32.798,43.607z"/>
	<path fill="#191A1F" d="M43.64,17.59c0.042-0.709,0.084-1.418,0.126-2.127c0.038,0.001,0.076,0.002,0.115,0.003
		c0,2.158,0,4.317,0,6.475c-0.036,0.001-0.073,0.003-0.109,0.004c-0.043-0.628-0.086-1.257-0.129-1.885
		C43.641,19.237,43.64,18.414,43.64,17.59z"/>
	<path fill="#081225" d="M21.396,24.951c0.328,2.151,0.368,4.303,0.017,6.455C21.265,29.255,21.361,27.103,21.396,24.951z"/>
	<path fill="#000104" d="M13.254,29.926c-0.059,0.215-0.117,0.431-0.176,0.646c0.011-1.316-0.309-2.634,0.091-3.93
		C13.522,27.728,13.162,28.833,13.254,29.926z"/>
	<path fill="#2C3038" d="M46.566,28.783c-0.516-1.344-0.115-2.737-0.218-4.103c0.075-0.117,0.14-0.112,0.194,0.016
		C46.784,26.057,46.575,27.421,46.566,28.783z"/>
	<path fill="#000103" d="M22.584,46.76c1.269-0.336,2.538-0.329,3.808-0.008C25.123,46.877,23.853,46.872,22.584,46.76z"/>
	<path fill="#000104" d="M8.188,28.073c0.36,1.109,0.335,2.22,0.015,3.332C8.084,30.294,8.096,29.184,8.188,28.073z"/>
	<path fill="#22272F" d="M32.519,41.802c-0.232-0.039-0.465-0.078-1.044-0.176c1.049-0.14,1.747-0.286,2.466-0.092
		C33.505,41.828,33.011,41.811,32.519,41.802z"/>
	<path fill="#000208" d="M28.344,41.961c0.871-0.347,1.743-0.347,2.614,0C30.087,41.961,29.216,41.961,28.344,41.961z"/>
	<path fill="#07090E" d="M36.749,43.965c-0.346-0.549-1.063-0.073-1.446-0.522c0.686-0.043,1.372-0.087,2.093-0.132
		C37.359,43.848,37.003,43.847,36.749,43.965z"/>
	<path fill="#13151D" d="M43.968,13.365c-0.168,0.418-0.335,0.835-0.503,1.253c-0.026-0.438-0.063-0.876-0.072-1.315
		c-0.004-0.177-0.025-0.464,0.254-0.401C43.782,12.934,43.862,13.204,43.968,13.365z"/>
	<path fill="#01040B" d="M19.696,46.29c0.63-0.536,1.218,0.177,1.834,0.061c-0.003,0.036,0.008,0.089-0.012,0.105
		c-0.058,0.048-0.129,0.081-0.194,0.12C20.756,46.625,20.233,46.42,19.696,46.29z"/>
	<path fill="#00040C" d="M46.542,24.696c-0.065,0.001-0.13-0.004-0.194-0.016c0.096-0.787-0.241-1.611,0.206-2.368
		C46.733,23.108,46.545,23.902,46.542,24.696z"/>
	<path fill="#000208" d="M30.083,37.14c-0.777,0-1.553,0-2.33,0c0-0.029,0-0.059-0.001-0.088c0.792,0,1.585,0,2.377,0
		C30.114,37.081,30.099,37.111,30.083,37.14z"/>
</g>
</svg>
