<?xml version="1.0" encoding="utf-8"?>
<!-- Generator: Adobe Illustrator 18.0.0, SVG Export Plug-In . SVG Version: 6.00 Build 0)  -->
<!DOCTYPE svg PUBLIC "-//W3C//DTD SVG 1.1//EN" "http://www.w3.org/Graphics/SVG/1.1/DTD/svg11.dtd">
<svg version="1.1" id="Layer_1" xmlns="http://www.w3.org/2000/svg" xmlns:xlink="http://www.w3.org/1999/xlink" x="0px" y="0px"
	 viewBox="0 0 1242 959.3" enable-background="new 0 0 1242 959.3" xml:space="preserve">
<g>
	<g>
		<path fill="#91F5EF" d="M-5,614.3C-5,411.1-5,207.9-5.2,4.7c0-6.9,0.8-9.3,8.7-9.3c412,0.2,823.9,0.2,1235.9,0
			c7.8,0,8.8,2.3,8.8,9.2c-0.2,173.2-0.2,346.4-0.2,519.6c-3.5,3.4-0.5,9.6-5.3,12.5c-8.6,2.2-12.1-4.8-16.4-9.7
			c-12.6-14.3-25.1-28.9-38.4-42.6c-11.5-17.1-26.7-30.9-39.8-46.6c-9.6-11.4-19.5-22.7-29.6-33.7c-3.8-4.2-7.3-5.9-12.2-1
			c-23.2,23.2-46.3,46.5-69.7,69.6c-0.7,0.7-1.1,1.6-1.5,2.5c-1.9,3.1-4.5,5.6-7,8.1c-39,39.1-78.1,78.2-117.2,117.2
			c-3.8,3.8-7.3,8.6-13.9,7.6c-4-1.3-6-4.7-8.1-8c-31.6-49.6-63.1-99.2-94.5-149c-4.7-7.4-10.5-14.1-14.9-21.7
			c-3.9-10.5-11.1-19.1-16.9-28.4c-26.9-43.5-55.4-86-83-129c-5.1-7.9-5.7-7.9-10.2-0.4c-32.2,52.9-62.9,106.6-95.5,159.2
			c-0.5,0.8-0.7,1.8-0.9,2.8c-27.8,44.9-54.3,90.6-81.7,135.7c-2.8,4.7-5,10-10.7,12.3c-9.6,2.4-19.4,1.7-29.1,0.7
			c-2.4,0.1-4.8,0-7.1,0.1c-19,1.1-37.9,1.1-56.9,0c-2.4-0.1-4.8-0.1-7.2-0.1c-16.5,1.1-32.9,1.3-49.4-0.1
			c-6.3-1.8-10.4-6.5-14.4-11.3c-16.3-19.1-32.6-38.2-49.1-57.2c-12.9-16.3-27-31.6-40.5-47.5c-18.1-21.4-36.4-42.5-54.6-63.8
			c-8.1-9.5-9.2-9.7-16.5,0.2c-26.3,35.6-52.2,71.6-79,106.9c-1.4,1.9-2.5,3.8-3.1,6c-23.8,30.6-46.1,62.4-69.4,93.4
			C2.1,612-0.1,615.9-5,614.3z"/>
		<path fill="#3BD6CE" d="M-5,614.3c13.1-12.8,22-28.8,33.2-43.1c14.6-18.6,27.1-38.9,43.2-56.4c11.1-13.1,25.9-21.7,39.6-31.5
			c7.7-5.5,11.9-3,12.6,6.4c0.5,5.9-1.2,11.6-1.5,17.5c-0.4,5.8-0.7,11.7-2.1,18.6c11-13.2,20.5-26.2,31.1-38.2
			c2.6-3,6.4-9.6,10.9-1.1c0.7,4.9,0.4,9.8,0.4,14.7c0,98.2,0.1,196.4-0.1,294.6c0,11.4,1.7,22.8,1.2,34.2
			c-0.2,4.3-0.2,8.5-3.1,12.1c-3.6,3.5-8.3,3.5-12.8,3.5c-27.3,0.1-54.6,0.1-82,0c-4.3,0-8.5-0.1-12.1-2.9c-4.4-5.3-4.3-11-1.1-16.8
			c6.4-6,14.4-3.4,21.8-3.9c3.8-0.3,7.6-0.2,11.4,0.3c1.9,0.5,3.7,0.5,5.7,0.5c6,0,8.6-1.9,5-8c-2.9-5-4.6-10.6-7.8-15.5
			c-1.7-3.4-3.6-6.8-3.6-10.8c11.7-8.6,4.5-18.1,1.2-27.2c-3.9-10.7-7.9-21.3-12.1-31.9c-1.4-3.6-3-7.2-2.2-11.3
			c8-5.8,6.7-12.6,3.6-20.9c-9.9-25.7-19.5-51.6-28.6-77.6c-0.6-1.8-1.2-3.7-2.8-4.9c-5.6,11.4-8.7,23.6-13,35.4
			c-6.2,16.8-11.2,33.9-17.9,50.5c-3,7.6-2.9,12.7,5.7,15.3c1.6,3.3,0.2,6.4-1.1,9.3c-5.1,11.2-10.1,22.5-15.5,33.6
			c-1.5,3-2.5,7-7.3,6.4C-5,714.8-5,664.6-5,614.3z"/>
		<path fill="#3ED324" d="M1248,853.2c0,13.7,0,27.4,0,41.1c-2.9,3.1-6.6,4-10.6,4c-4.9,0-9.8,0.1-14.7,0.1
			c-225.9,0-451.7,0-677.6,0c-9.8,0-19.5,0-29.3,0.7c-5.6-0.8-9.6-4.8-14.2-7.5c-3.9-3.3-8-6.2-12.2-9c-3.2-3.2-7.5-4.9-10.9-7.9
			c-5.1-4.9-13.1-6.8-15.4-14.7c-0.5-4.9-0.2-9.6,3.6-13.4c8.9-2.8,18.7,0.7,27.3-4c18.5-1.7,37-2.7,55.5,0.4c3.9,2,4.5,5.8,5.2,9.6
			c0.6,3.6,1.5,7,6.2,7c4.7,0,5.5-3.4,6.1-7c0.7-3.7,1.3-7.6,5.2-9.6c1.8-0.9,3.7-1.5,5.6-1.5c29.9-0.1,59.9-0.9,89.8,0.4
			c7.1-0.2,14.2-1.8,21.1,1.3c3.8,2.1,4.3,5.9,4.9,9.6c0.6,3.7,1.6,6.8,6.2,6.8c4.7-0.1,5.5-3.5,6.1-7.1c0.7-3.8,1.3-7.6,5.3-9.6
			c3.7-1.9,7.6-1.6,11.5-1.6c37.5-0.1,75-0.1,112.5,0c3.9,0,7.9-0.2,11.5,1.8c3.6,5.4,8.7,6.4,14.9,6.3c15.5-0.1,31-0.8,46.5,0.5
			c5.8-1.2,11.6-0.6,17.4-0.1c12.9-1,25.8-0.9,38.8-0.1c20.7-0.9,41.4-1,62.1,0c12.5-0.8,24.9-1,37.4,0c11.8-0.9,23.6-0.9,35.5,0
			c16.4-1,32.7-0.9,49.1,0c30-1.2,59.9-0.4,89.9-0.5C1242.1,849.2,1245.3,850.5,1248,853.2z"/>
		<path fill="#35CAE5" d="M512.5,895.9c7.7-1.7,15.5-1.6,23.3-1.6c237.4,0,474.8,0,712.1,0c0,4.6,0,9.1,0,13.7
			c-5.2,5.4-11.8,1.8-16.9,2.9c5,1.1,11.7-2.5,16.9,2.9c0,3.3,0,6.5,0,9.8c-2.7,3-6.3,2.9-9.9,2.9c-120.1,0.2-240.2-0.1-360.4,0
			c-1.3,0-2.6-0.1-3.9-0.4c-10.7-7.7-28.3-7.8-38.4-0.1c-5.8,1.1-11.7,0.5-17.6,0.5c-58.7,0.1-117.4,0-176.1,0
			c-3.9,0-7.8,0.4-11.7-0.5c-3.6-2.3-7.3-3.6-11.7-3.5c-18.1,0.2-36.2,0.2-54.3,0c-4.4,0-8.2,0.9-11.7,3.4
			c-14.7,1.2-29.3,0.5-44,0.5c-45.3,0-90.7,0.3-136-0.2c-10.7-2.7-21.4-2.6-32.1,0c-44.1,0.5-88.2,0.2-132.3,0.2
			c-2.3,0-4.5-0.1-6.7-0.9c-3.8-4.1-8.4-5.1-13.9-5c-18.5,0.3-37,0.3-55.5,0c-5.5-0.1-10.2,0.8-13.9,5c-9.7,1.9-19.4,0.8-29.1,0.9
			c-26.9,0.2-53.9,0.1-80.8,0c-4.5,0-9.2,0.8-12.9-2.9c0-0.7,0-1.3,0-2c2.6-3.1,6.2-3,9.8-3c12.3,0,24.6,0,36.8,0
			c-12.3,0-24.6,0-36.8,0c-3.6,0-7.2,0.1-9.8-3c0-5.9,0-11.7,0-17.6c2-1.9,4.4-2.7,7.1-2.8c2.3-0.1,4.6-0.1,6.8-0.1
			c161.7,0.6,323.5-2,485.2-1.2C500.3,894.1,506.5,894.5,512.5,895.9z"/>
		<path fill="#2AB7DA" d="M-5,972.6c0-5.2,0-10.4,0-15.7c1.4-1.3,3-2.7,5-2.7c14.2-0.2,28.5-0.5,42.7,0.2c1.7,0.1,3,1.1,4.3,2.2
			c2.1,2.4,3.5,5.3,7.6,5.3c20.2-0.2,40.4,0.4,60.6-0.3c1,0,1.8-0.7,2.6-1.2c3.4-5.2,8.3-6.4,14.2-6.4c20.4,0.2,40.8,0.1,61.1,0.1
			c4.6,0,9.1-0.1,13.4-1.7c14.2-0.5,28.4-0.3,42.6-0.1c12.7,1.4,25.4,0.5,38,0.8c4.9,0.1,9.8,0,13.9,3.3c2.3,3.8,5.2,6,10.2,5.7
			c6.8-0.5,13.7-0.5,20.5,0c5.4,0.4,8.5-2,11.2-6c3-2.3,6.5-3,10.1-3c25.4-0.2,50.8-0.2,76.1,0c2,0,3.9,0.5,5.7,1.1
			c3,1.3,6.1,1.9,9.4,1.9c21.4-0.1,42.8,0,64.2,0c3.3,0,6.4-0.5,9.4-1.8c3.1-1.3,6.4-1.2,9.6-1.2c30-0.1,60-0.1,90,0
			c2.9,0,5.9-0.1,8.7,1.1c15,3.2,30.1,2.9,45.1,0.2c2-0.2,3.9-0.2,5.9-0.2c122.1,0,244.2-2,366.3-1.1c5.5,0,11.1-0.6,16.5,1.1
			c10.8,6,21.6,6.1,32.5,0.2c1.9-0.7,3.8-1.1,5.7-1.1c38.8-0.3,77.5-0.2,116.3,0c2.3,0,4.5,0.4,6.7,1.2c4,3.3,8.6,3.9,13.7,3.8
			c4.4-0.1,9.3-1.2,12.8,2.9c0,3.9,0,7.8,0,11.7c-3.4,2.7-7.5,1.9-11.3,1.9c-410.1,0-820.3,0-1230.4,0C2.4,974.5-1.6,975.3-5,972.6z
			"/>
		<path fill="#3ED324" d="M54,841.7c35.1-0.1,70.3-0.2,105.4-0.4c5.9-5,12.2-4.5,18.8-1.7c1.7,1.1,3.2,2.6,3.3,4.5
			c0.3,10.5,7.2,12,15.5,11.8c3.8-0.8,7.5-0.7,11.3,0c3.8-0.6,7.5-0.9,11.3,0c7.3,0,13.3-1.5,13.4-10.7c0-2.2,1.5-4.2,3.5-5.5
			c17.1-4,34.3-2.4,51.5-0.9c4.6,0.5,7,5.4,11.7,6c6.3,2.6,11.8,5.7,9.8,14.1c-4.3,6.5-11.9,7.4-18.1,10.4
			c-4.3,2.1-9.1,3.1-13.2,5.9c-4.7,2.4-10.3,2.8-14.6,6.3c-7.9,3.9-16.6,6.1-24.1,11.1c-6.4,2.9-13,3.8-20,3.8
			c-71.1-0.1-142.1,0-213.2-0.1c-3.8,0-7.9,0.8-11.3-1.9c0-17.6,0-35.2,0-52.9c12.2-7.2,25-4.2,37.7-2.2c4.7,2.6,4.7,7.4,5.2,11.8
			c0.5,3.8,0.3,8.1,5.7,8.6c4.8,0.2,5.8-2.9,6.3-6.8C50.5,848.9,49.7,844.3,54,841.7z"/>
		<path fill="#2FC1E0" d="M1248,937.4c0,2.6,0,5.2,0,7.8c-4.6,5-10.7,4-16.5,4c-85.5,0.1-170.9,0.1-256.4,0
			c-55.8,0-111.6,0.2-167.3-0.1c-2.6,0-5.2,0.1-7.7,0.8c-23,0.2-46.1,0.3-69.1,0c-18.1-3.7-36.4-2-54.6-1.4
			c-19.6,0.6-39.1,0.7-58.7,0.7c-117.1,0-234.2,0.9-351.3-0.2c-57.7-0.5-115.4-0.2-173.2-0.8c-3.2,0-6.6,0.5-9.6-1.3
			c-2.9-2.3-4-5.3-2.9-8.9c2.1-3.2,5.4-3.2,8.7-3.4c3.9-0.1,7.8-0.1,11.7-0.1c264.6,0,529.3,0,793.9,0c5.5,0,11.1-0.3,16.6,0.4
			c14,5.5,28.1,5.6,42.1-0.1c48.4-0.8,96.9-0.2,145.3-0.4c15-0.1,29.9,0,44.9,0c18.4-0.1,36.8,0.3,55.2-0.2
			c13.1-1.5,26.3-0.4,39.5-0.7C1242.2,933.5,1245.3,934.7,1248,937.4z"/>
		<path fill="#2CBCDD" d="M82.8,945.1c211.6,0,423.3,0.1,634.9,0.1c4.5,0,9.2-1.3,13.3,1.6c-0.4,3.3-2.4,5.4-5.3,6.6
			c-14.2,1.2-28.4,0.3-42.5,0.5c-4.2,0.1-8.4-0.2-12.5,1c-10.7,2-21.4,0.5-32.1,0.9c-3.9,0.2-7.8-0.2-11.6,1c-36.3,0-72.7,0-109,0
			c-19.5-2.2-39-0.6-58.5-0.9c-8.1-0.1-16.3-1.1-24.3,0.9c-26.9,0-53.8-0.1-80.7,0c-3.8,0-7.9-1.1-11.1,2.1c-2.7,2.9-6.3,3-9.9,2.7
			c-11-1.1-22.4,2.9-33-2.7c-10.8-4.8-22.2-0.9-33.3-2.2c-5.9-0.7-12.3,2-17.8-2.1c-1-0.8-1.9-2.1-3.2-2.2
			c-14.5-0.4-29.1-2.1-43.6,1.2c-1.3,0.2-2.6,0.3-3.9,0.2c-46.1-0.7-92.3,1.6-138.4,0.9c-18.8-0.3-37.6-1.1-56.5-0.9
			c-3.3,0-6.5-0.3-8.9-2.9c0-2,0-3.9,0-5.9c2.4-2.4,5.2-3.8,8.7-3.8c17.2,0.2,34.4-0.8,51.6,0.6c6,0.6,12,0.2,18,0.3
			C76.7,942.3,80.3,942.1,82.8,945.1z"/>
		<path fill="#2CBCDD" d="M670.2,953.1c10-4.1,20.4-1.5,30.6-2c8.7-0.4,17.4-0.1,26.1-0.1c20.8-2.2,41.7-0.3,62.5-1.1
			c3.6-0.1,8.1,1.8,10.3-3.2c3.8-2.7,8.2-1.6,12.3-1.6c145.3-0.1,290.7,0,436,0c0,3.3,0,6.5,0,9.8c-8.2,5.3-17.1,2.7-25.8,2
			c-43.5,0-87,0-130.5,0c-10,1.6-20,1.6-30,0c-130.3,0-260.6,0-390.9,0C669.4,955.8,669.2,954.6,670.2,953.1z"/>
		<path fill="#34C8E4" d="M629.6,923.7c69.1,0,138.3-0.1,207.4-0.1c11.6-4.6,23.2-4.6,34.8,0c125.4,0,250.7,0.1,376.1,0.1
			c0,2,0,3.9,0,5.9c-3.7,4-8.6,3.8-13.5,3.9c-12.6,0.3-25.1-0.9-37.7,0.8c-17,0.2-34.1,0.6-51.1-0.2c-6.4-1.6-12.9-1.6-19.4-1.6
			c-245.7,0-491.4,0-737.1,0c-5.5,0-11.1,0.7-16.5-0.9c-1.2-0.6-2.1-1.4-2.8-2.6c-0.6-2-0.3-3.8,1.3-5.3c60.5,0,121,0,181.4,0
			C578.3,922,603.9,922,629.6,923.7z"/>
		<path fill="#FEFEFE" d="M-5,972.6c417.7,0,835.3,0,1253,0c-0.8,1.2,1.9,4.2-2,3.9c-2.3-0.1-4.6,0-6.9,0
			c-411.8,0-823.6,0-1235.4-0.3C1.2,976.3-5.3,981.1-5,972.6z"/>
		<path fill="#32C4E2" d="M912.8,937.4c-273.5,0-546.9,0-820.4,0c-3.8,0-7.9-1-11.4,1.6c-7.2,6.3-15.7,2.1-23.5,3
			c-16.4-1.6-32.8-0.4-49.2-0.7c-4.9-0.1-9.7,0.1-13.4-3.9c0-1.3,0-2.6,0-3.9c4.4-4.1,9.8-2.9,14.9-2.9
			c116.1-0.1,232.3-0.8,348.4,0.1c180.4,1.5,360.7,0.2,541.1,0.9c4.7,0,9.8-1.6,14,2.2C913.9,935.1,913.7,936.3,912.8,937.4z"/>
		<path fill="#33C7E3" d="M-5,894.3c66.7,0,133.5,0,200.2,0c15.5,0,31.2,1.4,45.7-6.1c10.1-2.8,20.4-3.8,30.9-3.7
			c69.5,0.2,138.9,0.1,208.4,0c7.6,0,14.9,0.7,21.8,4c3.5,2.5,7,5,10.5,7.5c-4.8,2.9-10,2.3-15.2,2.3c-167.4,0-334.9,0-502.3,0
			C-5,896.9-5,895.6-5,894.3z"/>
		<path fill="#25B516" d="M1248,788.6c0,7.8,0,15.7,0,23.5c-1.7,3.1-4.1,4.9-7.8,4.8c-18.6-2.4-36.7-7.7-55.1-11.1
			c-13.7-2.6-23.9,2.4-33.1,11.5c-0.8,0.7-1.7,1.2-2.6,1.5c-5.5,2.6-11.6,2.9-15.1-1.9c-9.4-12.6-22.8-14-36.6-15.2
			c-10,0.9-20.1,0.1-30.2,1c-1.2-0.2-2.2-0.5-3.3-1.1c-1-0.7-1.8-1.6-2.3-2.7c-1.6-4.4-1.3-8.5,2.4-11.9c12.6-4.6,25.5-2.1,38.3-1.8
			c6.6-0.7,13.2-1,19.9,0c6.6-0.8,13.1-0.9,19.7,0c6.6-0.9,13.1-0.9,19.7,0c6.7-0.9,13.3-0.8,20,0c17.9-1,35.9-1.1,53.8,0
			C1240.2,784.8,1244.6,784.8,1248,788.6z"/>
		<path fill="#32C5E2" d="M913.2,935.6c-3.9-3.6-8.7-2.1-13.1-2.1c-301.7-0.1-603.5-0.1-905.2-0.1c0-0.7,0-1.3,0-2
			c4.4-4.1,9.8-2.9,14.9-2.9c115.8-0.1,231.7-1.4,347.4,0.2c258.3,3.6,516.6,0.4,774.9,1.7c3.8,0,7.9-1,11.4,1.5
			c1.7,1.5,1.8,3.3,0.8,5.2c-63.9,0-127.8,0.1-191.8,0.1C939.5,938.1,926.2,940.9,913.2,935.6z"/>
		<path fill="#005321" d="M1248,639.8c0,23.5,0,47,0,70.5c-3.5,3.7-8,4-12.6,4c-8.8,0-17.6,0.1-26.4-0.1c-2.9-0.7-5.8-0.5-8.7-0.4
			c-11.8,0.1-14.7-4.2-9.9-15.2c3.6-8.4,7.1-16.8,11.3-24.9c5.2-10.1,7.8-21.5,15.5-30.3C1226.1,636.3,1239,634.8,1248,639.8z"/>
		<path fill="#005321" d="M-5,765.1c7.7-16.3,15.3-32.5,23-48.8c7.9-5.9,16.6-6,25.6-3.6c1.1,0.7,1.9,1.7,2.5,2.8
			c3,6.1,1.7,12.7,1.8,19c0.2,12.9,0.1,25.8,0,38.7c0,3.9-0.2,7.8-2.6,11.1c-4.5,4.9-10.5,4.2-16.2,4.3C21,788.8,13,788.5,5,787.9
			c-3.5-0.4-7.3-0.1-10-3.2C-5,778.1-5,771.6-5,765.1z"/>
		<path fill="#00682B" d="M1248,639.8c-9.9,1.2-20.4-0.7-29.2,5.9c-12.1-1.7-14.5-5.2-11-16.9c8.2-27.7,17.5-55.1,26.8-82.5
			c1.4-4.1,3-7.9,7-10.1c2.1-4,0.8-9.8,6.5-11.9C1248,562.8,1248,601.3,1248,639.8z"/>
		<path fill="#33C7E3" d="M1143.9,933.5c-4.8-3-10.1-1.9-15.3-1.9c-377.9,0-755.8,0-1133.6,0c0-0.7,0-1.3,0-2
			c4.7-4.3,10.5-2.9,15.9-2.9c110.7-0.1,221.3-0.1,332-0.1c9.3,1.1,19.2-2.6,28.1,2.9c254,0,508,0,762,0.1c4.5,0,9.2-1.3,13.3,1.6
			C1146,932.6,1145.3,933.3,1143.9,933.5z"/>
		<path fill="#00471C" d="M1206.2,710.5c13.9-0.1,27.9-0.2,41.8-0.3c0,13.7,0,27.4,0,41.1c-3.3,3.6-7.6,3.7-12,3.3
			c-10.8,1.2-21.6,0.7-32.3,0.5c-5.2-0.6-10.4-0.2-15.5-1c-3-0.3-5.2-1.6-6.1-4.7c-0.2-6,4.4-9.8,6.8-14.5
			C1194.8,726.9,1197.5,716.6,1206.2,710.5z"/>
		<path fill="#A96A3B" d="M1248,853.2c-33.3-0.1-66.6-0.2-99.8-0.3c-5.6-6.5-4.9-13.3-0.9-20.2c4-3.9,8.9-5,14.3-5
			c25-0.1,49.9-0.1,74.9,0c4.3,0,8.4,0.6,11.6,4C1248,838.8,1248,846,1248,853.2z"/>
		<path fill="#00471C" d="M4.2,784.9c13.2-0.1,26.4-0.1,39.6-0.2c0.5,0.4,0.9,0.7,1.4,1.1c4.5,12.8,3.2,25.6,0.9,38.6
			c-0.5,1.1-1.3,2.1-2.3,2.9c-3.3,2.4-7.1,1.9-10.8,1.9c-9.4,1.3-18.9,0.5-28.3,0.6c-3.7,0-7-1.2-9.7-3.9c0-8.5,0-17,0-25.5
			C-2.5,794.9-2.4,787.9,4.2,784.9z"/>
		<path fill="#A46638" d="M1248,831.7c-27.8,0-55.7,0.1-83.5,0c-5.5,0-11,0.3-16.3,2c-2.8-1.8-3.1-4.7-3-7.6
			c-0.6-3.6,0.8-6.7,2.8-9.6c0.5-0.3,1-0.5,1.6-0.5c9.2-4.6,19.1-2.7,28.7-3.1c20.6-0.8,41.2,0.9,61.7,1.6c2.6-0.8,5.3-1.5,7.9-2.3
			C1248,818.6,1248,825.1,1248,831.7z"/>
		<path fill="#2CBCDD" d="M-5,951.1c69.7,0,139.4,0,209.2,0c2,0.7,2.3,2.4,2.3,4.2c-3.5,2.6-7.5,1.6-11.4,1.6
			c-20.5,0.1-41.1,0.3-61.6-0.1c-6.6-0.1-11.1,1.4-13.1,8c-2.9-3.5-6.9-3-10.8-3c-17.5,0-35.1,0-52.6,0c-3.9,0-7.9,0.6-10.9-2.7
			c-5.9-4.2-12.6-1.8-18.9-2.1C16.4,956.6,5.7,957-5,957C-5,955-5,953-5,951.1z"/>
		<path fill="#34C8E4" d="M-5,923.7c41.2,0,82.4-0.1,123.6-0.1c2.4-2.8,5.6-2.9,8.9-2.9c21.3,0,42.7,0,64,0c3.3,0,6.5,0.1,8.9,2.9
			c47,0,93.9,0.1,140.9,0.1c1.3,1.8,1.6,3.5-0.7,4.7c-113.6,0.4-227.2,0.1-340.8,0.2c-1.6,0-3.3,0-4.7-1C-5,926.3-5,925-5,923.7z"/>
		<path fill="#33C8E3" d="M-5,927.6c115.6,0,231.2-0.1,346.8-0.1c0.7-0.5,1.4-0.6,2.1,0c0.4,0.8,0.3,1.5-0.4,2.1
			c-116.2,0-232.3,0-348.5,0C-5,928.9-5,928.2-5,927.6z"/>
		<path fill="#3BD6CE" d="M-5,825.8c13,0.1,26.1,0.2,39.1,0.3c4.6,5.3,5,10.5-0.3,15.6c-12.9-0.1-25.9-0.1-38.8-0.2
			C-5,836.2-5,831-5,825.8z"/>
		<path fill="#2FC1E0" d="M-5,937.4c17.4,0,34.9,0,52.3,0c3.5,0,7.2-0.8,10.3,1.6c0.5,2.3,0,4.4-1.7,6.1c-20.3,0-40.6,0.1-60.9,0.1
			C-5,942.6-5,940-5,937.4z"/>
		<path fill="#673838" d="M1236.2,751.7c3.9-0.1,7.9-0.2,11.8-0.3c0,12.4,0,24.8,0,37.2c-3.9-0.1-7.8-0.2-11.8-0.3
			C1229.9,776.1,1229.9,763.9,1236.2,751.7z"/>
		<path fill="#33C7E3" d="M1197.1,931.2c12.6-3.6,25.6-0.8,38.3-1.6c4.2-0.3,8.4,0,12.6,0c0,2.6,0,5.2,0,7.8
			c-16.4,0-32.8-0.1-49.2-0.1C1197,935.6,1196.5,933.5,1197.1,931.2z"/>
		<path fill="#B4FDFE" d="M-5,915.8c15.9,0,31.8-0.1,47.7,0.1c2.5,0,6.8-1.5,6.4,3.3c-0.3,3.6-4.1,2.4-6.4,2.4
			c-15.9,0.1-31.8,0.1-47.7,0.1C-5,919.8-5,917.8-5,915.8z"/>
		<path fill="#B4FDFE" d="M1248,913.9c-7.4,0-14.9,0-22.3-0.1c-2.2,0-5,0.1-4.5-3.3c0.3-2.6,2.7-2.4,4.5-2.4
			c7.4-0.1,14.9-0.1,22.3-0.1C1248,910,1248,911.9,1248,913.9z"/>
		<path fill="#A9F7FE" d="M1222.2,957c8.3-4.3,17.2-0.9,25.8-2c0,2,0,3.9,0,5.9c-6.1,0-12.2,0-18.3,0
			C1226.5,960.8,1222.9,961.7,1222.2,957z"/>
		<path fill="#34CABE" d="M4.2,784.9C2.1,790.6-0.7,796-5,800.3c0-5.2,0-10.4,0-15.7C-2,784.7,1.1,784.8,4.2,784.9z"/>
		<path fill="#169D75" d="M848.4,845.6c-46.2-0.1-92.4-0.2-138.5-0.2c-6.1-6-5-12.6-1.8-19.4c3-3.4,6.9-4,11.2-3.5
			c9.1-0.4,18.1-0.4,27.2-0.3c6.3,0.1,7.4-2.3,4.5-7.6c-3.2-6-6.3-12.1-9-18.3c-1.6-3.6-3.2-7.2-2-11.2c0.4-0.8,1.1-1.5,1.8-2.1
			c6-1.4,7.2-4.5,5.1-10.4c-2-5.7-4.4-11.3-6.8-16.8c-4.3-11.6-8.6-23.2-12.7-34.8c-0.2-1.5-0.1-2.9,0.5-4.3
			c0.5-0.9,1.1-1.6,1.9-2.1c4.9-1.9,6-5.2,4.1-10c-5.6-14.1-9.9-28.7-15.2-43c-5.8-17.8-11.7-35.5-18.9-52.7c-2.7,2-2.5,5.1-3.3,7.9
			c-6.2,22.9-14.6,45.1-22.1,67.6c-1,2.9-1.8,11.5-8.5,3.7c-1.8-4-1.5-8.3-1.4-12.5c0.8-85.9,2.8-171.8,2-257.7
			c0-3.9-0.1-7.9,2.2-11.3c6.8-5.5,8.7,1.3,10.5,4.9c6.9,13.3,14.2,26.3,21.1,39.6c1.5,2.9,2.7,5.9,5.2,9.6c3.4-9.2,5-18,7.3-26.5
			c3.4-12.6,6.5-25.2,10.6-37.6c3.2-9.7,7.9-11.4,15.9-4.9c14.6,11.8,30.9,21.8,42.7,36.9c12.1,13.3,20.3,29.3,29.9,44.3
			c28.7,44.5,57.1,89.3,85.6,134c3.1,1.3,5.6,3.1,7.4,6c15.4,25.5,33,49.7,47.1,76c0.9,4.4-1,8.3-3,12c-2.7,5.1-3,8.5,4.2,8.6
			c2.3,0,4.4,1,5.7,3.2c0.3,9.5-6.7,15.8-10.3,23.6c-1.1,2.3-2.5,4.5-4,6.7c-3.1,4.7-2.2,7,3.7,6.9c9.4-0.1,18.8-0.2,28.2,0.1
			c4.8,0.1,9.9-0.1,13.1,4.8c2.7,11.3,3.4,22.5-0.5,33.7c-3.3,3.9-7.9,4-12.4,4.2c-6.1,0.2-12.3,0.3-18.4,0
			c-15.9-0.8-31.5-0.3-45.4,8.9c-6.8-1.2-8.5-6.2-9.2-12c10.2-8.8,5.9-18.2,1.6-28.1c-5.3-12.1-9.4-24.7-14.3-37
			c-0.8-2.9-1.4-5.8,0.2-8.6c6.1-3.1,6.4-7.5,4.2-13.6c-8.8-24.7-17.6-49.5-26.6-74.1c-2.1-5.8-2.8-12-6.1-17.2
			c-4.1,4.3-3.8,10.2-5.5,15.2c-8.3,24.2-16,48.6-24.5,72.7c-2.6,7.5-4.2,13.9,3.6,19.1c0.7,6.5-2.6,11.9-5.2,17.4
			c-5.7,12.3-11.2,24.7-16.9,37c-2.7,5.8-4.9,11.1,4.6,12.4c1.9,0.3,3.3,2,3.6,4.2c-1,9.2-7.1,15.9-11.3,23.5c-5.2,9.4-5,9.8,6,9.9
			c8.1,0.1,16.3-0.1,24.4,0.1c4.5,0.1,9.2-0.1,12.7,3.8c3.1,4.8,2.1,9.9,1,15C853.8,844,852.1,846.2,848.4,845.6z"/>
		<path fill="#1DB08B" d="M671.6,404.8c-1.9,3.7-1.2,7.7-1.2,11.5c0,55.1,1.1,110.1-0.5,165.2c-1,36.4-1.1,72.8-1.4,109.3
			c2.9,2.7,2.5,6.2,1.2,9.1c-3.3,7.2-1.9,13,4.1,17.9c1,5.1-1.4,9.5-3.3,13.9c-6.9,16.3-14.7,32.2-21.9,48.5c4.1,2.2,9,0.4,12.2,3.8
			c2,3.7,0.2,6.9-1.4,10c-1.6,3.2-3.7,6.1-5.3,9.2c-3,5.7-10.2,11.5-8.4,16.7c2.1,5.7,11,1.2,16.7,2.6c3.2,0.8,6.4,1.3,8.2,4.5
			c2.3,6.4,3,12.6-2.1,18c-32.5,0.1-65,0.2-97.6,0.3c-6.1-6-5-12.7-1.7-19.5c4.2-4.2,9.4-4.3,14.8-3.5c8.4-0.2,16.9-0.3,25.3-0.1
			c6,0.1,7.5-1.8,4.8-7.5c-4.2-9.1-10.6-17.3-11.8-27.6c-0.2-6,10.6-3.7,8.4-11.2c-1.4-5-3.8-9.7-5.2-14.7c-1-3.5-2.6-6.6-4.2-9.8
			c-2.8-11.3-10.3-21.1-10.7-33.2c7.8-5.6,6.1-12,3.1-19.9c-9.9-26.3-18.9-52.8-28.6-79.1c-0.6-1.5,0.1-4.2-2.9-4.1
			c-10.4,30-20.9,59.9-30.9,90c-2.2,6.6,3.6,8.2,5.6,12.2c1.4,4.1-0.3,7.7-1.9,11.2c-6.3,14.3-12.6,28.6-19.4,42.6
			c-2.9,6-5.4,11,4.8,10.9c1.3,0,2.4,0.9,3.4,1.8c0.6,0.8,1.3,1.8,0.9,2.7c-5.5,14.4-11.9,28.3-24.1,38.6c-1,0.1-2,0-3-0.4
			c-5.8-3.5-6.4-9.4-6.7-15.3c-0.3-5.2-0.3-10.4-2.1-15.3c-3.1-8.5-11.8-14.6-18.9-10.6c-11.5,6.4-17,0.4-22.8-7.6
			c-1-1.3-1.9-2.7-2.4-4.3c-2.3-8.1-1.3-16.4-0.8-24.6c-0.8-10.2-0.9-20.4,0-30.5c-1.1-24-0.4-47.9-0.5-71.9c0-8.9,4.7-16,9.8-22.8
			c2-3.4,4.4-6.5,6.6-9.8c0.7-1.6,1.8-3,2.7-4.5c1.3-2,2.7-3.9,3.8-6.1c0.7-1.4,1.6-2.7,2.4-4c0.9-1.3,1.6-2.6,2.5-3.9
			c1.4-1.9,2.7-3.9,3.7-6.1c1.5-3.6,4.8-5.7,7.2-8.5c27.5-46.2,54.9-92.4,82.4-138.6c1.6-2.7,4-5,6.1-7.5
			c10.3-14.1,24.9-23.7,37.4-35.5c6.8-6.4,12.8-4,14.3,5.3c1.6,10,0.4,20.1,0.7,30.2c0.2,5.5-0.6,11,1,17.4c7.5-7,12.4-15.3,18-22.9
			c6.4-8.6,12.3-17.6,19.7-25.4c2-2.1,4.3-4.5,7.6-2.9C671.5,400.1,674,401.7,671.6,404.8z"/>
		<path fill="#25C7BA" d="M290.1,841.5c-18,0-36,0.1-54.1,0.1c-7.7-9.4-3.8-19.9-3.2-30.2c1.5-3.8,3.8-4.7,7.4-2.3
			c2,1.4,4.4,3.8,6.7,1.2c2.6-2.9-0.5-5.2-1.9-7.6c-3.4-6-9.9-10.2-10.3-18c2.9-5.8,8-9,13.7-11.5c1.4-0.7,3.6-0.4,4.1-2.2
			c0.7-3.3-6.7-13-10.1-13.3c-3.1-0.3-3.3,2.6-4.4,4.4c-2.7,4.6-6.5,8-11.6,9.8c-5.4,0.2-7.3-4.3-10.3-7.4c-2.8-2.9-3.9-7.4-8.3-8.8
			c-4.7,1.1-6.3,5.4-8.9,8.5c-9.1,11.1-17.9,22.4-26.9,33.5c-2.8,3.5-6.2,9.8-11.6,2.2c0-105-0.1-210,0.1-315
			c5.4-6.6,8.7-0.5,11.3,2.6c11.8,13.9,23,28.2,34.2,42.5c-2.2-14-4.7-28.3-6.5-42.6c-1.2-9.4,2.8-12.9,11.2-8.5
			c19.9,10.3,40.9,18.6,58.2,33.3c17.2,15.8,30.5,35,46.3,52.1c4.4,4.7,8.4,9.8,12.6,14.7c2.6,2.5,3.5,5.6,3,9.1
			c0.2,2.7,0.6,5.3,0,8c0,2.1,0.2,4.2-0.1,6.3c0.2,2.1,0.1,4.2,0,6.3c0.6,2.7,0.2,5.4,0.1,8.2c0.6,2.9-0.1,5.8,0.2,8.6
			c1,25.9,1,51.8,0,77.7c0.3,5.4,1,10.8-0.1,16.1c0.5,4.1,0.8,8.1,0,12.2c0.8,5.2,0.9,10.3,0,15.5c0.6,4.5,0.9,9,0,13.5
			c0.4,3.9,0.9,7.7-0.1,11.6c0,2.6,0.4,5.3-0.8,7.8c-1.6,3.8-4.9,3.4-8.2,3.6c-12.1,0.8-16.8,5.7-15.4,17.4
			c0.9,7.5-1.1,12.6-7.8,16.2c-4.4,2.4-7.8,6-8.8,11.2c-0.3,2.8,1.5,5.2,1.5,7.9c0.1,1.4,0.3,2.8-0.3,4.1
			C290.8,840.9,290.5,841.2,290.1,841.5z"/>
		<path fill="#3BD6CE" d="M950.5,688.8c-10.3-12.1-17.5-26.3-26.2-39.4c-9.3-14-17.9-28.4-26.8-42.7c3.2-0.4,5.1-2.7,7.1-4.8
			c41.9-41.8,83.8-83.6,125.7-125.4c0.9-0.9,1.5-2.1,2.2-3.2c11.4-7,23.3-13,35.4-18.5c9.4-4.2,13-1.5,11.5,8.6
			c-2,13.5-5.5,26.7-8.4,39.8c9.6-11.4,19.5-23,29.9-34.2c2.8-3,6.5-8.1,10.4-0.7c1.2,4.5,1.5,9,1.5,13.6c0,63.2,0,126.3,0,189.5
			c0,3.6,0.2,7.2-0.8,10.6c-0.3,4.7-2.5,8.3-6.2,11.4c-8.7,7.3-8.5,7.8,2,11.8c4.6,3.5,7,8,6.5,13.9c-3.7,8.9-12.7,12.6-19,18.9
			c-2.3,2.3-5.2,3.9-7.3,6.3c-1.5,1.7-3.3,3.6-1.3,5.9c2.1,2.5,4.1,0.5,5.9-0.6c3.8-2.2,7.2-6.4,11.9-1.5
			c3.1,13.4,5.4,26.8-1.6,39.7c-13,0.2-26.1,0.4-39.1,0.6c-3,2.9-6.7,3.6-10.8,3.7c-10.7,0-21.5,0-32.2,0c-7.1,0-12.7-2.4-16-9
			c-2.6-9.6-2.8-19.2,0-28.8c3-4.9,8.1-4.8,13-4.9c9.4-0.3,18.9-0.2,28.3-0.1c5.5,0.1,7-1.7,4.5-6.9c-4-8.5-9.4-16.4-12.2-25.5
			c-0.1-1.3-0.4-3.1,0.6-3.7c9.3-5.8,5.1-12.9,2.3-20.1c-4.7-12.1-9-24.3-13.9-36.4c-1.4-3.6-3-7.2-2.4-11.3
			c8.2-5.7,7.3-12.8,3.4-20.6c-1.7-3.4-2.8-7.4-0.6-11.2c2.8-4,11.9-3.3,9.6-10.3c-1.9-5.8-8.6-2.1-13.1-3.4
			c-0.9-0.3-1.9-0.6-2.7-1.1c-9.6-15.4-13.4-33-19.2-49.9c-1.4-4-2.5-8.1-4.1-11.9c-2.1-1.3-1.9,0.6-2.3,1.7
			c-9.6,29.9-19.6,59.7-29.3,89.6c-2.3,7.1-1.6,11.6,5.4,14.7c1.6,3.4,0.3,6.4-1.1,9.4c-4.6,9.7-8.5,19.8-13.6,29.3
			C956,684.9,955.2,689,950.5,688.8z"/>
		<path fill="#25C7BA" d="M1109.1,687.2c0-73.8-0.1-147.6-0.1-221.4c2.4-6.1,5-0.9,6.5,0.4c4.2,3.6,7.2,8.3,10.7,12.6
			c6.8,8.4,13.5,16.7,20.5,25.7c-1.8-12.8-4.3-24.9-6-37.2c-0.5-3.5-1.7-7.5,1.9-10c3.5-2.4,7,0,10,1.7
			c12.6,7.3,27.1,11.5,36.4,23.8c15.1,10.9,24.9,26.7,37.7,39.8c4.6,4.7,7.6,11.3,14.7,13.4c-10,30.9-20,61.7-30.2,92.5
			c-2.2,6.7-5.3,13.3,6.2,13.7c0.4,0,0.8,2.2,1.2,3.3c-8.8,19.1-17.4,38.2-26.5,57.1c-3.2,6.6-1.6,8.5,5.3,7.8
			c2.9-0.3,5.8-0.1,8.7-0.1c-3.9,9.2-9.2,17.6-15,25.7c-4.2,1.1-6.5-2.1-9.2-4.2c-10.7-8.5-20.2-18.2-29.8-27.7
			c-2.7-2.7-4.9-6.1-9.1-6.8c-5.4,2.9-7.9,10.2-15.3,9.9c-4.7-1.7-6.2-5.6-6.9-10C1123.3,686.6,1115.4,687.8,1109.1,687.2z"/>
		<path fill="#FEFEFE" d="M671.6,404.8c-1.4-4.1-2.4-6.5-6.6-1.5c-12.1,14.1-22.1,29.7-33.5,44.3c-3,3.8-5.8,7.6-8.7,11.5
			c-1-0.1-2-0.2-3-0.3c0-21.1,0-42.3,0-63.4c-1-0.2-2.1-0.5-3.1-0.7c-15.6,12.5-29.1,27.6-46,38.3c7.5-17.4,18.5-32.7,28.1-48.9
			c23.3-39.5,47-78.7,70.4-118.2c3.6-6.2,5.2-8.7,10.3-0.6c32.6,51.7,65.8,103.1,98.8,154.6c1.7,2.7,3.8,5.3,3.8,8.8
			c-18.3-11.7-33.9-27.1-52.4-40.2c-8.9,26.9-14.9,53.9-22.7,82.2C694.6,447.6,683.1,426.2,671.6,404.8z"/>
		<path fill="#FEFEFE" d="M268.9,512.3c-19.5-8.1-37.3-19.6-56.2-29c-3.3-1.7-6.3-4.9-11.2-3.6c3,19.4,5.9,38.7,9.4,61.1
			c-17.1-20.8-32.3-39.3-47.5-57.7c-1.3-1.2-2.7,0-4,0c-13.8,16.7-27.5,33.3-42.6,51.6c-0.6-19,4.9-35.5,3.2-53.5
			c-17.7,10.5-31.5,24.4-48.7,33.5c6.4-14.8,17.8-26.3,27-39.2c19.1-26.8,39.2-52.9,58.4-79.7c5.1-7.1,8.1-7.4,13.7-0.8
			c28.9,34.1,58.1,67.8,86.9,101.9C261.3,501.8,267.4,505.4,268.9,512.3z"/>
		<path fill="#FEFEFE" d="M1004.4,298.7c2.1-2.8,3.4-4.6,4.8-6.3c5.3-6.6,12.3-9.9,20.7-8.4c8.2,1.5,13.2,7.2,14.7,15.2
			c1.5,8.1,3.9,11.1,12.8,6.9c7.7-3.6,19.9,2.6,24.2,10.4c2,3.7,2.1,6.2-3.1,6.1c-1.6,0-3.3,0-4.9,0c-67.5,0-135,0-202.5,0
			c-11.1,0-12.1-1.4-7.5-11.6c2.4-5.4,5.6-10.4,10.3-14.1c8.6-6.8,19.1-4.4,28.7,7.2c2.7-13.7,6.6-26.1,16-36
			c13.8-14.5,29.3-24,50.3-18.7c16.3,4.1,26,15.4,31.1,30.9C1001.5,285.8,1002.6,291.6,1004.4,298.7z"/>
		<path fill="#FEFEFE" d="M146.8,202c12.7-9.1,14-9,26,1.9c2.8,2.6,4.6,3.6,8.1,0.6c15.5-13.5,23.6-12.3,34.7,5
			c4.2,6.5,10.4,14.3,7,21.2c-2.5,5.1-12,1.8-18.3,1.9c-51.2,0.2-102.4,0-153.6,0.2c-7.5,0-13.1-0.7-12.5-10.1
			c0.6-10,8.4-18,16.7-15.8c7.1,1.9,8.8-0.4,8.6-6.8c-0.7-19.4,10.5-31.3,25.7-40.7c11.6-7.2,40.4-0.9,47.7,18.6
			C139.8,185.8,143.3,193.5,146.8,202z"/>
		<path fill="#FEFEFE" d="M1189.1,483c-15-8.4-30-16.8-46.6-26c3.2,19.9,6.1,38.1,9,56.2c-0.5,0.3-1,0.7-1.4,1
			c-7.6-9.5-14.9-19.3-22.9-28.4c-6-6.8-9.4-15.8-18.2-20c-13.8,15.4-27.5,30.8-43.1,48.1c4.3-21.4,8.1-40.2,12.2-60.6
			c-12.3,6.1-23,11.3-33.7,16.7c-3.8,1.9-7.5,3.9-11.9,3.4c25.2-25.4,50.5-50.8,75.6-76.4c2.9-2.9,5-3.4,7.9-0.1
			c23.8,27.2,47.7,54.3,71.5,81.5C1188.6,479.6,1188.6,481.5,1189.1,483z"/>
		<path fill="#FEFEFE" d="M332.7,382.2c2.1-22.7,12.6-35.8,31.6-42c15.7-5.1,30.1,0.3,38.4,14.7c5.2,9,10.1,18.2,12.9,28.4
			c1.1,4,2.4,5.2,6.7,2.4c11.6-7.4,20.8-4.1,26.5,8.4c2.3,5.1,1.6,7-4.3,6.9c-11.1-0.2-22.1,1-33.1,1.3
			c-37.1,1.2-74.2,1.4-111.2,2.6c-8.1,0.2-10.1-2.7-9.6-10.1c0.7-10.7,5.1-19.1,14.7-23.6C316.1,366.3,324.7,371.3,332.7,382.2z"/>
		<path fill="#58EEFA" d="M386.6,579.1c19.5,0,39.1,0,58.6,0c3,3.5,3.2,7.1,0.3,10.7c-2.7,2.3-6,2-9.2,2c-13.5,0-27.1,0-40.6,0
			c-3.2,0-6.5,0.3-9.3-1.9C383.4,586.2,383.6,582.6,386.6,579.1z"/>
		<path fill="#58EEFA" d="M328,588.9c-0.1-3.3-0.1-6.5-0.2-9.8c17.6,0,35.2,0,52.7,0c3,3.5,3.2,7.1,0.3,10.7
			c-2.7,2.1-5.8,2.8-9.1,2.9c-11.4,0.4-22.7-1.4-34.1-0.1C333.9,593.1,330.6,591.8,328,588.9z"/>
		<path fill="#58EEF9" d="M482.1,579c0.1,4.3-2.9,7-5.3,10c-8.5,4.6-17.2,3.7-25.9,0.9c-2.9-3.7-2.6-7.2,0.3-10.7
			C461.5,579.1,471.8,579,482.1,579z"/>
		<path fill="#B3FEFE" d="M380.4,588.9c0.1-3.3,0.1-6.5,0.2-9.8c2,0,4,0,6,0c0.1,3.3,0.1,6.5,0.2,9.8c1.6,1.8,2.6,3.8,2.4,6.2
			c-0.1,1.8-0.4,3.5-1.5,5c-4.5,3.7-7.6,2.3-9.5-2.8C377.5,594.1,378.1,591.3,380.4,588.9z"/>
		<path fill="#B4FEFE" d="M451.2,579.1c0.1,3.3,0.1,6.5,0.2,9.8c1.6,2,2.1,4.1,1.1,6.6c-2.8,3.7-5.7,3.7-8.6,0.1
			c-1-2.4-0.5-4.6,1.1-6.6c0.1-3.3,0.1-6.5,0.2-9.8C447.2,579.1,449.2,579.1,451.2,579.1z"/>
		<path fill="#003C18" d="M43.8,784.6c0-23.5,0.1-46.9,0.1-70.4c9.1-5.6,22.2-3.9,29.2,3.9c8.5,21.9,17.1,43.8,25.3,65.1
			c-3.7,4.2-10.4-1.8-11.8,5.4c-11.3,0.9-22.7-0.2-34-0.1C49.3,788.5,46.3,787.1,43.8,784.6L43.8,784.6z"/>
		<path fill="#004C1D" d="M73.2,718.1c-9.6-2.6-19.2-4.1-29.2-3.9c0,0-0.1-0.1-0.1-0.1c-2.4-2.4-3.9-5.3-3.8-8.7
			c0.6-30.2-2.4-60.5,1.9-90.7c0.4-2.9-0.8-6.7,3.4-8.1c12.2,33,24.2,66,36.6,98.9c2.6,7,4.8,12.6-6.5,11
			C74.8,716.5,73.9,717.6,73.2,718.1z"/>
		<path fill="#00682B" d="M45.4,606.7c-2.3,3.2-1.4,6.9-1.4,10.4c-0.1,32.4,0,64.7-0.1,97.1c-8.6,0.7-17.3,1.4-25.9,2.1
			c-1.9-0.2-3.9-0.7-5.8-0.5c-5.4,0.5-7-1.7-5.3-6.8c11.7-33.7,23.3-67.3,35-101c0.4-1.2,0.7-2.5,2.3-2.6c0.3,0,0.6,0.2,0.8,0.4
			C45.2,606,45.3,606.4,45.4,606.7z"/>
		<path fill="#003213" d="M43.9,784.7c10.9,0,21.7,0.1,32.6-0.1c4-0.1,7.6,0.4,10.2,3.9c1.6,3.2,3.1,6.4,4.7,9.6
			c-0.9,5.5,2,10.6,1.5,16c-0.3,4.2-0.5,8.3-4,11.3c-11.7,0.2-23.4,0.4-35.1,0.5c-3.5,2.5-6.8,3.2-9.9-0.6
			C43.9,811.8,43.9,798.3,43.9,784.7z"/>
		<path fill="#25C7BA" d="M159.4,483.1c1.3-2.4,2.7-2.5,4,0c-2.9,3-2,6.7-2,10.2c0,99.6,0,199.2,0,298.9c0,3.5-0.9,7.3,2.2,10.1
			c2.4,5.4,5,9.8,11.7,4.4c3.1-2.5,5.2-0.4,6.5,2.6c0.7,10.9,4.6,22.1-3.1,32.2c-6.4-0.1-12.8-0.2-19.3-0.3
			C159.4,721.9,159.4,602.5,159.4,483.1z"/>
		<path fill="#4A2727" d="M43.8,825.4c3.3,0.2,6.6,0.4,9.9,0.6c0.1,5.2,0.2,10.4,0.2,15.7c-0.1,4.1-0.7,8.3-0.2,12.4
			c1,8.1-2.7,10.2-9.9,8.6c-6.4-12.2-6.3-24.4,0-36.6L43.8,825.4z"/>
		<path fill="#003615" d="M88.9,825.5c1.2-9.1-2.7-18.6,2.5-27.3c5.4,8.4,9.6,17.3,13.6,26.8C99.1,826.3,94,825.8,88.9,825.5z"/>
		<path fill="#5CF1FC" d="M308.2,858.9c0-6.6-3.7-10.2-9.9-11.5c2.4-3.5,6.2-3,9.6-2.9c16.1,0,32.1-0.2,48.2,0.1
			c5.9,1.2,11.8,1.5,17.8-0.2c8.4-2.5,16.8,0.2,25.2,0.1c19.2-0.1,38.3-0.1,57.5,0c3.8,0,8-0.9,10.6,3.1c-0.9,4.5-1.7,8.9-2.6,13.4
			c-4.3,8.4-12.4,12.2-20.7,7c-8.5-5.3-13.9-3.9-19.6,3.1c-1,1.2-2.6,2-4.1,2.6c-7,3.1-14.1,3.4-20.5-0.7c-6-3.8-10.8-3.4-16.7,0.6
			c-8.6,5.8-18.1,6.8-27-0.3c-5.1-6.6-10.2-8.4-18.9-4.5C324.1,874.6,312.9,869.8,308.2,858.9z"/>
		<path fill="#2FC1E0" d="M502,888.4c-87-0.1-174.1-0.2-261.1-0.3c6.9-4.3,14.4-7.4,22.2-9.7c33.4-3.1,66.9-0.9,100.3-1.2
			c35.4-0.3,70.9-0.2,106.3-0.7c7.3-0.1,14.2,0.9,20.9,3.8C495.1,882.2,498.6,885.3,502,888.4z"/>
		<path fill="#D5A675" d="M964,852.9c-13,0-26.1,0-39.1,0c-2-1.8-3.6-4-3.6-6.7c-0.3-12.2-1.8-24.5,1.1-36.7
			c10-14,28.3-14.4,38.4-0.9c2.5,3.4,4.9,6.9,5.9,11.1c0.4,3.5,1,7,0.6,10.6C967.7,838.1,970.3,846.1,964,852.9z"/>
		<path fill="#2CBCDD" d="M490.7,880.4c-73.1,0.1-146.3,0.1-219.4,0.1c-2.9,0-5.9,0.4-8.2-2.1c4-3,8.7-4.7,13.5-5.8
			c14.2-4.2,28.5-5.4,43.1-2.8c6.2,1.1,12.3,0.5,18.3-0.5c6.6-1.1,12.9-0.7,19.1,1.5c10.9,6.1,19.6,5.6,28.2-3.2
			c4.2-4.3,6.9-4.8,11.1-0.9c6.9,6.4,14.9,7.3,23.5,4.1c20.3-2.1,40.5-4.2,60.5,2C484.2,874.9,487.9,877,490.7,880.4z"/>
		<path fill="#D5A674" d="M848.4,845.6c1.4-1.2,2.9-2.3,4.3-3.5c1.7-3.7,4.4-6.6,7.9-8.8c4-2.7,8-5.5,11.2-9.3
			c8.6-3.6,14.2-13.2,24.9-12.8c4.2,2.2,10.1,0.7,12.8,6c2,12,4.8,24.1-2.2,35.6c-21.3,0-42.5,0-63.7,0
			C842.7,847.9,847.2,848,848.4,845.6z"/>
		<path fill="#D5A674" d="M1064.2,852.9c-12.5,0-25,0-37.5,0c-6.2-6.7-3.7-14.8-3.4-22.5c-0.4-6.1-1.5-12.3,1.1-18.3
			c1.6-3.1,4.2-3.3,6.3-1c6,6.7,10.1,2.7,14.1-2.2c3.1-3.8,6.2-7.6,10.8-9.6c2.8-1.2,5.6-1.5,8.2,0.6l0.2,0.5c2,1.9,2.6,4.4,2.6,7
			c0.1,11.6,0.1,23.2,1.1,34.7C1068.2,846.3,1067.3,850,1064.2,852.9z"/>
		<path fill="#C48F57" d="M1026.6,829.7c0,7.7,0.1,15.5,0.1,23.2c-20.9,0-41.8,0-62.7,0c0-7.7,0.1-15.5,0.1-23.2
			c2.8-3.1,6.5-3.9,10.5-4c13.8-0.1,27.7-0.1,41.5,0C1020.2,825.8,1023.8,826.6,1026.6,829.7z"/>
		<path fill="#C18351" d="M1148,825.8c0.1,2.6,0.1,5.2,0.2,7.8c0,6.4-0.1,12.9-0.1,19.3c-16.3,0-32.6,0-48.9,0c-6-6.4-3.9-14-3-21.4
			c0-2.7,0.9-5.1,2.9-6.9C1115.5,820.8,1131.9,818.6,1148,825.8z"/>
		<path fill="#1DB08C" d="M498.5,823.8c0.6,0,1.1,0,1.7,0c14.5-3.7,29.2-1.7,43.9-1.8c2.9,0,5.6,1.1,7.9,3.2
			c3.8,7,5.1,13.8-1.2,20.1c-19.3,0-38.7,0-58,0c-1.7-1.5-1-3.1-0.5-4.8c1.1-2.7,3.1-5.1,2.6-8.3c0.1-1.8,0.5-3.6,0.9-5.4
			C496.2,825.5,497,824.4,498.5,823.8z"/>
		<path fill="#AA6B3B" d="M1099.1,831.6c0,7.1,0.1,14.2,0.1,21.2c-11.6,0-23.3,0-34.9,0c0-17.5-0.1-34.9-0.1-52.4
			c0.6-0.2,1.2-0.2,1.8,0c1.7,1.6,2.8,3.5,2.9,5.9c0.3,1.9,0.9,3.8,1,5.8c0.9,15.1,0.9,15.1,16.6,15.6
			C1091,827.9,1095.6,827.9,1099.1,831.6z"/>
		<path fill="#62F2FC" d="M494.3,841.4c-0.5,1.3-1.1,2.6-1.6,3.9c-8,6.8-16.7,4.4-25.4,2.2c-32-0.1-64-0.1-96-0.2
			c-2.5-3.3-1.5-6.5,0.4-9.6c5.8-5,12.6-2.8,19.1-2.5c3.5,2.2,6.6,6,11.6,3.4c9.2-0.3,18.4-0.1,27.5-0.1c3.4-0.4,6.7-0.3,10.1,0
			c14.5,0,29.1,0,43.6,0C487.4,838.6,491.5,837.6,494.3,841.4z"/>
		<path fill="#C38E57" d="M907.3,852.9c0-12.4,0-24.7-0.1-37.1c3.7-7.8,9.6-10.4,17.7-7.6c0,14.9,0,29.8,0,44.6
			C919.1,852.9,913.2,852.9,907.3,852.9z"/>
		<path fill="#2BB8DA" d="M480.4,872.8c-16.8,0-33.6,0-50.4-0.1c-3.5,0-7.2,0.9-10.2-1.9c0.3-0.2,0.6-0.3,0.8-0.5
			c7.2-8.8,13.9-15,25.6-4.7c5.4,4.8,12.9-0.2,18.4-4.7C469.9,864.9,475.1,868.8,480.4,872.8z"/>
		<path fill="#169E75" d="M668.4,845.1c0-6.3,0-12.7-0.1-19c7.1-6.5,14.6-5.3,22.3-1.1c4.2,7,5.3,13.9-1,20.4
			C682.6,845.3,675.5,845.2,668.4,845.1z"/>
		<path fill="#673838" d="M550.7,845.4c0.1-6.4,0.2-12.9,0.3-19.3c3.4-3.5,6.9-3.2,10.5-0.5c4.8,12.5,6,24.9-0.7,37.1
			c-7.2,1.6-11-0.6-9.9-8.7C551.3,851.2,550.8,848.2,550.7,845.4z"/>
		<path fill="#4A2525" d="M560.8,862.7c0-12.2,0-24.4,0-36.6c0.3-0.4,0.7-0.9,1-1.3c3.3-1.9,6.3-2,8.9,1.3
			c0.1,6.5,0.1,12.9,0.2,19.4c-0.1,2.9-0.6,5.8-0.2,8.6C571.8,862.1,568.1,864.3,560.8,862.7z"/>
		<path fill="#673838" d="M689.7,845.4c0.1-6.4,0.2-12.9,0.3-19.3c2.8-3.4,6.2-3.2,9.7-1.5c1,0.7,1.8,1.7,2.3,2.8
			c1.8,11.9,4.7,23.9-2.2,35.3c-7.2,1.6-11-0.5-9.9-8.7C690.3,851.2,689.8,848.2,689.7,845.4z"/>
		<path fill="#4D2828" d="M699.8,862.7c0-12.2-0.1-24.4-0.1-36.6c3.3-3.4,6.6-3.4,10-0.1c0.1,6.5,0.2,12.9,0.2,19.4
			c-0.1,2.9-0.6,5.8-0.2,8.6C710.8,862.1,707,864.3,699.8,862.7z"/>
		<path fill="#B4FDFE" d="M200.3,923.6c-27.3,0-54.5,0-81.8,0c-0.7-4.2,1.1-5.8,5.3-5.8c23.7,0.1,47.4,0.1,71.2,0
			C199.3,917.7,201,919.4,200.3,923.6z"/>
		<path fill="#B4FDFE" d="M629.6,923.7c-1.4,0.6-2.8,1.8-4.3,1.8c-22.8,0.1-45.6,0.1-68.4,0c-1.4,0-2.9-1.2-4.3-1.8
			c0.6-4,3.5-3.9,6.5-3.9c21.3,0,42.6,0,64,0C626.1,919.8,629.1,919.7,629.6,923.7z"/>
		<path fill="#B4FDFE" d="M1060.5,921.7c-7.5,0-15,0.1-22.5,0c-2.1,0-5.1,0.4-4.9-3.1c0.1-2.6,2.5-2.6,4.4-2.6c15.6,0,31.3,0,46.9,0
			c1.9,0,4.3,0,4.4,2.6c0.2,3.5-2.8,3.1-4.9,3.1C1076.1,921.7,1068.3,921.7,1060.5,921.7z"/>
		<path fill="#B4FDFE" d="M708.6,921.7c-4.6,0-9.1,0.1-13.7,0c-1.9,0-4.2,0-4.4-2.6c-0.3-2.8,2-3.1,3.9-3.1c9.4-0.1,18.9-0.1,28.3,0
			c2,0,4.2,0.3,3.9,3.1c-0.2,2.7-2.5,2.6-4.4,2.6C717.7,921.7,713.1,921.7,708.6,921.7z"/>
		<path fill="#B4FDFE" d="M871.8,923.6c-11.6,0-23.2,0-34.8,0c-0.4-3.3,0.1-5.8,4.3-5.8c8.7,0.1,17.5,0.1,26.2,0
			C871.8,917.8,872.2,920.3,871.8,923.6z"/>
		<path fill="#B4FDFE" d="M487.7,917.7c-4.2,0-8.5,0.1-12.7,0c-2,0-4-0.5-3.7-3.2c0.2-2.1,2-2.4,3.6-2.4c9.1,0,18.2,0,27.3,0
			c1.7,0,3.3,0.7,3.3,2.7c0,2-1.4,2.8-3.2,2.8C497.4,917.7,492.5,917.7,487.7,917.7C487.7,917.7,487.7,917.7,487.7,917.7z"/>
		<path fill="#B4FCFE" d="M343.4,927.9c-0.6-0.2-1.1-0.3-1.7-0.4c-0.2-1.3-0.4-2.6-0.5-3.8c10-3.2,20-3.2,30,0
			c-0.1,1.2-0.3,2.5-0.4,3.7C361.7,929.6,352.6,928.6,343.4,927.9z"/>
		<path fill="#AAF7FE" d="M435.1,957c0.5-4,3.5-3.9,6.5-3.9c23.3,0,46.6,0,69.8,0c3,0,6-0.1,6.5,3.9
			C490.4,960.2,462.8,960.2,435.1,957z"/>
		<path fill="#A8F6FE" d="M45.9,959.1c22.3-0.1,44.7-0.1,67-0.2c4.1,0,8.2-0.2,7.3,5.9c-22.3,0-44.6,0-67,0
			C49.4,964.8,45.1,965.3,45.9,959.1z"/>
		<path fill="#ABF8FE" d="M206.4,955.3c-1.8-0.9-1.9-2.6-2.3-4.2c14.1-4.2,28.5-1.3,42.7-1.6c3.1-0.1,2.3,3.2,2.5,5.3
			C235.1,955,220.7,955.1,206.4,955.3z"/>
		<path fill="#AAF7FE" d="M670.2,953.1c0.2,1.3,0.4,2.6,0.5,3.9c-14.6,3.2-29.1,3.2-43.7,0c0.9-5.3,5.2-3.9,8.4-3.9
			C647,953,658.6,953.1,670.2,953.1z"/>
		<path fill="#A8F6FE" d="M300.5,959.1c14.3,0,28.6,0,42.9,0c0.2,3.3-0.3,5.7-4.5,5.6c-11.3-0.1-22.6-0.1-33.9,0
			C300.8,964.8,300.2,962.4,300.5,959.1z"/>
		<path fill="#A9F7FE" d="M1061.6,957c10-3.2,20-3.2,30,0c-0.3,0.9-0.4,2.2-1.1,2.6C1084.7,962.8,1065.3,960.9,1061.6,957z"/>
		<path fill="#8A3E08" d="M178.7,841.6c0-11.6,0-23.3,0-34.9c-1.6-3.2,0.2-5.7,1.9-8c6-8.4,12.5-16.4,19.3-24.2c2.5-2.8,5.3-6,9.8-3
			c0.7,0.9,1.1,1.9,1.3,3c1,11.5,3.1,23-0.5,34.4c-0.5,1-1.2,1.9-2.1,2.7c-5.9,2.3-8.3,6.5-8,12.9c0.4,7.5,0.2,15,0,22.5
			c-0.1,4.3-0.3,8.5-3.9,11.7C179.6,859.6,179.6,859.6,178.7,841.6z"/>
		<path fill="#AE5E0E" d="M208.3,809.9c0.1-12.4,0.1-24.8,0.2-37.1c0.3-0.1,0.7-0.3,0.9-0.2c8.5,3.4,25.9,26.8,26.6,35.8
			c0,11.1,0,22.2,0,33.2c-0.1,1-0.2,1.9-0.3,2.9c-0.4,15.1-0.4,15.1-15.7,14.3c-3.5-3.1-3.8-7.2-3.9-11.5c-0.1-5.8-0.4-11.6,0-17.3
			C216.9,821.8,215.6,814.7,208.3,809.9z"/>
		<path fill="#2CB9DA" d="M357.1,870.9c-2.7,2.5-6.1,1.8-9.3,1.8c-23.7,0-47.4,0-71.1-0.1c10-5.7,20.7-9.9,31.6-13.8
			c11.1,10.3,22.8,12.9,35.5,2.9c2.9-2.3,4.6-1.1,6.5,1.1C352.5,865.6,354.8,868.3,357.1,870.9z"/>
		<path fill="#DEC8A9" d="M208.3,809.9c9.6-1.5,12.9,2.2,12.1,12.1c-1,12.2-0.2,24.5-0.2,36.7c-3.9,0-7.8,0-11.7,0
			c-2.7-2.3-3.8-5.2-3.9-8.6c-0.3-10.4-0.3-20.8,0-31.2c0.1-3.4,1.4-6.3,4-8.6L208.3,809.9z"/>
		<path fill="#CBAC83" d="M208.5,810.3c0,16.1,0,32.3-0.1,48.4c-3.9,0-7.9,0-11.8,0c0-12.2,0.7-24.5-0.2-36.7
			C195.7,812.3,198.5,808.1,208.5,810.3z"/>
		<path fill="#62F2FB" d="M358.8,847.4c-20.2,0-40.3,0-60.5,0c-3.9-0.3-5.8-3.4-8.2-5.9c0.4,0.1,0.8,0.1,1.2,0
			c1.4-2.1,3.6-2.8,5.9-2.8c19.6,0.1,39.2-1.3,58.8,0.7C359.1,841.3,360.4,843.8,358.8,847.4z"/>
		<path fill="#673838" d="M43.9,826.1c0,12.2,0,24.4,0,36.6c-7.2,1.6-10.9-0.5-9.9-8.6c0.5-4.1-0.1-8.2-0.2-12.4
			c0.1-5.2,0.2-10.4,0.3-15.6C37.3,826.1,40.6,826.1,43.9,826.1z"/>
		<path fill="#ABF8FE" d="M799.6,946.8c2,0.4,4,1.1,3.5,3.7c-0.6,3.3-3.5,2.4-5.5,2.4c-17.3,0.1-34.6,0.3-51.8-0.1
			c-6.3-0.1-13,2.1-18.9-1.8c0.3-2.6,1.6-4,4.2-4.2C753.9,946.8,776.8,946.8,799.6,946.8z"/>
		<path fill="#B1FBFE" d="M1197.1,931.2c2.3,1.5,1.9,3.9,1.7,6.1c-18.1,0-36.3,0-54.4,0c-0.2-1.3-0.4-2.6-0.5-3.8
			c0.8-0.8,1.5-1.5,2.3-2.3C1163.1,931.2,1180.1,931.2,1197.1,931.2z"/>
		<path fill="#AEFAFE" d="M913.2,935.6c13.1,0.6,26.4-2.4,39.4,1.7c-0.4,0.9-0.6,2.5-1.1,2.6c-12.5,2.1-25.1,2.1-37.7,0
			c-0.5-0.1-0.7-1.7-1.1-2.6C913,936.8,913.2,936.2,913.2,935.6z"/>
		<path fill="#ADF9FE" d="M55.9,945.1c-0.1-2.2-0.6-4.6,1.7-6.1c7.8,0,15.7,0,23.5,0c2.4,1.5,1.9,3.9,1.7,6.1
			C73.9,945.1,64.9,945.1,55.9,945.1z"/>
		<path fill="#33C7E3" d="M343.4,927.9c9.1-0.2,18.2-0.4,27.3-0.5c0,0.7,0.1,1.4,0.1,2.2c-9.1,0-18.3,0-27.4,0
			C343.4,929,343.4,928.4,343.4,927.9z"/>
		<path fill="#3ECE25" d="M924.9,808.2c-6.4,1.3-12.1,4.4-17.7,7.6c-4-0.9-9.6,3.1-11.9-3.6c1.6-8.4,7.6-11.3,15.2-12.2
			c12.9-12.2,28.8-12.3,45.1-11.5c10.6,0.5,21.3-0.1,32-0.2c2.8-2.6,6-3.5,9.7-2.9c3.8,0.9,6.8-2.1,10.5-2c2.5,4.7,6.6,5.3,11.5,5.3
			c14.9-0.1,29.8,0.1,44.7,0.2c0,3.7,0,7.4,0,11.1c-6.9,0.9-11.7,4.6-15.9,10.1c-9.8,13.1-12.3,13-21.2-0.2c-2.3,0-4.4-0.6-6.6-1.3
			c-14.6-4.7-27.9-3.3-39.1,8.3c-2.2,2.3-4.9,4.2-7.9,5.4c-3.6,1.5-6.9,1.7-9-2.5c-0.7-1.1-1.4-2.1-2.1-3.2
			C951,799.7,943.4,798,924.9,808.2z"/>
		<path fill="#25C7BA" d="M1236.2,751.7c0,12.2,0,24.4,0,36.6c-18.3,0-36.5,0-54.8,0c-6.8-13.3-5.4-26.7-1-40.3c1.1-1,2.2-1,3.2,0.2
			c-0.6,3.3,1.9,3.1,3.9,3.5c5.4,4.1,10.7,3.5,16.1,0C1214.5,751.6,1225.3,751.6,1236.2,751.7z"/>
		<path fill="#1C548F" d="M1181.6,747.3c-0.1,13.6-0.1,27.3-0.2,40.9c-6.5,0-13.1,0-19.6,0c-4.1-3.7-3.7-8.6-3.9-13.5
			c-0.1-2.9,0-5.8,0-8.7c0-16.2,0-16.2-14.8-20.6c-1-0.6-1.8-1.4-2.5-2.3c-3.7-8.9-2.5-18.1-1.1-27.2c0.2-1.1,0.5-2.1,1.1-3
			c3.2-3.6,6.8-2.3,9.5,0.2c9.5,8.9,20.1,16.6,28.8,26.3C1180.8,741.6,1182.7,744,1181.6,747.3z"/>
		<path fill="#3383B7" d="M1141.9,713.3c0.1,10,0.2,19.9,0.3,29.9c-0.9,1.9-2.6,3.2-4.5,3.3c-11,0.3-11.1,7.4-11.3,15.8
			c-0.1,8.7,3.1,18.1-3.7,25.9c-6.5,0-13.1,0-19.6,0c-0.6-13.7,1.3-27.5-1.1-41.2c-1.7-3.2,0.8-4.9,2.6-6.5
			c9.8-8.9,19.9-17.6,30.3-25.8C1136.8,713.1,1139.2,712,1141.9,713.3z"/>
		<path fill="#C0804F" d="M1148,825.8c-16.3,0-32.5,0-48.8,0c-5.9-5.5-3.9-12.3-3.2-18.9c0.1-3.1,0.4-6.1,3.1-8.2
			c5.1,0.8,10,1.7,15.3,1c9-1,13.9,5.9,18.5,12.2c4.1,5.5,8.5,7.8,14.9,4.5C1148,819.5,1148,822.7,1148,825.8z"/>
		<path fill="#DEC8A9" d="M1122.7,788.3c0-11.6,0.5-23.2-0.2-34.7c-0.5-8,2-11.2,10.1-10.1c3.1,0.4,6.4-0.1,9.6-0.2
			c0,0,0.1,0.5,0.1,0.5c1.7,1.6,3.4,3.4,3.4,5.7c-0.4,13,4.5,26.4-3.4,38.7C1135.7,788.3,1129.2,788.3,1122.7,788.3z"/>
		<path fill="#CCA87D" d="M1142.2,788.3c0-14.8,0.1-29.6,0.1-44.4c19.6-0.8,19.6-0.8,19.6,18.4c0,8.7,0,17.4,0,26.1
			C1155.3,788.3,1148.7,788.3,1142.2,788.3z"/>
		<path fill="#A06337" d="M1240.1,814.3c-6.5,4.5-14.8,3.3-21,2.7c-23.2-2-46.3,0.9-69.4-1.2c10.1-14.8,24.5-16.7,40.4-13.3
			C1206.8,806.2,1223.4,810.4,1240.1,814.3z"/>
		<path fill="#9C6136" d="M1099.2,798.7c0,2.5-0.1,5-0.1,7.5c-8.3,5.7-24.6,5.6-33.1,0c0-1.9-0.1-3.8-0.1-5.6
			C1076.9,797.1,1088.1,798.5,1099.2,798.7z"/>
		<path fill="#823709" d="M1181.6,747.3c-12.4-12.5-24.5-25.5-39.3-35.4c-6.4-6.2-2.8-12.4-0.1-18.7c4.4-0.7,5.9,3.4,8.3,5.5
			c13.7,12.3,27.1,24.9,40.6,37.4c-1.6,4.5-4.1,8.5-7.5,11.9C1183,747.9,1182.3,747.6,1181.6,747.3z"/>
		<path fill="#7B4419" d="M1203.7,751.6c-7.3,9.5-7.3,9.5-16.1,0C1192.9,751.6,1198.3,751.6,1203.7,751.6z"/>
		<path fill="#005321" d="M950.5,688.8c7-15,14-30,20.9-45c9.2-5.7,18.7-7.9,28.9-2.2c4.7,10,4.4,62-0.3,71.2
			c-14.2,5.3-28.3,6-42.4-0.4c-17.6,0.1-17.6,0.1-9.9-16.3C948.7,693.7,949.5,691.2,950.5,688.8z"/>
		<path fill="#004019" d="M821.2,788.6c-2.2-3.5-5.8-2.4-8.8-2.3c-5.6,0.1-7.9-1.2-5.1-7.3c9.5-20.2,18.6-40.6,27.9-60.9
			c1.9-9.2,9.3-7.5,15.6-7.4c5,0.1,9.6,1.8,13,5.7c1.9,2.8,2.3,6,2.4,9.3c0.1,16.5,0.2,33,0,49.5c0,3.3-0.6,6.4-2.5,9.2
			c-2.2,2.7-5.3,3.9-8.6,4C843.8,788.6,832.5,789.3,821.2,788.6z"/>
		<path fill="#003A15" d="M864.1,604.6c12.1,33.7,24.2,67.3,36.2,101c3.9,10.8,3.8,10.9-7.9,10.7c-10.8,7.1-20.9,3.5-30.9-2.1
			c-1.9-2-3-4.4-3-7c0.5-31.9-2.5-63.9,2-95.7C860.8,609,859.8,605.3,864.1,604.6z"/>
		<path fill="#00682B" d="M672.7,718.1c-10-1.9-11.7-7.4-7.3-16.1c1.7-3.4,2.1-7.4,3.1-11.2c9.2-28,18.3-56,27.7-83.9
			c0.8-2.3-0.4-7.4,5.1-6.1c4.2,32.3,1.8,64.9,2.4,97.3c0.1,4.5,0.5,9.1-1.2,13.5c-0.4,1.1-1.1,2.2-1.8,3.1
			C691.9,719.6,682.6,721.8,672.7,718.1z"/>
		<path fill="#005320" d="M864.1,604.6c-2.5,2.7-1.8,6.1-1.8,9.3c0,33.4,0,66.9,0,100.3c0.5,0.4,0.6,0.9,0.4,1.3
			c-0.2,0.4-0.4,0.6-0.5,0.6c-9.1-0.3-18.5-6.1-26.9,1.9c-11.9-1.1-10.7-6.9-7.4-16.1c11-31,20.9-62.3,31.5-93.5
			C859.8,607.1,858.5,600.7,864.1,604.6z"/>
		<path fill="#00471C" d="M957.6,712.4c13.9-0.1,27.8-0.1,41.7-0.2c0.5,0.4,1,0.8,1.5,1.2c3.8,13.5,4.8,27-0.8,40.3
			c-4.2,3.3-8.3,3.2-12.4-0.2c-17.1,0-34.1,0-52.9,0C942.9,738.7,950.2,725.6,957.6,712.4z"/>
		<path fill="#003715" d="M821.2,788.6c2.6-3.3,6.1-4.1,10.2-4c10.3,0.2,20.5,0.1,30.8,0.1c0.5,0.4,1,0.8,1.5,1.2
			c3.8,13.5,4.7,26.9-0.7,40.2c-3.5,2.9-7,2.7-10.6,0c-15.2-0.1-30.4-0.3-45.6-0.2c-5.5,0-8.3-0.5-4.3-6.7
			C809,809.1,815,798.8,821.2,788.6z"/>
		<path fill="#002C11" d="M862.2,716.1c0-0.6,0.1-1.3,0.1-1.9c10,0.7,20,1.4,30,2.1c0.5,2.5,0.9,4.9,1.3,7.4
			c2.8,16.9,1.9,33.9,1.9,50.9c0,3.9-0.5,7.7-3.3,10.8c-10.1,4.7-20.2,5.4-30-0.8c0,0,0,0,0,0C862.2,761.8,862.2,738.9,862.2,716.1z
			"/>
		<path fill="#003E19" d="M729.4,716.3c0,1.1-0.1,2.3-0.1,3.4c3.4,14.3,3,28.8,3.6,43.3c0.3,7.8-0.1,15.7-5.1,22.4
			c-2,1.7-4.4,2.1-6.9,2.2c-7.6,1-15.4,2.7-22.1-2.9c-0.5-0.8-1.4-1.5-1.5-2.5c-2.9-21-1.8-42.1-0.7-63.2c0.1-1.9,1.8-3.4,3.1-4.8
			l0,0C710.2,708,719.7,712.8,729.4,716.3z"/>
		<path fill="#004F1E" d="M729.4,716.3c-9.9-0.7-19.7-1.4-29.6-2.1c0-34.7,0-69.3,0-104c0-3.2-0.8-6.5,1.6-9.3
			c6.3,20.2,14.9,39.6,20,60.2c1.5,9.3,2.3,18.6,1.8,28C722.7,698.9,723.3,708.2,729.4,716.3L729.4,716.3z"/>
		<path fill="#00260E" d="M862.3,784.7c9.8,0,19.6,0,29.3,0c6-4,10.4-2.7,13.3,3.8c1.9,3.8,3.8,7.7,5.7,11.5
			c-5.1,4.1-10.2,8.1-15.2,12.2c-8.1,3.9-13.3,12.6-23,13.8c-2.8,2.1-5.8,3-9,0.9c-0.3-0.4-0.7-0.9-1-1.3
			C862.3,812,862.3,798.3,862.3,784.7z"/>
		<path fill="#003816" d="M721.3,784.7c2,0,3.9,0,5.9,0c4.8-4,9.5-4.7,14.2,0.2c4.2,13.9,12.6,25.9,19,40.6c-13.7,0-26.4,0-39.1,0
			C714.7,811.9,715.7,798.3,721.3,784.7z"/>
		<path fill="#003013" d="M904.9,788.5c-4.1-2.5-8.3-4.4-13.3-3.8c0-15.5,0.1-31.1-0.1-46.6c-0.1-4.9,0.9-9.6,2.1-14.3
			c8.4,17.8,14.4,36.5,21.7,54.7c1.7,4.2,1.6,6.7-3.7,7.2C909.2,785.9,906.4,785.7,904.9,788.5z"/>
		<path fill="#003313" d="M721.3,784.7c0,13.6,0,27.2,0,40.8c-3.9,0.2-7.8,0.3-11.7,0.5c-3.3,0-6.6,0-10,0.1c0,0,0.1-0.5,0.1-0.5
			c-7-13-4.9-26.3-1.5-39.7c0.5-0.4,1-0.8,1.5-1.2C707,784.7,714.1,784.7,721.3,784.7z"/>
		<path fill="#00421A" d="M741.4,784.8c-4.7-0.1-9.5-0.1-14.2-0.2c3.7-19.4,0.8-38.9,0.5-58.4c0-2.2,1-4.4,1.6-6.6
			c5.6,11.4,10.1,23.2,13.6,35.4c1.6,5.9,2.5,12,3.5,18c0.7,4.4-0.3,8.3-3.6,11.5C742.4,784.8,741.9,784.9,741.4,784.8z"/>
		<path fill="#005221" d="M729.4,716.3c-9-1.6-10.8-7.4-10.3-15.8c0.9-13.1-1-26.4,2.2-39.4c5.9,16.4,12.3,32.6,17.5,49.2
			C742.3,721,732.5,714.1,729.4,716.3z"/>
		<path fill="#673838" d="M987.5,753.6c3.9-0.1,7.9-0.3,11.8-0.4c0.5,0.4,0.9,0.8,1.4,1.2c3.3,11.5,5,22.9-1.5,33.9
			c-3.9,0-7.8,0-11.7,0.1C987.6,776.7,987.6,765.2,987.5,753.6z"/>
		<path fill="#00471D" d="M742.8,784.7c0-9.8,0-19.7,0.1-29.5c2.6,6.2,5.4,12.4,7.8,18.8C755,785,754.9,785.1,742.8,784.7z"/>
		<path fill="#683938" d="M852.4,826.1c3.3-0.1,6.6-0.3,9.9-0.4c0,0-0.2,0.4-0.2,0.4c3.1,3.1,2.2,6.3,0.1,9.5
			c-3,2.5-5.6,5.5-9.5,6.6C852.6,836.8,852.5,831.4,852.4,826.1z"/>
		<path fill="#2CBCE3" d="M327.9,704.4c0-26.8,0-53.5,0-80.3c5.4-5,11.6-4.4,17.9-2.3c3.2,1.6,4.3,4.4,4.6,7.8
			c0.2-3.1,1.1-5.8,4-7.3c3.3-1.3,6.5-1,9.3,1.2c3.1,3.2,2.2,7.3,2.3,11.1c0.1,15.9,0,31.8,0,47.7c0-16,0-32,0-47.9
			c0-3.8-0.7-7.9,2.4-11.1c6.6-3.4,13.6-1.9,20.4-1.3c5,2.5,4.5,7.1,4.6,11.1c0.6-4.6-1.8-10.5,3.5-14.5c8.7-3.5,17.5-2.1,26.4-1.3
			c3.1,0.7,6.3,1,9.4,0.3c8.3,0,17.2-4.4,24.6,3c-14.1,18.1-9.6,39.4-10.1,59.8c-0.3,12-0.2,24-0.3,36.1c-2.4,2.2-5,2.4-7.8,0.8
			c-3.2-2.7-2.7-6.4-2.7-9.9c0-11.4,0-22.7,0-34.1c0,7.6,0,15.1,0,22.7c0,3.4-0.5,6.5-3.5,8.6c-1.1,0.7-2.3,1.5-3.6,1.5
			c-24.5,0-49.1,2-73.6-0.5c-3.7-1.5-5.2-4.5-5.4-8.3c0,3.9-0.4,7.5-4.3,9.7C339.6,708.9,333.4,709.5,327.9,704.4z"/>
		<path fill="#B8FEFE" d="M498.5,823.8c-0.1,1.3-0.3,2.6-0.4,3.8c-5.8,5.5-12.6,4.1-19.2,2.5c-4.1-1-8-2.3-12.3-2.6
			c-14.6,1.7-29.3,1.3-43.9,0.8c-2.6-0.4-4.4-2.2-6.2-4.3c-0.8,2,0.8,3.2,0.7,4.7c0,1-0.3,2-0.8,2.9c-1.3,1.6-3.3,3.1-5,2.4
			c-9.8-4-20.8-1.8-30.6-5.9c-3.6-4.1-5.9,0.1-8.6,1.4c-6.1,1.8-12.4,0.3-18.5,1.1c-7.3,1-11.3-1.2-10.9-10.2
			c1.1,11.3-6.4,9.8-12.5,10.2c-0.9,0.2-1.8,0.2-2.7,0.1c-5.8-1.6-9.7,1.2-12.9,5.6c-10.7,3.6-18.6-3.6-27.5-7.1
			c-2.3-9.7,5.1-13,11.5-16.6c2.8-1.6,5.6-2,5.1-6.6c-2.7-22.4,1.5-26.8,24-25.4c4.3-1.4,5.8,2,7.8,4.6c2.8,4.1,1.7,10,5.9,13.5
			c1.8,1,3.8,1.3,5.7,1.9c9.4,6.9,18.6,12.1,30.6,4.6c3.7-2.3,9.4-0.8,14.2,0.2c2.8,1,5.7,2,8.7,2.6c6.3-3.7,10.2-11.8,19.1-11
			c1.8,0,3.4-0.9,5-1.6c2.9-2.4,1.9-5.9,2.8-8.9c3.4-10.3,12.1-15.3,21.8-12.4c6.8,0.2,5.9,6.8,8.9,10.7c6.9-6.9,15-9.2,24-4.9
			c9.4,4.6,11.6,13.6,12.2,22.9C494.7,810.4,493.6,817.7,498.5,823.8z"/>
		<path fill="#005321" d="M699.8,714.2c0,23.5,0,47,0,70.5c0,0,0,0,0,0c-13.2,6.5-26.5,6.3-39.8,0.2c-5.1,0-10.3,0-17.1,0
			c10.4-23.1,20.1-45,29.9-66.8C681.5,715.3,690.7,715.2,699.8,714.2z"/>
		<path fill="#00471C" d="M522.8,784.9c-17.6,0.3-17.5,0.3-10.1-15.9c7.8-17,15.6-34,23.4-51c7-8.6,15.8-7.4,25-4.8
			c1,0.8,1.7,1.8,2.2,3c3,21.1,1.4,42.2,0.8,63.4c-0.1,2.3-1.4,4.3-3,6C548.3,790.1,535.5,791.3,522.8,784.9z"/>
		<path fill="#003113" d="M560.7,784.7c0-23.5,0.1-47,0.1-70.4c9.1-5.4,24.5-3.5,31.2,3.9c4.3,10.8,9.3,21.3,12.1,32.6
			c0.4,11.4,5.1,23.1-1.6,34.2c-4.6,4.6-10.2,3.8-15.8,3.1c-8.4,0.2-16.9,2.4-24.9-1.9C561.5,785.6,561.1,785.1,560.7,784.7z"/>
		<path fill="#004019" d="M592,718.1c-10.2-2.8-20.7-3.1-31.2-3.9c0,0-0.1,0-0.1,0c-2.4-2.4-3.9-5.3-3.8-8.7
			c0.8-31.8-3.3-63.8,3.7-95.3c0.2-1.6-0.2-3.8,1.6-4.3c2.8-0.7,2.6,2.3,3.1,3.8c5.8,15.9,11.5,31.8,17.1,47.7
			c5.3,15,10.3,30.2,16.1,45C601.7,710.5,605,717.3,592,718.1z"/>
		<path fill="#00471C" d="M659.9,784.9c13.3-0.1,26.6-0.1,39.8-0.2c0,13.6,0,27.3,0.1,40.9c-3.3,0.1-6.6,0.3-9.9,0.4
			c-7.2,0-14.4,0-21.6,0c-9.9,0-19.8,0-31.3,0C645.3,811.2,652.6,798,659.9,784.9z"/>
		<path fill="#003C18" d="M522.8,784.9c12.6-0.1,25.3-0.1,37.9-0.2c0,0,0.1,0,0.1,0c6.1,13.6,6.6,27.2-0.1,40.8c0,0,0.1,0.6,0.1,0.6
			c-3.3,0-6.6,0-9.9,0c-13.9-0.1-27.9-0.1-41.8-0.3c-3-0.1-6.6,1.4-9-1.9C508.2,811.2,516.5,798.6,522.8,784.9z"/>
		<path fill="#005B24" d="M560.6,610.2c0,34.7,0.1,69.3,0.1,104c-8.3,0.6-16.6,1.3-24.6,3.8c-11.4-4.4-11.5-4.4-7-17.4
			C539.5,670.4,550.1,640.3,560.6,610.2z"/>
		<path fill="#002C11" d="M586.2,784.7c5.2,0,10.4,0,15.7,0c0.9,0.4,1.6,1,1.9,1.9c6.4,12.4,12.8,24.8,20,38.8
			c-13.3,0-25.4,0-37.5,0C579.7,811.9,580,798.3,586.2,784.7z"/>
		<path fill="#00290F" d="M586.2,784.7c0,13.6,0,27.2,0,40.8c-5.2,0.2-10.4,0.4-15.6,0.5c-3.3-0.2-6.6-0.4-10-0.6
			c0-13.6,0.1-27.2,0.1-40.8C569.3,784.7,577.7,784.7,586.2,784.7z"/>
		<path fill="#49DEF2" d="M380.4,596.8c1.1,4.1,3.2,4.9,6.4,1.9c1.6-1.7,3.7-2.7,6-2.7c17.4,0.2,34.8-1.8,52.1,1.2
			c3.8,0.7,6.9-0.9,10.4-1.1c5.3-0.2,11-2,15.6,2.6c-0.7,1.3-1.5,2.6-2.2,3.9c-6.9,5.1-14.9,2.3-22.5,2.9c-4.2,0.3-8.4,0.1-12.5,0
			c-3.5-0.4-6.9-0.4-10.4,0c-20,0.1-40,0-60,0c-3.5,0-7.2,0.6-10.1-2.1c-1.8-2.3-1.8-4.8-0.3-7.3
			C362.1,591.3,371.3,590.6,380.4,596.8z"/>
		<path fill="#4FE4F4" d="M470.8,598.7c-28,0-56,0-84.1,0c0-1.3,0-2.6,0-3.9c19.4-4.8,38.8-4.8,58.2,0c2.1,2.4,4.3,2.4,6.4,0
			c7.3-4.5,14.5-4.7,21.7,0.1C472.3,596.2,471.6,597.4,470.8,598.7z"/>
		<path fill="#003716" d="M603.8,786.6c-0.6-0.6-1.3-1.3-1.9-1.9c0.6-11.3-1.6-22.9,2.2-34c4.5,10.9,9,21.9,13.4,32.6
			C612.7,786.6,607.5,783.1,603.8,786.6z"/>
		<path fill="#35C7E8" d="M439.7,716.1c2.4,0,4.8,0,7.3,0.1c0,10.4,0,20.9,0,31.3c-2.8,2.4-5.6,2.4-8.5,0.2
			c-4.1-8.8-1.4-18.1-1.7-27.1C437.1,718.6,437.9,717.1,439.7,716.1z"/>
		<path fill="#34C6E7" d="M457.3,620.3c-8.5,0-17-0.1-25.5-0.1c-2.9-2.7-2.7-5.6-0.5-8.7c10.5-2.8,21-4.3,31.4,0.8
			C461.4,615.4,460.1,618.4,457.3,620.3z"/>
		<path fill="#42D5EE" d="M431.9,602.6c12.2,0,24.5,0,36.7,0c-1.3,2-2.5,3.9-3.8,5.9c-10.9,3.5-22,2.3-33.1,0.8
			C429.8,607,429.7,604.8,431.9,602.6z"/>
		<path fill="#3DD1EC" d="M439.7,747.4c2.4,0,4.8,0,7.3,0.1c0.2,8.4,0.3,16.9,0.5,25.3c-2.8,1.7-5.7,1.6-8.7,0.4
			c-4.4-6.1-1.6-13-2.2-19.5C436.7,751.2,437.2,748.8,439.7,747.4z"/>
		<path fill="#45DAF0" d="M439.7,772.9c2.6,0,5.2-0.1,7.8-0.1c0.6,0.6,1.2,1.2,1.8,1.7c-13.6,1.6-18.3,6.3-19.6,20.1
			c-0.3,2.6,0.2,5.4-3.6,5.6c-5.9-8.3-3-17.4-2.2-26.3c1.6-2.7,4.3-3.5,7.2-3.6C434.2,770.1,436.7,772.2,439.7,772.9z"/>
		<path fill="#54E9F7" d="M473.1,594.9c-7.2,0-14.5-0.1-21.7-0.1c0-2,0-3.9,0-5.9c8.5,0,16.9,0,25.4,0.1
			C476.4,591.4,475.1,593.4,473.1,594.9z"/>
		<path fill="#39CDEA" d="M431.8,608.5c11,0,22,0,33,0c-0.7,1.3-1.4,2.6-2.2,3.9c-10.3,0-20.5,0-30.8,0c-0.7-0.4-1.2-1.1-1.3-1.9
			C430.7,609.6,431.1,609,431.8,608.5z"/>
		<path fill="#FEFEFE" d="M197.7,684.5c6,2.7,13.5,1,21.2,0.7c8.8-0.3,15.5,4.8,18.1,13.6c2.4,8.2,5,15.6,12,22
			c6.4,5.9,8.2,15.7,8.4,24.9c0.1,4.4-4.2,6.3-7.1,6.8c-2.6,0.4-2.7-3.6-2.8-6.2c0-1.5-0.6-4.4-0.9-4.4c-9.9,0.1-14.4-10.3-24-11.4
			c-11.4-1.3-21.7-7-33.2-9.2c-6.9-1.3-16.3-5-9.1-16.2c0.4-0.6,0-1.9,0-2.8C179.8,690.4,184.8,684.7,197.7,684.5z"/>
		<path fill="#37CAE9" d="M327.9,747.5c0-5.2,0-10.4,0-15.7c2.6-2.8,5.9-4.2,9.7-3.9c15.6,1.3,31.2-1,46.8-0.1
			c3.7,0.2,7.1,0.7,10.1,3c4.1,5.3,3.5,10.9,1.2,16.6c-6.1,5.4-13.1,4.3-20.2,2.8c-3.7-3.3-7.5-3.4-11.2,0
			C352,751.1,339.5,754.7,327.9,747.5z"/>
		<path fill="#005799" d="M208.3,771c-11.6,10.4-20,23.6-29.6,35.7c-4.2,2.5-5.3,12.4-13.7,5.3c-3.9-3.3-3.8-6-1.4-9.7
			c11.9-14.7,23.6-29.4,35.7-43.9c2.4-2.9,3.5-8.2,9.2-7C211.8,757.9,214.9,764.5,208.3,771z"/>
		<path fill="#017EBA" d="M208.3,771c0-6.5,0.1-13.1,0.1-19.6c7.7,4.8,10.7,13.7,17.1,19.7c7.2,2.1,9.7,7.6,10.4,14.4
			c4.6,5.9,9,12,13.8,17.7c3.4,4,5.2,6.9-0.3,11.1c-5.7,4.4-8,0.8-10.8-3c-0.8-1-1.7-2-2.5-3c-9.2-11.9-18.4-23.7-27.6-35.6
			C208.5,772.2,208.4,771.6,208.3,771z"/>
		<path fill="#33C4E7" d="M394.1,731.7c-22.1,0-44.1,0.1-66.2,0.1c0-3.9,0-7.8,0-11.8c5.3-5,11.3-4.3,17.6-2.5
			c6.6,6.9,5.9-4.5,9.9-4c13-1.7,26-3.5,38.9,1.2c4.5,4.9,3.8,10.3,1.4,15.8C395.1,730.9,394.6,731.3,394.1,731.7z"/>
		<path fill="#84F6FC" d="M287.3,829.4c6.5,0.8,13.6-1.2,18.9,5.2c1.7,2,5.5,1.3,8-1c3.2-2.5,7.1-3.3,10.8-4.6
			c2.7,1.8,5.5,0.7,8.3,0.1c1.4,0.5,2.8,1.2,4.4,1.4c18.8,0.9,37.6-1.4,56.2,0.5c12.4,1.3,24.8-1.5,37.1,1.4
			c2.4,2.6,0.7,4.4-1.2,6.2c-9.5,1.9-19.2,0.4-28.8,1c-3.1,0.5-6,0.5-8.3-2c-6.6,0.9-13.5-2-19.8,2c-6.2,0.8-12.4,1.3-18.6,0
			c-17.9-0.2-35.9,0-53.8-0.1c-3.8,0-7.9,0.7-11.3-2C288.5,834.8,287.9,832.1,287.3,829.4z"/>
		<path fill="#3BCEEB" d="M327.9,747.5c12.9,0,25.8,0,38.8,0c4.7,4.6,4,9.4,0.7,14.4c-13.2,4.9-26.4,6-39.5-0.6
			C327.9,756.6,327.9,752,327.9,747.5z"/>
		<path fill="#3FD3ED" d="M327.9,761.2c12.9,0,25.8,0.1,38.7,0.1c0.5,0.4,1,0.8,1.5,1.2c2.5,4.4,2.2,8.5-1.6,12.1
			c-13,3.6-25.9,3.7-38.6-1.6C327.9,769,327.9,765.1,327.9,761.2z"/>
		<path fill="#53E8F7" d="M380.4,596.8c-8.9,0-17.9,0-26.8,0c-3.3-0.3-5.7,2.4-8.9,2.7c-5.6-0.4-11.8,2.2-16.6-2.8
			c0-2.6,0-5.2,0-7.8c17.5,0,34.9,0,52.4,0C380.4,591.5,380.4,594.1,380.4,596.8z"/>
		<path fill="#43D7EF" d="M327.9,772.9c12.9,0,25.8,0,38.7,0c3.5,3,3.2,6.5,1.2,10.2c-6.2,5-13.2,3.9-20.1,2.3
			c-4.5-4.6-6.1,0.8-8.8,2.5c-2.1,0.7-3.8,0.1-5.4-1.2c-2.2-1.6-2.5-5.2-5.7-5.9C327.8,778.2,327.9,775.6,327.9,772.9z"/>
		<path fill="#A46220" d="M235.9,785.4c-3.5-4.8-6.9-9.6-10.4-14.4c3.5-3.3,7-6.7,10.5-10c8.1,0.9,13,4.9,13.1,13.5
			C244.7,778.2,240.3,781.8,235.9,785.4z"/>
		<path fill="#31C2E6" d="M347.1,720c-6.4,0-12.8,0-19.2,0c0-5.2,0-10.4,0-15.7c6.4,0,12.8,0,19.2,0
			C351.8,709.6,351.9,714.8,347.1,720z"/>
		<path fill="#267BA5" d="M249.1,774.6c-4.2-4.7-7.5-10.3-13.1-13.5c-0.8-4.2,1-7.2,4.7-8.6c3.5-1.3,5.1,2.2,7,4.2
			c3.1,3.3,5.7,7.1,8.7,10.5c2.2,2.5,1.9,4.7,0,7C254.2,776.9,251.8,777.6,249.1,774.6z"/>
		<path fill="#6EF3FC" d="M289,837.4c19.4,0,38.8,0,58.1,0.1c3.5,0,7.2-0.9,10.1,2.1c0.5,0.7,0.4,1.3-0.3,1.9c-21.9,0-43.8,0-65.7,0
			C290.6,840.1,289.8,838.8,289,837.4z"/>
		<path fill="#37CAE9" d="M327.9,616.3c0-2.6,0-5.2,0-7.8c5.7-4.7,12-3.1,18.3-1.9c1.1,0.6,1.9,1.4,2.6,2.5c1.2,3.2,1,6.1-1.6,8.6
			C340.5,621.1,334,621.6,327.9,616.3z"/>
		<path fill="#30C1E5" d="M327.9,616.3c6.4,0,12.8,0,19.2,0c1.5,0.9,2,2.3,2.2,3.9c-0.1,1.6-0.7,3-2.2,3.9c-6.4,0-12.8,0-19.2,0
			C327.9,621.5,327.9,618.9,327.9,616.3z"/>
		<path fill="#4CE1F3" d="M328,596.7c6.4,0,12.7,0,19.1,0.1c2.1,2.2,2,4.4,0.3,6.7c-6.6,2.8-13.2,3.9-19.4-0.9
			C328,600.6,328,598.6,328,596.7z"/>
		<path fill="#42D5EE" d="M328,602.5c6.4,0,12.8,0.1,19.1,0.1c1.9,2,1.9,4,0,5.9c-6.4,0-12.8-0.1-19.2-0.1
			C327.9,606.5,327.9,604.5,328,602.5z"/>
		<path fill="#003C18" d="M999.3,712.2c0-23.5,0-47,0.1-70.4c0.4-0.4,0.8-0.8,1.1-1.3c9.4-1.6,18.8-3.4,26.1,5.1
			c8.5,21.9,17.1,43.8,25.3,65c-3.5,4.3-10.3-1.8-11.6,5.5c-11.1,0.7-22.2-0.1-33.4-0.3C1004,715.8,1001.4,714.4,999.3,712.2
			L999.3,712.2z"/>
		<path fill="#00682B" d="M999.3,641.8c-9.3,0.7-18.6,1.4-27.9,2.1c-12.5-1.3-12.5-1.3-8.5-13.7c11.1-34.2,22.2-68.4,33.5-103
			c4,1.3,3.3,4.8,4.4,7.1c4.5,30.9,2,62,2.6,93C1003.4,632.5,1003.7,637.8,999.3,641.8L999.3,641.8z"/>
		<path fill="#004E1E" d="M999.4,641.8c0-32.7-0.1-65.4,0-98.1c0-3.2-0.7-6.5,1.4-9.4c7.4,21.2,14.8,42.4,22.2,63.6
			c-0.7,6.5,1.6,11.9,5.7,16.7c3.2,9.4,6.3,18.9,9.4,28.1c-3.9,2.8-8.5-0.6-11.5,3C1017.8,642.6,1008.4,643.8,999.4,641.8z"/>
		<path fill="#003213" d="M999.3,712.2c10.2,0,20.5,0.1,30.7-0.1c4.1-0.1,7.6,0.6,10.2,4c6.4,11.9,12.8,23.7,20.2,37.4
			c-18.9,0-36.1,0-53.3,0c-2.7,2-5.4,2.1-8,0c0,0,0.2-0.4,0.2-0.4C999.4,739.5,999.4,725.9,999.3,712.2z"/>
		<path fill="#AD5E12" d="M1142.2,693.3c0,6.2,0,12.4,0.1,18.7c-0.2,0.5-0.3,0.9-0.3,1.4c-13.3,11.2-26.7,22.5-40,33.7
			c-2.8,2.2-5.7,4.3-8.2,6.7c-3.5,3.3-6,4.7-10.1,0c-4.1-4.7-3.2-7,1.2-10.6c9.6-7.7,18.8-15.9,28.1-23.9
			c3.2-6.7,8.2-11.2,15.5-13.1C1133,701.9,1137.6,697.6,1142.2,693.3z"/>
		<path fill="#FBFDFD" d="M1090.8,681.4c-13,0.9-18.9-3.3-19.1-11.4c-0.2-7.5,5.2-11.9,15.4-12.4c2.9-0.1,5.9-0.4,8.7,0.2
			c6.1,1.4,9.5,5.5,9.4,11.9c-0.1,5.9-3.6,9.6-9.1,11.1C1093.6,681.5,1090.9,681.4,1090.8,681.4z"/>
		<path fill="#F8FDFC" d="M1058.9,626c7.2-0.3,12.9,2.2,12.7,10c-0.3,9.9-8.5,9.9-15.8,10.3c-7.1,0.4-11.6-2.9-11.5-10
			C1044.4,626.7,1051.9,626.5,1058.9,626z"/>
		<path fill="#976639" d="M1109.1,687.2c5.4-3.1,10.7-8.3,15.2,1.7c1.8,4.1-0.5,5.1-2.2,7.2c-3,6.5-8,10-15.1,10.5
			c-5.7,4.1-8.2,0.3-11.1-4c-3.8-5.7,1.8-6.2,4.2-8.3C1103,691.7,1106.1,689.5,1109.1,687.2z"/>
		<path fill="#F4FAF9" d="M1028.7,614.6c-10.7-3.3-12.3-7.7-5.7-16.7c3.2-0.5,6.3-1.2,9.5-1.3c5.4-0.3,9.7,1.2,10.3,7.5
			c0.5,6-3.1,8.8-8.4,9.9C1032.5,614.2,1030.6,614.3,1028.7,614.6z"/>
		<path fill="#4C2727" d="M999.2,753.6c2.7,0,5.4,0,8,0c0.2,9.9,0.4,19.9,0.6,29.8c-0.2,6.1-4.4,5.5-8.5,4.9
			C999.3,776.7,999.2,765.1,999.2,753.6z"/>
		<path fill="#3584B5" d="M1107,706.5c4.6-4.2,9.6-7.7,15.2-10.5c2.1,3.4,4.1,6.8,6.2,10.2c-4.1,5.6-9.5,9.7-15.5,13.1
			C1110.9,715.1,1109,710.8,1107,706.5z"/>
		<path fill="#54E9F8" d="M445,594.8c-19.4,0-38.8,0-58.2,0c0-2,0-3.9,0-5.9c19.4,0,38.8,0,58.2,0C445,590.9,445,592.8,445,594.8z"
			/>
		<path fill="#B7FEFE" d="M357,841.5c0.1-0.6,0.2-1.2,0.3-1.9c5.1-5.2,10.3-4.9,15.5-0.1c-0.5,2.6-1,5.2-1.6,7.8
			c-4.1,4-8.3,4-12.4,0C358.2,845.4,357.6,843.4,357,841.5z"/>
		<path fill="#C18D56" d="M964.1,819.9c5.2,3.4,8.9-0.2,11.8-3.3c11.8-11.9,25-17.6,41.9-12.5c3.8,1.2,7.7,1.2,8.9,5.8
			c-0.1,6.6-0.1,13.2-0.2,19.8c-20.8,0-41.7,0-62.5,0C964.2,826.4,964.1,823.2,964.1,819.9z"/>
		<path fill="#4B2625" d="M862.3,835.5c0-3.2-0.1-6.3-0.1-9.5c3.4,0,6.8,0,10.2,0C871.6,831.9,865.7,832.5,862.3,835.5z"/>
		<path fill="#A36538" d="M1066,806.1c11,0,22,0,33.1,0c0.1,6.5,0.1,13.1,0.2,19.6c-0.1,1.9-0.1,3.9-0.2,5.8
			c-8.1,0-16.3-0.3-24.3,0.1c-6.9,0.4-9.4-2.3-8.9-9.1C1066.2,817.2,1066,811.7,1066,806.1z"/>
		<path fill="#99F9FD" d="M431.5,833.6c-28.9,0-57.8,0-86.7,0c-3.8,0-7.9,1.2-11.2-1.9c8.2-4.2,17-0.8,25.4-1.9
			c3.8-0.5,7.7,0,11.5-0.1c4.7,0.5,5.8-5.3,10-5.8c1.8,1.2,3.7,3.5,5.5,3.6c8.4,0.1,16.6,0.6,24.5,4.1c1.7,0.8,3.8-0.2,5.3-1.8
			c11.6-4.2,23.6-1.2,35.4-1.9c5.6-0.3,11-0.1,15.5-4c10.5,0.2,20.3,6.5,31.2,3.8c-0.1,2-0.1,4-0.2,6c-2.2,4.6-6.4,4.3-10.7,5
			c-15.8,2.5-31.4-1.1-47.1-0.3C436.5,838,433.5,836.8,431.5,833.6z"/>
		<path fill="#6DF3FC" d="M439.3,835.5c10.5,1,20.9,0.4,31.5,2.3c7.8,1.5,18.2-1.3,27-4.2c-0.1,3.1-1.4,5.7-3.6,7.8
			c-18.9,0-37.9,0-56.8,0C435.9,838.8,437.3,837.1,439.3,835.5z"/>
		<path fill="#6BF3FC" d="M400,837.6c9.8,0,19.6,0,29.4,0c1.8,0.8,3.2,1.7,1.7,3.9c-10.2,0-20.5,0-30.7,0
			C399.2,840.3,399,839,400,837.6z"/>
		<path fill="#B7FEFE" d="M431.1,841.5c-0.6-1.3-1.1-2.6-1.7-3.9c0.7-1.3,1.4-2.6,2.1-4c2.8-0.2,5.3,0.6,7.8,1.9
			c-0.6,2-1.2,3.9-1.9,5.9C435.3,842.3,433.3,844.2,431.1,841.5z"/>
		<path fill="#B1FDFE" d="M400,837.6c0.1,1.3,0.2,2.6,0.4,3.9c-5.1,3.5-7.9,2.6-7.9-3.9C395,837.5,397.5,837.5,400,837.6z"/>
		<path fill="#2FC0E5" d="M394.1,716.1c-13.5,0-27,0-40.5,0c-4.5-4.6-4.5-9.1,0-13.7c26.6,0,53.1,0,79.7,0c4.7,4.3,3.9,9.2,1.3,14.2
			c-10.1,6-20.9,3.5-31.6,2.4C399.8,718.4,398.3,713.2,394.1,716.1z"/>
		<path fill="#34C6E8" d="M425.4,620.2c-9.6,0-19.2,0-28.8,0c-3.4-0.3-6.6,0.9-9.9,0.9c-8.1,0.1-16.1,0-24.2,0
			c-3.5,0-7.2,0.5-9.9-2.6c-1.3-2.5-1.2-4.8,0.5-7.1c1.9-1.6,4.1-1.9,6.4-2c19.9-0.2,39.8-0.2,59.7,0c2.3,0,4.5,0.4,6.5,1.8
			C428.1,614.4,428.2,617.4,425.4,620.2z"/>
		<path fill="#8FEFFE" d="M369.2,624.1c-0.1,20.1-0.1,40.2-0.4,60.3c0,2.7,1.9,7.7-3.3,7.3c-3.9-0.3-2.4-4.7-2.4-7.3
			c-0.2-20.1-0.3-40.2-0.4-60.3c-1.3-3.2,0-4.8,3.2-4.8C369.2,619.3,370.5,621,369.2,624.1z"/>
		<path fill="#8FF0FE" d="M433.2,716.1c0-4.6,0-9.1,0-13.7c0.1-12.9,0.2-25.9,0.4-38.8c0-2.1-0.7-5.2,2.5-5.5
			c4.1-0.4,3.2,3.3,3.3,5.6c0.2,17.5,0.3,34.9,0.4,52.4c-0.2,1.3-0.4,2.7-0.6,4c-1.8,1.6-3.7,1.8-5.8,0.4
			C432.3,719.1,432.3,717.6,433.2,716.1z"/>
		<path fill="#91F2FE" d="M353.5,702.4c0,4.6,0,9.1,0,13.7c-0.1,1.3,0,2.6-0.3,3.8c-0.7,3.2,1.8,8.7-2.5,9c-5.9,0.4-2.2-5.9-3.7-8.9
			c0-5.2,0-10.5,0-15.7c0.1-5.1,0.2-10.2,0.4-15.3c0.1-2,0.6-3.9,3.3-3.6c2,0.2,2.3,2,2.4,3.6C353.3,693.5,353.4,698,353.5,702.4z"
			/>
		<path fill="#30C1E5" d="M369.2,624.1c-0.5-1.8-0.9-3.6-3.2-3.6c-2.4,0-2.8,1.9-3.2,3.6c-3.1,0-6.1,0-9.2,0
			c-1.4-0.8-1.8-2.1-1.7-3.6c0.3-0.9,0.8-1.7,1.6-2.2c12.2,0,24.4,0,36.6,0c2,1.9,2,3.9,0,5.9C383.2,624.1,376.2,624.1,369.2,624.1z
			"/>
		<path fill="#8FF0FE" d="M390.1,624.1c0-2,0-3.9,0-5.9c3.3-3.1,5.4-2.2,6.5,2c-0.1,7-0.2,14.1-0.4,21.1c-0.1,2-0.6,4-3.3,3.6
			c-2-0.2-2.3-2-2.4-3.6C390.4,635.7,390.3,629.9,390.1,624.1z"/>
		<path fill="#8EEFFE" d="M412,666c0-2.5-0.2-3.8,0-5.1c0.4-2.5-1.3-6.9,3.1-6.7c4.1,0.2,2.3,4.5,2.7,7.1c0.2,1.3,0.2,2.6,0,3.8
			c-0.8,3.8,2.2,10.7-2.6,10.7C408.5,675.7,414.3,668.3,412,666z"/>
		<path fill="#8FF0FE" d="M353,620.2c0.2,1.3,0.4,2.6,0.5,4c-0.1,4.5-0.2,8.9-0.4,13.4c-0.1,2-0.6,3.9-3.3,3.6c-2-0.3-2.3-2-2.4-3.6
			c-0.2-4.5-0.3-8.9-0.4-13.4c0.2-1.3,0.4-2.6,0.5-4C349.4,618.6,351.2,618.6,353,620.2z"/>
		<path fill="#96F4FE" d="M425.4,620.2c0-2.6,0-5.2,0-7.8c-0.5-1-0.3-1.9,0.5-2.7c2-1.1,3.8-0.9,5.4,0.6c0.2,0.7,0.4,1.4,0.6,2
			c0,2.6,0,5.2,0,7.8C429.7,622.7,427.5,622.7,425.4,620.2z"/>
		<path fill="#4CE1F3" d="M392.5,808.4c-10-0.8-20-1.6-27.7,6.8c-2,2.1-4,2.2-5.3-0.6c-2.9-6.4-9.4-8.4-14.3-12.3
			c-2.7-3.6-2.9-7.2,0-10.8c8.6-4,40.9-4,49.6,0C397.6,797.6,400.5,803.7,392.5,808.4z"/>
		<path fill="#9BF9FD" d="M374.8,831.6c-13.7,0-27.4,0-41.1,0c-0.6-0.6-1.3-1.3-1.9-1.9c-1.9,0.6-2.4-0.2-2.1-2c2.9,0,5.8,0,9.1,0
			c0.4-4.2-3.7-8.9,1.7-12c1.8-1,3.5-1.2,5.4,0c5.8,3.7,0.1,8.1,0.7,12c8.9,0,17.6,0,26.3,0C376.2,827.7,376.1,829.4,374.8,831.6z"
			/>
		<path fill="#4BE0F3" d="M419.6,800.2c-6.6,0.7-12,2.9-13.8,10.1c-0.8,3.1-2.9,3-5.3,1.7c-4.5-6.5-4.3-13.2-1.1-20.1
			c6.7-4.6,13.5-4.5,20.4-0.5C422.3,794.4,422.1,797.4,419.6,800.2z"/>
		<path fill="#ABFCFD" d="M466.8,823.8c-1.7,4.7-5.1,6-9.9,5.9c-13.7-0.2-27.3-0.1-41-0.1c0-0.7,0-1.3,0-2c0.7-1.8,1.7-3.1,3.9-2
			C435.5,825.2,451.2,827.3,466.8,823.8z"/>
		<path fill="#A7FEFE" d="M419.6,800.2c0-2.6,0-5.1,0-7.7c-2.8-2.8-3.2-6.2-2.8-9.9c-0.7-3.6-0.4-7.2,0.7-10.7
			c1.1-2.8,2.9-4.8,6.3-4c2.7,0.6,3.3,2.4,2.3,4.9c0,9.1,0,18.2,0,27.3C423.8,800.2,421.7,800.2,419.6,800.2z"/>
		<path fill="#ABFEFE" d="M400.5,792.5c0,6.5,0,13,0,19.5c-2.7-1.2-5.3-2.4-8-3.6c3.5-5,1.4-10.6,1.6-15.9c-2.4-2.9-2.9-5.9-0.9-9.3
			c1.6-1.9,3.6-2.5,6-1.9c1.1,0.4,1.9,1.1,2.6,2C403.4,786.6,402.9,789.7,400.5,792.5z"/>
		<path fill="#A9FEFE" d="M345.7,792.5c-0.2,3.3-0.4,6.6-0.5,9.9c-1.9,0.6-3.9,1.2-5.8,1.8c-0.9-5.8-3.6-11.7-0.1-17.5
			c0.1-1.3,0.1-2.5,0.3-3.8c0.5-2.6-1.3-6.8,2.4-7.2c5.1-0.5,2.6,4.5,3.7,7C348.3,786,348.4,789.2,345.7,792.5z"/>
		<path fill="#82F6FC" d="M329.5,790.3c-0.1,3.4-1.7,5.5-5.2,5.9c-3.4,0.3-5.7-1.3-6.1-4.8c-0.4-3.8,1.5-6.3,5.5-6.4
			C327.3,784.9,329.2,786.8,329.5,790.3z"/>
		<path fill="#9CFAFD" d="M478.6,805c3.1,0.6,5.6,1.8,5.6,5.5c-0.1,3.4-2.1,5.3-5.5,5.3c-3.2,0.1-4.8-2.2-5.1-4.8
			C473.2,807.6,475.5,805.8,478.6,805z"/>
		<path fill="#9CF9FD" d="M323.7,810.5c-0.4,3.5-2.3,5.4-5.7,5.2c-3.6-0.2-5.2-2.8-4.9-5.9c0.2-2.7,2.3-4.8,5.2-4.7
			C321.4,805.2,323.6,807,323.7,810.5z"/>
		<path fill="#9CF9FD" d="M419.8,825.8c-1.3,0.7-2.6,1.3-3.9,2c-3.7-0.6-6.3-2.2-5.1-6.4c0.5-2,2.4-3.2,4.5-2.9
			C419.5,819.1,419.7,822.4,419.8,825.8z"/>
		<path fill="#49DEF2" d="M339.2,786.6c0,5.8,0,11.7,0.1,17.5c-3.8-5.2-3.5-11.7-5.8-17.4C335.4,786.7,337.3,786.6,339.2,786.6z"/>
		<path fill="#99F9FD" d="M325.7,829.7c-2.9,4.1-7.2,4.2-11.6,4c2.2-7.4,8.3-5.8,13.7-5.9C328.3,829.6,327.6,830.3,325.7,829.7z"/>
		<path fill="#85F6FC" d="M374.8,831.6c-0.7-1.3-1.3-2.6-2-3.9c0.9-4.7,2.7-7.6,7.8-3.9C380.4,827.7,377.9,829.9,374.8,831.6z"/>
		<path fill="#9CFAFD" d="M452.7,798.8c0.1,2-0.9,3-2.8,3c-1.8,0-3.2-0.8-3.2-2.7c0-1.8,1.3-2.9,3-3.2
			C451.8,795.6,452.4,797.2,452.7,798.8z"/>
		<path fill="#B8FEFE" d="M325.7,829.7c0.7-0.7,1.4-1.3,2.1-2c0.6,0,1.3,0,1.9,0c0.7,0.7,1.4,1.3,2.1,2c-0.3,2.2,0.1,5.2-3,5.2
			C325.7,834.9,326,831.9,325.7,829.7z"/>
		<path fill="#8CF7FC" d="M450.7,818.5c0,1.4-0.7,2.7-2.1,2.3c-0.9-0.2-1.7-1.5-2.2-2.5c-0.1-0.3,1-1.5,1.7-1.7
			C449.4,816.3,450.4,817,450.7,818.5z"/>
		<path fill="#8DF7FC" d="M430.3,808.6c1.4,0.2,2.4,0.9,2.1,2.4c-0.2,1.4-1.3,2.2-2.7,2c-0.7-0.1-1.5-1.2-1.6-1.9
			C428,809.7,428.9,808.8,430.3,808.6z"/>
		<path fill="#42D5EF" d="M353.5,602.6c24,0,47.9,0,71.9,0c2.1,2.1,2.1,4.3,0.1,6.5c-8.9,2.8-18.1,1.1-27.1,1.2
			c-14,0.3-28,0.3-42-0.1c-1.2-0.1-2.3-0.5-3.3-1.2C351.4,606.7,351.4,604.6,353.5,602.6z"/>
		<path fill="#A8FDFE" d="M353.5,602.6c-0.2,2-0.4,3.9-0.6,5.9c-1.8,1.6-3.6,1.5-5.4-0.2c0,0-0.5,0.2-0.5,0.2c0-2,0-4,0-5.9
			c0-2,0-3.9,0-5.9c0.5-1.5,0.7-3.3,2.8-3.5c2.7-0.3,3.1,1.7,3.7,3.6C353.5,598.7,353.5,600.7,353.5,602.6z"/>
		<path fill="#A3FDFE" d="M425.4,608.5c0-2,0-3.9,0-5.9c2.2-2.5,4.3-2.5,6.5,0c0,2,0,3.9-0.1,5.9c-0.2,0.6-0.4,1.3-0.6,1.9
			c-1.8,0-3.5,0-5.3,0c-0.6-0.3-0.9-0.7-0.8-1.1C425.2,608.7,425.3,608.5,425.4,608.5z"/>
		<path fill="#99F7FE" d="M433.8,720.1c1.8,0,3.5,0,5.3,0c0.2,9.1,0.4,18.2,0.6,27.3c-0.2,2-0.4,4-0.6,5.9c-2,1.7-4.2,1.8-6.4,0.3
			c-0.8-0.9-1.4-1.9-1.8-3c-2.1-6.3-1.4-12.7-0.7-19.2C429.9,727.2,429.5,722.9,433.8,720.1z"/>
		<path fill="#A1FCFE" d="M433.8,753.4c1.8,0,3.5,0,5.3,0c0.2,6.5,0.4,13,0.6,19.5c-2.2,2.4-4.3,2.5-6.4,0
			C428.5,766.2,427.7,759.7,433.8,753.4z"/>
		<path fill="#3DD1EC" d="M433.8,753.4c-0.2,6.5-0.4,13-0.6,19.5c-2.4,0-4.9,0-7.3,0c-0.5-1.5-0.6-3.3-2.7-3.5
			c-2.7-0.3-3.2,1.6-3.7,3.5c-6.3,5.5-12.9,4.9-19.6,1.1c-3.7-3.7-2.3-8.4-2.6-12.7c0.1-3.8-0.6-7.8,2.6-10.9
			c11.2-4.1,22.4-5.6,33.3,1C433.4,752,433.6,752.7,433.8,753.4z"/>
		<path fill="#3BCEEB" d="M373.1,747.4c7,0,14,0,21,0c4.5,3.6,3.5,8.1,2.2,12.7c-0.6,1.1-1.3,1.9-2.3,2.6c-6.8,3-13.6,2.9-20.4,0.3
			c-1-0.6-1.9-1.5-2.5-2.5C369.6,755.9,368.5,751.2,373.1,747.4z"/>
		<path fill="#9BF8FE" d="M394.6,761.3c-0.2-4.6-0.4-9.2-0.6-13.8c0-5.2,0-10.5,0-15.7c0,0,0.6,0.2,0.6,0.2c1.8-1.8,3.8-1.9,5.9-0.8
			c0.9,0.7,1.5,1.6,2,2.6c1.8,6.2,2.4,12.2-2.1,17.6c-0.2,3.3-0.4,6.6-0.6,9.8C398.2,762.7,396.4,762.8,394.6,761.3z"/>
		<path fill="#9CF9FE" d="M373.1,747.4c-0.2,4.6-0.4,9.2-0.6,13.8c-1.8,1.5-3.6,1.5-5.2-0.2c0,0-0.7,0.2-0.7,0.2c0-4.6,0-9.2,0-13.8
			c1.1-2.5-1.5-7.5,3.7-7.1C374.2,740.7,372.2,745,373.1,747.4z"/>
		<path fill="#94F3FE" d="M399.9,731.9c-1.8,0-3.5,0-5.3,0c-0.2-5.3-0.4-10.5-0.6-15.8c1.5-3-2.2-9.1,3.7-8.9
			c4.3,0.2,1.6,5.8,2.8,8.9C404.6,721.5,405.4,726.8,399.9,731.9z"/>
		<path fill="#A4FDFE" d="M367.3,761.1c1.7,0.1,3.5,0.1,5.2,0.2c0,0,0.6-0.2,0.6-0.2c3.2,3.4,3.5,7.5,3,11.8
			c0.8,3.7,0.3,7.3-0.2,10.9c-0.2,4.7-1.7,8.8-7.3,7.3c-4.6-1.2-4-5-1.9-8.4c0-3.3,0-6.5,0-9.8C366.9,769,367.1,765,367.3,761.1z"/>
		<path fill="#47DCF1" d="M366.7,782.7c1.1,2.5-1.5,7.5,3.7,7.1c3.9-0.3,1.9-4.7,2.8-7.1c6.4-5.4,13.3-4.8,20.4-1.5
			c0.4,0.5,0.8,0.9,1.2,1.4c-0.2,3.3-0.4,6.6-0.6,9.9c-16.1,0-32.3,0-48.4,0c0-3.3,0-6.5,0-9.8C352.7,782.7,359.7,782.7,366.7,782.7
			z"/>
		<path fill="#97F5FE" d="M347.6,608.4c1.8,0.1,3.6,0.1,5.4,0.2c0,0,0.6-0.1,0.6-0.1c0.8,1.4,0.8,2.7-0.1,4c0,2,0,3.9-0.1,5.9
			c-0.2,0.6-0.3,1.3-0.5,1.9c-1.8,0-3.6,0-5.4,0c-0.2-1.3-0.3-2.6-0.5-3.9C347.3,613.7,347.4,611,347.6,608.4z"/>
		<path fill="#33C4E7" d="M399.9,731.9c0.2-5.3,0.4-10.5,0.6-15.8c10.9,0,21.8,0,32.7,0c0.2,1.3,0.4,2.6,0.6,4
			c-0.2,3.9-0.4,7.8-0.6,11.7c-10.9,6.2-21.8,6.3-32.7-0.1L399.9,731.9z"/>
		<path fill="#39CDEB" d="M353.5,612.4c0-1.3,0-2.7,0-4c23.9,0,47.9,0.1,71.8,0.1c0.2,0.6,0.4,1.3,0.6,1.9c-0.2,0.7-0.4,1.4-0.6,2
			C401.4,612.4,377.5,612.4,353.5,612.4z"/>
		<path fill="#47DCF1" d="M400.5,792.5c0-3.3,0-6.6,0-9.9c6.4-5.3,12.7-5.1,19,0.1c0,3.3,0,6.5,0,9.8
			C413.2,792.5,406.8,792.5,400.5,792.5z"/>
		<path fill="#43D7EF" d="M419.5,782.7c-6.3,0-12.7-0.1-19-0.1c0,0-0.6,0.2-0.6,0.2c-2.4-3.5-3.1-6.8,0.6-9.9c6.3,0,12.7,0,19,0
			C419.5,776.2,419.5,779.4,419.5,782.7z"/>
		<path fill="#A3FDFE" d="M400.5,772.9c-0.2,3.3-0.4,6.6-0.6,9.9c-1.8-0.1-3.5-0.1-5.3-0.2c0,0-0.6,0.2-0.6,0.2
			c-2.7-2.8-3.2-6.3-2.8-10c-0.7-4.3-0.4-8.4,2.9-11.8c0,0,0.6,0.2,0.6,0.2c1.8,0,3.5-0.1,5.3-0.1
			C400.1,765.1,400.3,769,400.5,772.9z"/>
		<path fill="#37CAE9" d="M400.5,731.7c10.9,0,21.8,0.1,32.7,0.1c0,6.5,0,13,0,19.6c-10.9,0-21.8,0-32.7,0
			C400.5,744.8,400.5,738.2,400.5,731.7z"/>
		<path fill="#3FD3ED" d="M394.1,761.1c0,3.9,0,7.9,0,11.8c-7,5.6-14,5.6-21,0c0-3.9,0-7.9,0-11.8
			C380.1,761.1,387.1,761.1,394.1,761.1z"/>
		<path fill="#43D8EF" d="M373.1,772.9c7,0,14,0,21,0c0,3.3,0,6.6,0,9.9c-7,0-14-0.1-21-0.1C373.1,779.4,373.1,776.2,373.1,772.9z"
			/>
	</g>
</g>
</svg>
