<?xml version="1.0" encoding="iso-8859-1"?>
<!-- Generator: Adobe Illustrator 17.0.0, SVG Export Plug-In . SVG Version: 6.00 Build 0)  -->
<svg version="1.2" baseProfile="tiny" id="Layer_1" xmlns="http://www.w3.org/2000/svg" xmlns:xlink="http://www.w3.org/1999/xlink"
	 x="0px" y="0px" width="658.311px" height="629.549px" viewBox="0 0 658.311 629.549" xml:space="preserve">
<g>
	<path fill="#050603" d="M327.818,583.087c-10.989,1.9-21.376,6.028-32.164,8.684c-10.154,2.5-20.376,4.821-30.35,7.924
		c-8.7,2.706-15.586-0.131-22.143-5.279c-1.69-1.327-3.263-2.804-4.892-4.212c-1.078-2.205-2.451-4.2-4.186-5.939
		c-6.204-10.845-9.402-22.628-10.834-34.948c-0.773-6.645-3.577-8.363-10.088-6.654c-27.466,7.212-54.962,14.312-82.456,21.42
		c-4.518,1.168-7.296,0.013-8.972-5.023c-5.662-17.013-11.844-33.852-17.828-50.758c-0.938-2.63-1.875-5.259-2.813-7.889
		c-1.379-4.253-2.665-8.538-4.173-12.745c-0.787-2.195-1.237-4.181,0.724-5.941c2.075-1.862,4.271-1.392,6.497-0.281
		c5.612,2.803,9.958,7.123,14.333,12.347c1.248-3.346,0.638-6.239,0.357-9.065c-0.428-4.308-1.157-8.588-1.499-12.901
		c-0.238-3-1.703-6.686,2.177-8.422c4.157-1.859,6.024,1.892,8.049,4.278c5.537,6.523,9.433,14.008,12.544,22.3
		c0.989-5.409,2.122-10.797,2.91-16.236c0.412-2.848,0.951-5.499,4.211-5.906c3.161-0.395,4.639,1.942,5.829,4.506
		c2.036,4.388,3.599,8.937,4.947,13.571c0.299,1.027-0.09,2.715,1.558,2.624c1.058-0.058,2.198-0.813,3.073-1.534
		c1.355-1.117,0.022-2.088-0.511-2.979c-8.664-14.469-15.714-29.659-20.437-45.877c-7.719-26.501-11.918-53.668-13.254-81.129
		c-0.987-20.29,4.431-39.92,10.098-59.286c2.19-7.484,6.739-14.801,6.817-22.229c0.077-7.241-4.375-14.472-6.504-21.805
		c-5.695-19.616-8.859-39.535-8.025-60.099c0.929-22.891,11.851-40.815,26.892-56.851c12.912-13.767,28.217-22.734,47.753-22.35
		c7.344,0.144,14.436,1.93,21.341,4.852c4.3-22.511,3.429-44.48-1.354-66.368c-0.603-2.761-1.744-5.772,1.531-7.58
		c3.268-1.804,6.094-0.234,8.631,1.883c13.936,11.628,27.857,23.274,41.788,34.909c4.692,3.919,9.395,7.825,14.694,12.237
		c0.688-5.226,1.144-9.75,1.911-14.22c0.848-4.946,2.405-9.684,5.376-13.826c5.536-7.718,13.668-10.251,22.876-7.225
		c0.87,0.286,1.729,1.097,2.771,0.424c0,0-0.059-0.184-0.059-0.184c-0.421,1.13,0.75,1.055,1.172,1.547l0.067,0.371l0.385,0.036
		c6.666,4.338,11.493,9.944,12.517,18.168c-0.221,4.282-0.852,8.455-2.565,12.457c-0.526,1.228-2.234,2.661-0.903,3.962
		c1.294,1.265,2.672-0.456,3.991-0.896c0.586-0.196,1.051-0.755,1.571-1.149c3.036-0.787,6.031-1.845,9.115-2.313
		c11.956-1.811,23.389,3.468,21.826,18.024c-0.314,2.928-2.056,5.174-3.14,7.735c-1.249,1.62-2.497,3.239-3.745,4.859
		c-4.073,4.947-9.275,8.202-15.308,10.213c-2.445,0.011-4.3,1.544-6.293,2.603c-1.549,0.823-0.114,1.508,0.49,2.136
		c-0.217,1.539,1.222,1.846,2.018,2.515c8.893,7.483,17.949,14.778,26.704,22.418c2.401,2.095,3.499,1.492,5.556-0.276
		c12.216-10.499,24.751-20.61,37.874-29.971c2.6,2.545,2.801,5.84,2.874,9.176c-12.909,8.896-24.884,18.967-36.742,29.187
		c-5.845,5.038-7.495,5.11-13.263,0.325c-10.38-8.61-20.729-17.258-31.071-25.915c-4.902-4.104-9.757-8.264-15.222-12.898
		c9.897-1.392,18.761-2.684,27.072-6.389c5.661-2.524,10.192-6.215,13.361-11.556c2.244-3.782,3.426-7.866,0.983-11.793
		c-2.594-4.17-6.963-4.638-11.513-4.113c-5.596,0.647-10.664,2.75-15.199,5.924c-2.735,1.914-5.589,2.073-8.56,1.721
		c-4.507-0.534-5.918-3.45-3.705-7.338c1.564-2.748,3.13-5.504,4.864-8.146c3.357-5.116,3.858-10.632,0.355-15.446
		c-4.172-5.734-9.537-10.72-17.559-9.205c-6.285,1.187-9.158,6.192-10.869,11.853c-2.343,7.754-2.552,15.726-2.233,23.752
		c0.142,3.566,0.024,7.141,0.024,11.638c-21.395-17.837-42.135-35.129-63.5-52.941c0,1.914-0.125,2.874,0.019,3.791
		c2.513,16.063,3.456,32.305,0.386,48.224c-1.715,8.89,0.111,13.838,7.946,18.181c5.487,3.042,9.841,8.126,15.504,12.988
		c-1.481-6.589,1.39-9.667,6.599-10.785c8.96-1.924,17.575-1.532,25.047,4.656c5.835,4.832,10.669,10.48,14.05,17.325
		c4.437,8.984,7.647,18.466,10.37,28.032c2.83,9.941,9.176,15.888,18.388,19.454c2.168,0.839,4.35,1.641,6.524,2.463
		c15.33,5.8,26.083,15.708,29.248,32.478c1.24,6.571,1.993,13.188,1.578,19.866c-0.443,7.119,0.983,13.865,3.227,20.559
		c3.856,11.503,7.724,23.009,11.242,34.618c4.33,14.288-0.949,29.249-13.383,39.064c-9.875,7.795-23.488,7.921-36.538,0.218
		c-8.218-4.851-15.628-10.733-22.134-17.749c-14.384-15.51-31.136-27.925-49.277-38.76c-20.451-12.214-41.147-16.484-63.404-5.27
		c-3.265,1.645-7.017,2.052-10.684,2.215c-7.077,0.316-9.438-1.671-11.059-8.659c-2.086-8.993,1.649-15.886,7.654-22.023
		c9.344-9.55,19.699-17.66,31.434-24.242c11.485-6.441,22.195-13.92,28.012-26.736c4.191-9.235,8.821-18.274,12.463-27.755
		c4.289-11.164,4.097-22.493,1.599-33.651c-10.7,5.79-22.469,2.76-33.941,5.881c11.227,5.25,18.68,13.471,23.873,23.849
		c1.306,2.611,2.212,5.384,0.117,7.97c-1.917,2.366-4.494,1.34-6.966,1.003c-8.703-1.186-17.331-3.247-26.22-2.459
		c-0.116-0.164-0.233-0.328-0.349-0.492c0.013,0.09-0.005,0.224,0.047,0.26c0.111,0.079,0.257,0.108,0.389,0.157
		c6.773,4.307,12.987,9.211,17.064,16.321c1.236,2.154,2.63,4.362,1.045,6.977c-1.536,2.536-3.993,2.014-6.276,1.802
		c-11.948-1.105-23.877-2.116-35.866-0.262c-2.366,0.366-3.896,1.115-5.195,3.146c-15.021,23.474-28.704,47.606-37.403,74.268
		c-2.425,7.432-2.549,7.377,5.451,7.633c33.305,1.063,65.947,6.019,97.434,17.229c23.335,8.307,44.827,19.815,61.399,38.775
		c32.418,37.09,47.388,81.495,53.653,129.473c0.164,1.259-0.339,2.049-0.871,3.123c-3.709,7.486-9.563,11.11-17.756,13.335
		c-21.174,5.75-39.039,18.278-57.22,30.045c-4.778,3.092-8.157,6.334-7.89,12.584c0.146,3.425-1.42,6.906-1.396,10.356
		c0.053,7.446-5.901,9.363-11.154,13.971c2.97-20.26,6.587-38.959,4.521-59.466c-3.67,6.744-6.688,12.254-9.671,17.783
		c-1.468,2.72-3.035,5.614-6.725,4.695c-3.895-0.97-3.331-4.364-3.265-7.39c0.124-5.728,0.456-11.479-1.074-17.216
		c-2.784,5.446-4.932,10.989-7.196,16.484c-1.049,2.546-1.653,5.763-5.43,5.581c-3.856-0.185-4.429-3.331-5.4-6.216
		c-1.496-4.447-2.73-9.086-6.759-12.844c-1.698,17.749-1.812,34.896,1.215,51.867c1.879,10.53,5.141,20.763,12.899,28.76
		c4.973,5.127,10.436,8.636,18.159,5.579c3.834-1.518,8.029-2.12,12.057-3.152c80.299-20.578,157.675-48.473,229.836-89.999
		c17.468-10.052,32.185-22.279,43.068-39.123c2.261-3.5,4.487-7.195,3.359-11.976c-5.612,2.648-10.769,5.334-16.118,7.558
		c-17.098,7.108-34.652,11.835-53.444,9.328c-18.022-2.403-31.31-10.722-36.469-29.196c-1.885-6.75-3.196-13.594-3.567-20.611
		c-0.599-11.3-0.194-22.578,0.946-34.723c-2.895,1.53-5.17,2.791-7.5,3.939c-1.096,0.54-2.407,1.654-3.184-0.477
		c-1.023-2.805,1.288-8.639,4.077-10.168c12.569-6.887,24.785-14.35,36.438-22.697c18.494-13.247,35.955-27.594,48.491-46.987
		c10.444-16.156,12.633-32.77,3.751-50.578c-7.184-14.403-15.557-27.63-29.741-36.037c-16.139-9.566-33.536-9.922-51.27-5.933
		c-11.796,2.653-23.023,6.918-33.501,13.095c1.696,0.376,3.289,0.423,4.879,0.368c9.004-0.313,17.987-0.152,26.939,0.982
		c2.776,0.352,5.384,0.895,5.701,4.382c0.29,3.193-1.857,4.351-4.409,5.14c-2.703,0.835-5.427,1.611-8.102,2.53
		c-9.621,3.307-19.092,6.966-27.501,12.851c-5.102,3.571-9.357,7.908-13.085,14.625c3.042-1.027,4.598-1.505,6.121-2.074
		c13.021-4.862,26.439-7.889,40.313-8.903c2.763-0.202,5.115,0.328,6.122,3.106c1.069,2.951-0.932,4.657-3.113,6.086
		c-0.831,0.544-1.778,0.908-2.651,1.393c-7.728,4.296-15.26,8.905-21.785,14.929c-3.266,3.015-6.381,6.235-8.631,11.407
		c17.888-5.393,34.952-10.538,52.943-15.962c-1.158,2.483-1.648,4.076-2.553,5.38c-4.346,6.257-8.399,12.747-12.61,19.023
		c-7.995,11.916-20.825,18.962-33.172,27.583c1.517-7.728,2.723-14.048,9.665-17.976c5.294-2.995,9.891-7.32,14.185-11.778
		c1.494-1.552,3.147-3.004,3.152-5.447c-1.538-0.823-2.919-0.121-4.322,0.307c-10.979,3.35-21.958,6.697-32.937,10.048
		c-2.522,0.77-5.061,2.09-7.36-0.529c-2.277-2.595-0.775-4.924,0.368-7.354c5.113-10.871,12.401-19.997,21.961-27.443
		c-10.442,1.977-20.163,5.758-29.823,9.713c-2.389,0.978-4.795,1.923-6.962-0.236c-2.219-2.212-1.733-4.809-0.715-7.438
		c4.6-11.875,11.985-21.46,23.074-27.948c4.174-2.442,8.479-4.663,13.924-7.641c-4.047,0.264-6.702,0.369-9.344,0.623
		c-7.79,0.751-15.521,1.881-23.183,3.515c-2.597,0.554-5.078,0.216-6.079-2.869c-0.89-2.743,0.525-4.416,2.716-5.73
		c1.14-0.683,2.241-1.432,3.357-2.155c21.046-13.621,43.255-24.225,68.693-26.397c1.958-0.167,3.274-1.007,4.651-2.426
		c6.045-6.229,12.477-12.059,20.225-16.131c6.795-3.572,13.789-6.654,21.816-5.319c-4.13,1.699-8.263,3.393-12.39,5.098
		c-6.687,2.763-12.696,6.559-18.859,12.037c5.126-0.867,9.183-1.553,13.241-2.239c1.327,0.105,2.67,0.113,3.979,0.329
		c9.568,1.579,18.62,4.063,23.393,13.788c-0.621,2.09-0.515,4.083,0.786,5.917c-0.355,0.55-0.641,1.163-1.078,1.638
		c-2.226,2.422-2.166,4.507,0.731,6.36c3.418,2.186,2.987-1.611,4.205-2.738c0.809-0.749,1.237-1.909,1.836-2.886
		c2.839,1.059,5.513,2.365,7.353,4.918c-1.442,2.423-2.798,4.902-4.357,7.247c-0.951,1.43-1.104,2.501,0.018,3.979
		c6.979,9.194,11.278,19.817,15.914,30.256c1.481,9.476,1.927,18.957,0.149,28.449c-0.181,0.174-0.265,0.386-0.252,0.636
		c-0.699,0.674-0.763,1.513-0.627,2.404c-0.183,0.178-0.279,0.395-0.287,0.651c-0.8,0.529-1.003,1.311-0.94,2.207l0.012-0.037
		c-2.94,3.992-4.565,8.672-6.819,13.023c-5.552,8.172-11.052,16.386-18.338,23.187c-2.425,1.73-4.567,3.753-6.364,6.134
		c-10.551,9.981-22.176,18.6-34.29,26.538c-2.911,1.908-3.47,3.727-2.733,6.93c3.677,15.987,0.071,25.67-13.604,34.704
		c-4.575,3.022-2.184,6.697-2.542,10.171c-0.075,0.73,0.696,1.024,1.43,0.964c0.498-0.04,0.992-0.15,1.489-0.166
		c23.048-0.707,33.126,12.882,26.016,35.072c-0.152,0.475-0.217,0.99-0.441,1.426c-0.692,1.351-1.081,2.598,1.024,2.872
		c1.348,0.176,2.833,1.039,3.523-1.322c1.022-3.498,2.462-6.859,4.433-9.982c3.391-5.373,7.895-8.411,14.527-7.584
		c6.567,0.819,11.695,3.643,14.437,9.952c0.463,1.066,0.802,2.186,1.198,3.282c0.257,0.711,0.124,1.851,1.339,1.642
		c1.271-0.219,1.292-1.354,1.297-2.347c0.02-4.016,0.28-8.009,1.757-11.788c2.731-6.987,12.842-10.49,17.649-5.105
		c4.169,4.67,7.727,7.402,14.246,7.391c4.057-0.007,5.972,4.345,6.057,8.561c0.14,6.96-2.766,12.893-6.527,18.491
		c-4.937,7.348-11.084,13.701-16.836,20.373c-2.912,2.578-5.827,5.159-8.742,7.74c-2.25,1.403-4.484,2.834-6.754,4.206
		c-57.343,34.678-118.309,61.192-182.302,80.883C336.677,579.969,332.248,581.528,327.818,583.087z M193.111,264.275
		c-4.07,2.704-6.159,6.76-7.596,11.234c-1.001,3.116,0.157,5.85,1.771,8.417c0.922,1.466,2.484,1.483,4.006,1.31
		c1.011-0.115,1.289-0.682,1.094-1.718c-1.214-6.461,1.216-12.794,0.731-19.236c0.122-0.044,0.264-0.062,0.359-0.14
		c0.06-0.049,0.048-0.185,0.069-0.283C193.4,263.998,193.255,264.137,193.111,264.275z M322.742,370.89l0.023-0.012
		c-9.289-14.464-21.082-26.446-35.57-35.722c-23.036-14.75-48.633-22.62-75.207-27.784c-20.121-3.909-40.447-5.879-60.942-6.297
		c-3.212-0.065-4.816,0.728-5.413,4.057c-0.729,4.063-2.557,7.9-2.743,12.106c-1.049,1.737-1.14,3.716-1.427,5.645
		c-2.431,10.633-4.429,21.32-4.058,32.304c-0.335,1.742-0.294,3.472,0.18,5.186c0.558,10.051,1.616,20.044,3.484,29.943
		c-0.045,2.055,0.001,4.095,1.004,5.975c0.787,9.647,2.955,19.032,5.381,28.369c0.359,1.916,0.495,3.896,1.602,5.599
		c1.707,8.801,4.74,17.143,8.698,25.166c0.323,1.828,0.902,3.538,2.239,4.903c3.387,9.045,8.608,17.137,13.385,25.446
		c1.582,2.751,2.38,4.652-1.398,5.898c-0.726,0.239-1.292,0.962-1.932,1.462c-1.631,0.806-3.2,1.79-4.905,2.384
		c-4.366,1.522-5.311,4.549-4.985,8.897c0.677,9.02-1.414,17.882-2.185,26.825c-0.243,2.816-1.573,5.02-4.601,4.813
		c-3.259-0.222-4.445-2.662-4.112-5.708c0.378-3.47,1.057-6.907,1.441-10.376c1.145-10.341,2.292-20.694-1.378-32.112
		c-2.208,12.774-4.248,24.376-6.197,35.992c-0.51,3.037-1.333,5.78-5.085,5.453c-3.445-0.3-4.012-2.916-3.926-5.85
		c0.192-6.5-0.013-13.002-1.057-19.417c-0.98-6.022-1.231-12.317-4.826-17.964c-0.589,0.73-0.973,0.992-0.948,1.207
		c1.418,12.351,2.817,24.706,4.356,37.042c0.386,3.092,0.344,6-3.217,6.761c-3.597,0.768-4.807-1.893-5.628-4.901
		c-1.973-7.226-4.274-14.351-7.691-21.05c-1.195-2.343-2.294-4.814-4.685-6.961c-0.091,1.048-0.229,1.41-0.131,1.689
		c6.111,17.587,12.296,35.149,18.312,52.768c0.918,2.689,2.196,2.555,4.46,1.96c17.842-4.69,35.733-9.197,53.576-13.883
		c4.863-1.277,9.935-1.955,15.328-4.487c-5.309-3.278-9.4-6.935-12.58-11.389c-2.139-2.996-5.272-5.592-5.23-9.798
		c1.6,0.309,2.418,1.639,3.527,2.622c8.748,7.758,18.011,14.682,29.379,18.256c5.083,1.598,5.226,1.589,5.137-3.919
		c-0.198-12.324,0.384-24.607,1.701-36.863c0.24-2.237,0.404-4.31,2.762-5.4c2.655-1.227,4.473,0.407,6.252,1.879
		c4.782,3.956,8.398,8.895,11.691,14.781c2.25-5.536,4.404-10.496,6.271-15.562c1.096-2.974,2.295-5.568,5.912-5.853
		c3.599-0.283,4.692,2.687,6.185,4.968c2.568,3.923,3.018,8.626,4.231,14.045c2.955-5.425,5.414-9.921,7.853-14.427
		c1.283-2.371,2.449-4.91,5.856-4.392c3.431,0.522,3.677,3.394,4.262,5.97c2.072,9.115,1.997,18.433,2.484,28.347
		c14.418-10.005,29.094-18.708,44.372-26.376c2.837-1.18,5.674-2.361,8.511-3.541c5.392-1.535,10.7-3.628,16.198-4.447
		c5.42-0.806,6.375-3.493,5.312-8.03c-0.222-0.947-0.556-1.867-0.839-2.8c0.096-2.062,0.121-4.115-0.86-6.024
		c-0.839-7.878-2.512-15.583-4.831-23.153c-0.577-2.285-1.153-4.57-1.73-6.855c-2.255-8.533-4.741-16.987-8.631-24.955
		c-0.517-2.531-1.254-4.972-2.88-7.05c-3.345-8.847-7.445-17.305-12.926-25.052c-1.449-3.688-3.713-6.866-6.197-9.906
		C323.168,371.004,323.031,370.87,322.742,370.89z M267.637,179.818c-1.117,0.402-1.285,1.21-1.561,2.007
		c-3.545,10.237-8.046,20.062-13.095,29.629c-4.12,7.807-8.443,15.497-16.158,20.519c-3.62,2.357-7.096,4.934-10.714,7.294
		c-2.412,1.574-2.181,2.248,0.422,3.431c9.121,4.145,15.038,11.407,18.349,20.662c1.322,3.695,2.933,4.36,6.619,3.439
		c17.406-4.348,35.154-7.039,52.997-8.314c19.94-1.425,39.305,2.82,58.257,8.777c2.678,0.842,3.582,0.675,3.491-2.32
		c-0.162-5.325-0.173-10.661-0.037-15.987c0.098-3.834-1.295-3.69-4.089-2.148c-2.741,1.512-5.672,2.797-8.662,3.719
		c-12.557,3.871-22.2-0.462-27.884-12.279c-4.539-9.438-2.69-18.538,1.78-27.282c1.766-3.454,1.909-5.223-1.921-7.331
		c-5.896-3.245-10.815-7.838-12.891-14.589c-1.416-4.606-3.198-5.543-7.572-2.563c-5.092,3.47-11.145,5.365-17.353,5.636
		C278.338,192.524,272.004,187.532,267.637,179.818z M222.762,199.656c-2.242-3.096-4.227-4.426-6.379-5.637
		c-7.634-4.293-15.977-6.562-24.421-8.455c-2.706-0.607-4.349-1.979-4.396-4.575c-0.053-2.897,1.768-4.359,4.682-4.821
		c9.073-1.437,18.16-2.284,27.346-1.407c6.394,0.611,12.789,1.2,19.073,1.788c0.59-1.904-0.489-2.634-1.17-3.523
		c-6.196-8.091-14.958-11.954-24.393-14.576c-4.156-1.155-8.434-1.867-12.658-2.775c-2.499-0.537-3.682-2.083-3.578-4.627
		c0.096-2.348,1.378-3.666,3.628-4.079c1.307-0.24,2.623-0.46,3.945-0.573c9.282-0.798,18.569-1.532,27.848-2.36
		c4.311-0.385,8.608-0.933,14.068-1.535c-12.663-11.109-25.57-18.528-41.451-19.109c-14.534-0.532-26.559,5.75-36.682,15.526
		c-16.629,16.059-28.568,34.416-28.643,58.831c-0.057,18.673,3.005,36.735,8.106,54.556c0.87,3.039,1.308,6.326,3.643,9.641
		c7.388-17.748,17.104-33.392,26.909-49.615c-1.641,0.154-2.665,0.081-3.577,0.367c-3.24,1.015-5.825,0.366-6.554-3.175
		c-0.672-3.262,1.427-4.854,4.444-5.431c1.14-0.218,2.265-0.521,3.395-0.791C190.934,199.72,206.107,198.225,222.762,199.656z
		 M367.394,274.567c-17.62-6.967-35.223-10.711-53.198-11.028c-20.674-0.364-41.011,3.585-61.11,8.339
		c-1.77,0.419-5.04-0.349-4.7,3.057c0.264,2.648,0.533,5.286,4.066,6.565c7.828,2.835,15.305,6.641,22.155,11.356
		c4.25,2.925,7.272,3.63,10.437-1.173c1.243-1.887,3.302-3.267,5.09-4.757c9.447-7.875,22.07-9.82,30.498-1.949
		c1.906,1.78,3.751,0.624,5.587,0.108c9.654-2.712,19.326-5.172,29.414-2.414c1.428,0.39,2.501,0.261,3.619-0.8
		C361.647,279.597,364.163,277.449,367.394,274.567z M330.318,307.695c0.167,5.24-1.068,10.064-2.208,14.937
		c-0.945,4.041-5.444,7.899-3.033,11.8c2.129,3.445,6.528,5.512,9.996,8.092c1.463,1.088,3.096,1.95,4.672,2.883
		c16.029,9.492,30.746,5.191,39.126-11.426c3.873-7.68,3.514-8.323-4.801-8.588c-11.299-0.361-19.167-5.395-22.414-14.382
		c-2.39-6.616-1.956-13.186,1.093-19.407c1.747-3.564,0.873-4.179-2.783-4.666c-7.529-1.002-14.501,1.031-21.577,2.817
		c-1.885,0.476-2.303,1.346-1.257,3.19C329.749,297.558,330.575,302.622,330.318,307.695z M272.26,165.566
		c-0.252,14.742,9.358,21.856,21.82,17.762c3.669-1.205,6.879-3.271,10.299-4.948c3.176-1.557,3.69-3.511,2.198-6.696
		c-1.82-3.884-2.979-8.074-4.723-11.999c-3.131-7.049-7.236-13.447-13.528-18.163c-1.284-0.962-2.505-2.23-4.17-0.188
		C277.974,148.912,272.905,156.964,272.26,165.566z M241.457,277.384c-2.359-9.776-5.234-18.391-12.63-24.628
		c-9.85-8.306-21.472-5.131-25.98,6.928c-2.252,6.024-2.764,12.267-3.075,18.602c-0.179,3.637,0.131,5.116,4.453,3.424
		C215.929,277.126,228.026,274.582,241.457,277.384z M323.072,308.037c0-1.165,0.107-2.342-0.017-3.494
		c-0.787-7.272-4.015-13.087-10.804-16.226c-6.302-2.914-11.682-0.006-16.598,3.717c-2.638,1.998-4.908,4.476-7.402,6.671
		c-1.597,1.405-1.205,2.356,0.368,3.472c9.795,6.95,18.758,14.874,27.1,23.499c1.736,1.795,2.761,1.942,3.666-0.684
		C321.286,319.476,323.184,313.977,323.072,308.037z M347.231,244.377c4.653-0.288,10.231-3.138,15.65-6.433
		c1.975-1.201,1.124-2.733,0.675-4.347c-3.493-12.568-12.822-19.238-24.092-23.967c-1.769-0.742-3.083-0.475-4.07,1.433
		c-2.618,5.063-4.694,10.269-4.811,16.057C330.39,236.735,336.928,244.34,347.231,244.377z M370.811,281.912
		c-4.669,2.963-8.031,6.535-10.508,10.909c-6.849,12.093-0.831,23.819,12.922,25.212c1.811,0.183,3.651,0.065,5.475,0.128
		c2.489,0.086,3.621-0.431,2.624-3.412C377.717,303.965,374.367,293.094,370.811,281.912z M477.074,437.892
		c0.363-13.676-9.251-18.494-21.102-16.886c-1.569,0.213-3.095,0.4-2.591,2.633c1.804,7.99,3.759,15.986,9.787,22.006
		c2.777,2.773,6.459,6.398,10.175,5.05c3.23-1.171,2.963-6.274,3.701-9.816C477.243,439.924,477.074,438.89,477.074,437.892z
		 M495.036,455.286c4.729-0.677,9.475-1.255,14.183-2.057c5.352-0.912,6.089-2.726,3.055-7.197
		c-1.125-1.657-2.594-2.947-4.501-3.753c-6.974-2.945-12.396,0.261-15.575,9.047C491.11,454.331,491.498,455.781,495.036,455.286z
		 M473.324,198.671c10.948,1.42,20.976,5.043,30.236,10.902c1.212,0.767,2.377,2.718,4.143,0.544
		c1.473-1.814,1.791-3.516,0.06-5.269c-1.277-1.293-2.5-2.686-3.956-3.749C494.164,194.061,483.866,194.533,473.324,198.671z
		 M463.431,378.363c-0.21-2.476-0.294-4.972-0.697-7.416c-0.148-0.896-0.499-2.9-2.084-1.803c-2.553,1.768-6.339,2.124-6.876,6.386
		c-0.807,6.408-1.745,12.79-1.683,19.266c0.007,0.779-0.227,1.772,0.784,2.131c0.93,0.331,1.497-0.455,2.114-0.968
		C460.488,391.39,464.399,386.066,463.431,378.363z M528.964,443.932c-0.718,3.395,1.35,3.102,3.915,1.967
		c1.659-0.734,3.22-1.753,4.937-2.279c2.961-0.907,4.24-2.425,2.707-5.45c-1.417-2.796-3.376-4.472-6.736-3.226
		C529.834,436.41,529.201,439.753,528.964,443.932z M267.84,151.735c3.279-4.75,6.057-8.741,8.789-12.763
		c0.477-0.702,0.747-1.759-0.163-2.177c-2.87-1.319-5.459,0.516-8.15,1.045c-1.651,0.325-2.456,1.597-2.173,3.368
		C266.655,144.405,267.173,147.6,267.84,151.735z"/>
	<path fill="#2574B5" d="M530.162,493.321c2.915-2.581,5.83-5.162,8.742-7.74c9.24,1.096,18.591,0.258,27.829,1.668
		c6.42,0.98,12.821,1.938,18.927,4.249c14.695,5.561,17.874,16.556,7.972,28.989c7.914,2.234,15.85,3.762,23.348,6.749
		c4.196,1.671,8.287,3.513,11.866,6.274c8.282,6.389,8.831,14.735,1.474,22.249c-8.42,8.6-19.162,13.106-30.355,16.528
		c-25.506,7.798-51.804,10.363-78.323,11.027c-4.466,0.112-6.641,0.395-5.916,6.077c1.063,8.335-4.632,13.634-13.823,13.963
		c-16.576,0.592-32.869-1.483-48.924-5.589c-13.411-3.43-26.342-8.154-38.792-14.198c-1.607-0.78-2.873-1.885-4.66,0.252
		c-8.354,9.99-19.436,12.942-31.89,11.347c-17.036-2.183-33.577-6.536-49.817-12.077c4.427-1.559,8.857-3.118,13.287-4.677
		c0.694,2.953,3.509,2.179,5.318,2.698c10.048,2.883,20.234,5.156,30.599,6.72c11.709,1.766,21.554-1.075,28.593-10.879
		c2.544-3.543,4.755-3.701,8.314-1.794c15.791,8.461,32.598,14.15,50.143,17.649c12.08,2.409,24.255,3.957,36.62,3.466
		c7.023-0.279,9.093-3.007,7.446-9.962c-0.229-0.966-0.531-1.917-0.831-2.865c-1.792-5.661-0.74-7.098,5.418-7.116
		c21.803-0.062,43.454-1.797,64.861-6.028c15.374-3.038,30.561-6.643,43.618-16.042c9.633-6.933,9.17-12.32-1.417-17.764
		c-10.972-5.643-22.935-7.62-34.854-9.834c-2.427-0.451-5.269-0.612-5.748-3.798c-0.493-3.278,2.35-3.754,4.456-5.086
		c3.823-2.418,8.77-4.387,8.495-10.054c-0.282-5.816-5.164-7.672-9.598-9.667c-0.896-0.403-1.896-0.577-2.852-0.844
		C563.434,492.68,546.777,493.271,530.162,493.321z"/>
	<path fill="#9CD2FD" d="M511.817,329.372c7.287-6.8,12.786-15.014,18.338-23.186c5.573,6.917,12.742,8.381,20.994,6.145
		c2.617-0.709,4.724,0.034,6.872,1.724c3.558,2.799,7.566,4.831,12.24,5.079c12.611,0.669,21.632-8.737,21.639-23.103
		c0.002-3.94,1.009-5.621,4.916-6.931c11.006-3.692,14.907-10.714,12.259-20.451c-1.247-4.586-4.001-8.727-7.987-10.417
		c-7.526-3.191-8.917-8.665-8.206-15.689c0.033-0.328-0.01-0.665-0.018-0.997c3.037,0.22,6.074,0.441,9.112,0.661
		c-0.104,3.344,1.087,4.986,4.853,5.241c4.796,0.324,9.446,1.87,13.793,4.053c3.668,1.842,6.763,4.399,8.158,8.368
		c2.014,5.728-0.373,10.634-6.487,13.956c-5.939,3.226-5.872,3.193-2.82,9.397c1.242,2.525,2.535,5.142,3.103,7.863
		c3.964,19.01-2.873,29.141-21.418,27.75c-4.627-0.347-7.063,0.565-9.109,4.568c-3.832,7.499-8.986,13.986-16.261,18.513
		c-8.25,5.134-14.295,4.722-21.959-1.157c-4.408-3.381-8.079-7.456-11.328-11.871c-2.323-3.156-4.589-3.352-7.552-1.168
		c-3.612,2.663-7.224,5.36-11.599,6.703C518.79,335.82,514.409,333.884,511.817,329.372z"/>
	<path fill="#2574B5" d="M101.094,500.414c0.938,2.63,1.875,5.259,2.813,7.89c-7.529-0.537-14.911,0.806-22.251,2.064
		c-11.8,2.022-23.386,4.859-34.079,10.593c-3.677,1.972-4.081,3.711-0.872,6.614c2.917,2.639,6.401,4.133,9.75,5.953
		c1.701,0.924,3.025,2.232,2.59,4.381c-0.462,2.283-2.098,3.182-4.326,3.389c-2.635,0.245-5.282,0.516-7.878,1.018
		c-11.735,2.271-23.621,4.211-33.965,10.758c-7.62,4.823-7.615,11.487-0.114,16.555c17.936,12.12,38.367,13.126,58.912,12.349
		c20.198-0.764,40.324-2.843,60.308-6.08c3.624-0.587,5.724,2.051,4.435,5.501c-1.049,2.807-1.976,5.619-2.727,8.522
		c-0.763,2.948-0.069,4.722,2.94,5.746c15.678,5.335,31.884,7.092,48.179,5.279c17.497-1.947,33.675-8.666,49.274-16.679
		c1.735,1.74,3.109,3.735,4.186,5.939c-32.816,17.706-66.937,24.548-103.388,12.591c-6.736-2.21-9.503-6.121-8.573-13.066
		c0.804-6.004,0.826-5.843-5.442-4.992c-21.962,2.98-43.999,5.204-66.197,4.362c-14.593-0.553-28.79-3.159-41.622-10.7
		c-6.879-4.042-13.619-8.447-13.009-17.841c0.592-9.126,7.293-13.358,14.567-16.766c7.719-3.616,15.948-5.714,24.276-7.402
		c1.622-0.329,3.322-0.317,4.748-1.32c-0.046-0.173-0.036-0.395-0.138-0.477c-10.162-8.149-9.114-15.8,3.417-21.571
		c15.026-6.92,31.029-9.723,47.255-11.712C96.476,501.027,98.784,500.713,101.094,500.414z"/>
	<path fill="#2574B5" d="M592.865,241.545c0.008,0.333,0.051,0.669,0.018,0.997c-0.711,7.024,0.68,12.498,8.206,15.689
		c3.986,1.69,6.74,5.831,7.987,10.417c2.648,9.737-1.253,16.759-12.259,20.451c-3.907,1.311-4.915,2.992-4.916,6.931
		c-0.007,14.366-9.028,23.773-21.639,23.103c-4.674-0.248-8.682-2.28-12.24-5.079c-2.149-1.69-4.255-2.433-6.872-1.724
		c-8.251,2.236-15.421,0.772-20.994-6.145c2.255-4.351,3.88-9.032,6.82-13.023c0.366,1.851,0.074,3.612-0.537,5.388
		c-1.429,4.152,0.359,6.594,4.235,8.121c3.735,1.472,7.295,0.396,10.721-0.676c3.585-1.122,6.149-0.522,9.036,1.99
		c6.954,6.051,12.864,6.821,18.527,2.835c5.552-3.908,7.215-9.69,7.22-16.149c0.005-8.097,0.007-8.097,7.599-10.774
		c11.153-3.932,13.378-10.87,5.992-19.049c-1.303-1.443-3.015-3.085-4.781-3.443c-7.528-1.527-7.494-7.344-7.773-12.954
		c-0.805-16.193-3.828-31.971-9.304-47.197c-7.201-20.023-17.866-27.417-39.17-26.941c-16.901,0.378-32.438,6.537-47.885,12.675
		c-1.66,0.66-4.159,0.51-4.716,3.055c-4.057,0.686-8.115,1.372-13.241,2.239c6.163-5.477,12.172-9.274,18.859-12.037
		c4.128-1.705,8.26-3.399,12.383-5.097c5.475-1.52,10.958-3.041,16.441-4.562c4.152-0.694,8.303-1.387,12.455-2.081
		c5.304,0.1,10.587-0.154,15.917,0.33c16.014,1.454,25.911,10.529,32.256,24.58c6.366,14.097,9.029,29.074,10.967,44.251
		C592.341,238.968,592.632,240.253,592.865,241.545z"/>
	<path fill="#2574B5" d="M511.817,329.372c2.591,4.512,6.973,6.448,11.533,5.049c4.375-1.343,7.987-4.04,11.599-6.703
		c2.963-2.184,5.229-1.988,7.552,1.168c3.249,4.415,6.92,8.49,11.328,11.871c7.665,5.879,13.71,6.29,21.959,1.157
		c7.276-4.527,12.429-11.014,16.261-18.513c2.046-4.003,4.482-4.916,9.109-4.568c18.545,1.392,25.382-8.74,21.418-27.75
		c-0.568-2.721-1.86-5.338-3.103-7.863c-3.052-6.204-3.119-6.171,2.82-9.397c6.115-3.322,8.502-8.228,6.487-13.956
		c-1.396-3.969-4.49-6.526-8.158-8.368c-4.347-2.183-8.997-3.729-13.793-4.053c-3.766-0.254-4.957-1.897-4.853-5.241
		c0.122-1.615,0.378-2.928,2.614-2.569c8.256,1.327,16.423,2.882,23.375,7.986c11.409,8.377,11.753,21.999,0.62,30.712
		c-2.01,1.573-2.157,2.73-1.205,4.904c3.127,7.139,4.617,14.542,3.027,22.373c-2.727,13.436-10.059,20.324-23.675,20.388
		c-5.934,0.028-9.248,1.76-12.109,6.839c-3.619,6.424-8.964,11.547-15.352,15.431c-10.928,6.644-20.008,6.132-29.918-1.796
		c-4.039-3.231-6.864-8.716-11.109-10.452c-4.122-1.685-8.19,4.317-13.092,5.465c-5.881,1.378-10.823-0.126-15.597-3.233
		c-1.38-0.898-2.743-1.824-4.108-2.743C507.251,333.125,509.393,331.102,511.817,329.372z"/>
	<path fill="#050603" d="M533.036,168.506c-4.152,0.694-8.303,1.387-12.452,2.081c-4.196-1.446-8.427-1.42-12.789-0.699
		c-12.842,2.125-24.353,7.601-35.579,13.827c-7.715,4.279-15.042,9.169-22.16,14.37c-2.263,1.654-4.425,1.611-6.151-0.56
		c-1.67-2.101-1.4-4.345,0.517-6.267c0.938-0.94,1.95-1.813,2.98-2.654c7.621-6.222,14.659-13.066,21.171-20.417
		c5.953-6.719,11.867-13.559,14.657-22.352c3.75-11.817-3.044-23.812-15.049-26.251c-5.052-1.027-10.254-1.106-15.295,0.575
		c-1.042-2.994-0.642-6.098-0.701-9.167c9.381-2.036,18.424-1.14,27.057,3.167c12.591,6.281,17.561,25.063,10.571,39.622
		c-2.448,5.099-6.083,9.428-8.942,14.255c-0.254,0.288-0.773,0.763-0.722,0.836c0.473,0.671,0.961,0.259,1.424-0.091
		c9.076-3.579,18.12-7.282,27.981-8.144C518.511,159.854,526.708,161.408,533.036,168.506z"/>
	<path fill="#2574B5" d="M452.184,110.992c0.059,3.069-0.34,6.173,0.701,9.168c0.027,2.055,0.053,4.108,0.08,6.162
		c-0.8,1.863-0.727,3.796-0.459,5.744c-1.491,16.25-5.165,31.996-10.92,47.261c-1.611,1.835-1.395,4.916-4.315,6.485
		c1.157-7.137,1.788-13.811,0.964-20.538c2.773-0.436,2.281-2.976,2.789-4.67c4.383-14.607,6.11-29.565,5.065-44.769
		c-1.389-20.225-10.218-35.968-28.923-44.947c-16.061-7.71-32.992-7.671-50.083-4.11c-2.148,0.448-4.22,0.825-6.378,0.188
		c-3.952-1.166-8.381-2.126-10.946,1.766c-2.226,3.378-0.122,6.995,2.232,10.004c0.401,0.513,0.896,1.09,0.98,1.689
		c0.341,2.44-0.422,4.343-3.212,3.079c-3.089-1.4-5.555-1.752-7.939,1.188c-2.414,2.977-2.643,5.921-0.623,9.111
		c-0.52,0.394-0.985,0.954-1.571,1.149c-1.319,0.44-2.697,2.161-3.991,0.896c-1.331-1.301,0.378-2.735,0.903-3.962
		c1.713-4.001,2.344-8.175,2.564-12.458c1.88-1.448,5.359-1.035,5.028-5.005c-0.723-8.677,0.69-10.713,8.952-13.242
		c1.993-0.61,2.71-1.289,1.213-2.966c-7.17-8.032-15.464-12.166-22.615,0.057c-1.294,2.212-2.818,2.976-5.094,2.989l-0.385-0.036
		c0,0-0.067-0.371-0.067-0.371c0.045-0.846-0.123-1.53-1.172-1.547c0,0,0.059,0.184,0.059,0.184
		c2.114-13.091,16.552-18.999,27.483-11.216c3.556,2.532,6.864,5.531,9.017,9.235c2.041,3.51,4.495,3.083,7.565,2.541
		c13.776-2.432,27.535-2.578,41.033,1.502c22.159,6.698,35.86,21.405,40.883,44.078C451.4,107.417,451.791,109.205,452.184,110.992z
		"/>
	<path fill="#2574B5" d="M658.26,383.957c0.121,7.589-2.76,12.988-7.213,14.357c-10.504,3.229-17.493,1.51-21.906-5.261
		c-2.139-3.282-2.855-7.065-4.112-10.663c-3.179-9.101-6.636-18.067-11.308-26.556c-2.684-4.876-1.232-6.563,4.298-6.357
		c16.759,0.623,27.945,10.267,37.219,22.901C657.871,375.964,658.513,380.332,658.26,383.957z M621.586,356.547
		c1.56,3.881,3.1,7.527,4.497,11.228c2.628,6.964,4.87,14.093,7.853,20.898c2.253,5.139,5.541,5.88,12.576,4.606
		c4.92-0.891,5.713-4.692,6.144-8.481c0.295-2.597-0.609-5.246-1.982-7.578c-4.193-7.12-9.571-13.201-16.969-16.973
		C630.057,358.386,626.466,355.442,621.586,356.547z"/>
	<path fill="#2574B5" d="M51.623,262.374c-0.989-9.003,5.83-15.497,12.054-21.804c7.527-7.627,16.8-12.388,27.925-12.704
		c4.569-0.13,6.068,1.438,3.997,5.614c-5.493,11.076-9.198,22.743-12.773,34.529c-2.091,6.896-8.2,12.583-18.341,10.476
		C55.136,276.541,51.526,273.114,51.623,262.374z M88.358,234.393c-5.142,0.142-8.732,2.339-12.207,4.417
		c-8.302,4.964-14.975,11.561-18.315,20.876c-1.741,4.856,0.277,10.878,3.696,12.343c7.426,3.184,13.513,0.455,15.943-7.417
		C80.555,254.636,83.379,244.58,88.358,234.393z"/>
	<path fill="#2574B5" d="M657.943,216.005c0.04,8.914-3.288,14.236-9.044,15.26c-13.603,2.419-18.587-0.161-22.24-10.691
		c-3.916-11.287-7.109-22.791-12.526-33.53c-2.256-4.473-0.969-6.072,4.038-5.836c17.831,0.84,29.095,11.49,37.898,25.633
		C657.853,209.709,658.194,213.118,657.943,216.005z M622.374,188.012c-0.244-0.094-0.489-0.187-0.733-0.281
		c0.12,0.216,0.239,0.433,0.359,0.649c1.444,3.871,2.953,7.719,4.319,11.617c2.512,7.172,4.59,14.52,7.523,21.512
		c2.064,4.921,5.95,5.64,12.853,3.998c4.574-1.087,5.305-4.503,5.511-8.302c0.256-4.73-1.761-8.621-4.593-12.26
		C641.048,196.517,633.531,189.573,622.374,188.012z"/>
	<path fill="#2574B5" d="M592.144,148.804c-6.82,0.054-13.97-2.553-20.328,2.051c-1.261,0.913-2.553,0.192-3.638-0.682
		c-1.149-0.926-0.801-2.047-0.354-3.168c0.061-0.154,0.106-0.315,0.149-0.476c5.206-19.37,35.932-32.711,53.543-23.249
		c4.139,2.224,5.769,5.903,5.566,10.346c-0.257,5.62-2.245,10.319-7.813,12.84c-5.343,2.419-11.081,1.804-16.662,2.282
		C599.142,149.046,595.633,148.804,592.144,148.804z M577.814,142.383c8.739,0,16.511,0.023,24.283-0.011
		c3.489-0.015,7.001,0.08,10.461-0.278c4.945-0.51,8.37-3.744,8.524-7.56c0.182-4.525-2.578-6.573-8.138-8.392
		C601.524,122.407,584.406,132.815,577.814,142.383z"/>
	<path fill="#2574B5" d="M319.009,0c12.575,0.531,23.514,4.45,33.249,11.696c1.885,1.403,3.27,3.296,4.435,5.339
		c0.645,1.13,1.76,2.225,0.672,3.594c-0.981,1.234-2.369,2.091-3.938,1.446c-5.723-2.352-10.769,0.387-15.879,2.096
		c-8.198,2.743-16.503,5.021-24.998,6.577c-10.122,1.853-18.939-7.45-16.522-17.276c0.332-1.349,0.898-2.462,1.769-3.497
		C302.059,4.913,312.778-0.037,319.009,0z M345.66,14.915c-4.522-3.534-9.516-5.465-14.543-6.976
		c-8.331-2.504-16.681-2.807-24.484,2.117c-2.456,1.55-4.586,3.133-4.648,6.519c-0.113,6.161,3.779,8.865,11.457,7.647
		C324.466,22.473,334.865,18.587,345.66,14.915z"/>
	<path fill="#2574B5" d="M547.113,397.649c0.262,3.215-0.597,6.279-1.35,9.339c-1.982,8.054-6.05,11.592-12.784,11.248
		c-7.611-0.389-12.712-5.21-13.976-13.024c-1.492-9.225-1.917-18.512-1.893-27.837c0.011-4.499-0.004-8.992-3.215-12.707
		c-1.122-1.298-0.968-2.816-0.033-4.155c0.924-1.322,2.239-1.018,3.61-0.714c2.97,0.658,5.671,1.831,8.134,3.615
		c8.961,6.488,15.576,14.836,19.865,25.024C546.707,391.376,547.553,394.404,547.113,397.649z M523.186,369.111
		c-0.31,12.262,0.076,23.366,1.827,34.408c0.824,5.2,3.421,8.44,7.36,8.734c5.429,0.406,7.211-3.128,8.141-7.548
		c0.272-1.294,0.534-2.612,0.585-3.927C541.634,386.962,533.155,378.236,523.186,369.111z"/>
	<path fill="#2574B5" d="M446.633,54.856c-0.318,4.306-0.169,12.164-4.783,19.06c-1.698,2.538-3.372,2.635-4.617-0.032
		c-5.919-12.675-16.977-21.66-23.907-33.63c-4.242-7.327-4.407-12.892,0.535-18.761c4.338-5.151,10.247-5.88,16.055-2.492
		C442.411,26.291,446.482,37.792,446.633,54.856z M439.734,64.189c0.752-10.14,1.302-18.823-1.606-27.33
		c-1.674-4.897-4.919-8.636-9.071-11.555c-3.34-2.347-6.887-3.495-10.391-0.162c-3.352,3.189-3.065,6.761-0.913,10.401
		C423.67,45.554,430.995,54.487,439.734,64.189z"/>
	<path fill="#2574B5" d="M45.977,346.972C45.502,330.617,56.42,321.96,68.439,314.3c4.858-3.096,10.143-5.785,16.338-5.144
		c1.35,0.14,2.819,0.051,3.228,1.676c0.325,1.289,0.354,2.699-0.955,3.613c-4.842,3.382-5.566,8.842-6.831,13.922
		c-2.128,8.548-4.666,16.948-8.161,25.031c-2.977,6.885-9.377,10.177-16.579,8.744C48.715,360.796,45.814,356.166,45.977,346.972z
		 M76.892,316.879c-2.686,1.368-4.537,2.122-6.189,3.184c-9.591,6.171-17.847,13.313-19.294,25.693
		c-0.749,6.409,2.972,11.306,8.553,10.53c3.771-0.525,5.539-3.458,6.914-6.534C71.43,339.563,73.908,328.738,76.892,316.879z"/>
	<path fill="#2574B5" d="M278.858,602.158c5.569-0.113,10.076-0.159,14.413,1.248c8.056,2.613,10.136,10.789,4.264,16.864
		c-6.963,7.203-15.954,9.23-25.469,9.278c-3.938,0.02-7.947-0.217-11.872-1.178c-6.271-1.536-10.49-5.25-10.954-10.042
		c-0.511-5.288,3.052-10.476,9.207-12.77C265.35,602.985,272.501,601.581,278.858,602.158z M269.792,623.954
		c8.856-0.43,16.148-1.85,22.224-6.766c1.502-1.215,3.271-2.728,2.792-4.922c-0.473-2.168-2.549-2.964-4.534-3.411
		c-2.42-0.545-4.869-1.159-7.33-1.291c-8.069-0.431-15.896,0.806-23.221,4.336c-2.22,1.069-4.741,2.499-4.425,5.43
		c0.325,3.013,2.852,4.381,5.563,4.989C264.242,623.076,267.682,623.576,269.792,623.954z"/>
	<path fill="#2574B5" d="M66.487,613.451c-4.334,0.416-8.472-0.988-11.834-4.339c-2.909-2.899-3.161-6.641-0.544-9.364
		c5.978-6.221,22.01-10.02,30.091-2.244c4.827,4.645,4.555,8.576-1.153,11.888C78.132,612.243,72.908,613.558,66.487,613.451z
		 M70.206,599.199c-3.21-0.183-6.393,0.086-9.145,1.82c-2.584,1.628-2.905,3.549,0.094,5.259c4.052,2.309,8.158,2.513,12.355,0.398
		c2.413-1.217,7.225-1.147,6.68-3.847c-0.615-3.049-5.035-3.687-8.494-3.638C71.198,599.197,70.699,599.191,70.206,599.199z"/>
	<path fill="#2574B5" d="M542.895,597.253c4.335-0.754,7.966,1.194,11.397,3.059c6.019,3.273,6.078,9.182,0.445,13.075
		c-5.765,3.985-15.948,2.687-20.418-2.646c-2-2.386-3.467-5.176-2.16-8.219c1.304-3.037,4.001-4.801,7.357-5.245
		C540.657,597.126,541.834,597.253,542.895,597.253z M543.432,602.479c-1.969,0.529-3.708,0.569-4.846,1.973
		c-0.673,0.83-0.055,1.529,0.393,2.206c1.874,2.832,9.697,3.988,12.142,1.832c1.044-0.921,1.546-2.124,0.203-2.798
		C548.7,604.376,545.88,603.451,543.432,602.479z"/>
	<path fill="#83B825" d="M452.964,126.322c-0.026-2.054-0.053-4.108-0.079-6.162c5.041-1.681,10.243-1.602,15.295-0.576
		c12.005,2.439,18.799,14.434,15.049,26.251c-2.79,8.793-8.704,15.632-14.657,22.352c-6.512,7.351-13.55,14.195-21.171,20.417
		c-1.03,0.841-2.042,1.713-2.98,2.654c-1.917,1.922-2.187,4.166-0.517,6.267c1.726,2.172,3.888,2.214,6.151,0.56
		c7.118-5.202,14.445-10.092,22.16-14.37c11.226-6.226,22.737-11.701,35.579-13.827c4.362-0.722,8.593-0.747,12.789,0.699
		c-5.485,1.521-10.968,3.042-16.443,4.561c-8.02-1.336-15.014,1.746-21.809,5.318c-7.748,4.072-14.18,9.902-20.225,16.131
		c-1.377,1.419-2.694,2.258-4.651,2.426c-25.439,2.172-47.648,12.776-68.693,26.397c-1.116,0.723-2.217,1.471-3.357,2.155
		c-2.191,1.314-3.606,2.986-2.716,5.73c1.001,3.085,3.482,3.423,6.079,2.869c7.662-1.635,15.393-2.764,23.183-3.515
		c2.641-0.255,5.297-0.359,9.344-0.623c-5.446,2.978-9.75,5.198-13.924,7.641c-11.089,6.488-18.474,16.073-23.074,27.948
		c-1.018,2.629-1.504,5.227,0.715,7.438c2.166,2.159,4.572,1.215,6.962,0.236c9.66-3.955,19.38-7.736,29.823-9.713
		c-9.559,7.445-16.848,16.572-21.961,27.443c-1.143,2.429-2.645,4.759-0.368,7.354c2.299,2.619,4.838,1.299,7.36,0.529
		c10.979-3.351,21.958-6.698,32.937-10.048c1.402-0.428,2.783-1.13,4.322-0.307c-0.005,2.443-1.658,3.896-3.152,5.447
		c-4.293,4.458-8.891,8.783-14.185,11.778c-6.942,3.928-8.148,10.248-9.665,17.976c12.347-8.621,25.178-15.667,33.172-27.583
		c4.21-6.276,8.264-12.766,12.61-19.023c0.906-1.304,1.395-2.897,2.553-5.38c-17.991,5.424-35.055,10.569-52.943,15.962
		c2.25-5.172,5.365-8.391,8.631-11.407c6.525-6.024,14.056-10.633,21.785-14.929c0.873-0.485,1.82-0.849,2.651-1.393
		c2.182-1.429,4.183-3.135,3.113-6.086c-1.007-2.777-3.359-3.308-6.122-3.106c-13.875,1.014-27.293,4.041-40.313,8.903
		c-1.523,0.569-3.08,1.047-6.121,2.074c3.727-6.718,7.982-11.054,13.085-14.625c8.409-5.885,17.88-9.544,27.501-12.851
		c2.675-0.919,5.399-1.696,8.102-2.53c2.553-0.788,4.699-1.947,4.409-5.14c-0.317-3.487-2.925-4.03-5.701-4.382
		c-8.951-1.135-17.935-1.295-26.939-0.982c-1.59,0.055-3.183,0.008-4.879-0.368c10.478-6.177,21.705-10.442,33.501-13.095
		c17.734-3.989,35.131-3.633,51.27,5.933c14.184,8.407,22.557,21.634,29.741,36.037c8.882,17.808,6.693,34.422-3.751,50.578
		c-12.537,19.394-29.997,33.74-48.491,46.987c-11.653,8.347-23.869,15.81-36.438,22.697c-2.79,1.529-5.101,7.362-4.077,10.168
		c0.777,2.131,2.087,1.017,3.184,0.477c2.331-1.148,4.606-2.409,7.5-3.939c-1.139,12.145-1.544,23.423-0.946,34.723
		c0.372,7.017,1.682,13.861,3.567,20.611c5.159,18.474,18.448,26.793,36.469,29.196c18.793,2.506,36.347-2.22,53.444-9.328
		c5.349-2.224,10.505-4.91,16.118-7.558c1.128,4.781-1.098,8.476-3.359,11.976c-10.882,16.844-25.6,29.071-43.068,39.123
		c-72.162,41.526-149.537,69.421-229.836,89.999c-4.028,1.032-8.223,1.634-12.057,3.152c-7.723,3.057-13.186-0.452-18.159-5.579
		c-7.757-7.998-11.02-18.23-12.899-28.76c-3.028-16.971-2.913-34.118-1.215-51.867c4.029,3.758,5.264,8.397,6.759,12.844
		c0.97,2.885,1.543,6.03,5.4,6.216c3.777,0.182,4.381-3.035,5.43-5.581c2.264-5.495,4.411-11.037,7.196-16.484
		c1.529,5.737,1.197,11.488,1.074,17.216c-0.065,3.027-0.629,6.42,3.265,7.39c3.689,0.919,5.257-1.974,6.725-4.695
		c2.983-5.529,6-11.039,9.671-17.783c2.066,20.507-1.551,39.205-4.521,59.466c5.253-4.608,11.207-6.525,11.154-13.971
		c-0.025-3.45,1.542-6.931,1.396-10.356c-0.267-6.251,3.112-9.492,7.89-12.584c18.181-11.767,36.046-24.295,57.22-30.045
		c8.193-2.225,14.046-5.849,17.756-13.335c0.532-1.074,1.035-1.864,0.871-3.123c-6.265-47.978-21.235-92.383-53.653-129.473
		c-16.572-18.961-38.065-30.468-61.399-38.775c-31.487-11.209-64.129-16.165-97.434-17.229c-7.999-0.255-7.875-0.201-5.451-7.633
		c8.699-26.662,22.382-50.794,37.403-74.268c1.299-2.031,2.829-2.78,5.195-3.146c11.989-1.854,23.918-0.843,35.866,0.262
		c2.283,0.211,4.74,0.733,6.276-1.802c1.584-2.615,0.191-4.823-1.045-6.977c-4.077-7.11-10.291-12.014-17.064-16.321l-0.086,0.075
		c8.889-0.789,17.517,1.273,26.22,2.458c2.472,0.337,5.049,1.363,6.966-1.003c2.095-2.586,1.19-5.359-0.117-7.97
		c-5.193-10.378-12.646-18.599-23.873-23.849c11.472-3.121,23.242-0.091,33.941-5.881c2.498,11.158,2.69,22.487-1.599,33.651
		c-3.642,9.48-8.272,18.52-12.463,27.755c-5.816,12.816-16.527,20.295-28.012,26.736c-11.735,6.581-22.09,14.692-31.434,24.242
		c-6.005,6.137-9.74,13.03-7.654,22.023c1.621,6.988,3.982,8.975,11.059,8.659c3.667-0.164,7.419-0.571,10.684-2.215
		c22.257-11.214,42.954-6.945,63.404,5.27c18.142,10.835,34.893,23.25,49.277,38.76c6.507,7.016,13.916,12.898,22.134,17.749
		c13.05,7.704,26.663,7.578,36.538-0.218c12.435-9.816,17.713-24.776,13.383-39.064c-3.518-11.609-7.386-23.115-11.242-34.618
		c-2.244-6.693-3.67-13.44-3.227-20.559c0.416-6.678-0.338-13.295-1.578-19.866c-3.165-16.771-13.918-26.679-29.248-32.478
		c-2.174-0.822-4.356-1.624-6.524-2.463c-9.212-3.566-15.558-9.513-18.388-19.454c-2.723-9.566-5.933-19.048-10.37-28.032
		c-3.381-6.845-8.215-12.493-14.05-17.325c-7.472-6.188-16.088-6.58-25.047-4.656c-5.21,1.119-8.081,4.197-6.599,10.785
		c-5.663-4.861-10.018-9.946-15.504-12.988c-7.835-4.344-9.661-9.291-7.946-18.181c3.07-15.918,2.127-32.16-0.386-48.224
		c-0.144-0.917-0.019-1.877-0.019-3.791c21.365,17.812,42.105,35.104,63.5,52.941c0-4.496,0.118-8.072-0.024-11.638
		c-0.32-8.026-0.111-15.998,2.233-23.752c1.711-5.661,4.584-10.666,10.869-11.853c8.022-1.515,13.386,3.471,17.559,9.205
		c3.503,4.814,3.003,10.331-0.355,15.446c-1.734,2.642-3.299,5.398-4.864,8.146c-2.213,3.888-0.802,6.804,3.705,7.338
		c2.971,0.352,5.825,0.193,8.56-1.721c4.535-3.174,9.603-5.277,15.199-5.924c4.55-0.526,8.92-0.058,11.513,4.113
		c2.442,3.927,1.26,8.011-0.983,11.793c-3.169,5.341-7.7,9.032-13.361,11.556c-8.311,3.705-17.175,4.998-27.072,6.389
		c5.465,4.634,10.32,8.794,15.222,12.898c10.341,8.657,20.69,17.305,31.071,25.915c5.768,4.785,7.418,4.713,13.263-0.325
		c11.857-10.22,23.833-20.291,36.741-29.186c0.341,0.356,0.682,0.711,1.023,1.066c-7.648,7.707-14.903,15.646-18.272,26.363
		c-5.284,16.807,4.974,28.469,22.232,25.164c8.719-1.67,16.273-5.795,23.111-11.225c10.977-8.717,20.558-18.632,23.793-32.878
		C474.248,135.349,467.337,126.763,452.964,126.322z M330.329,520.51c1.409,0.023,2.533-0.679,3.665-1.401
		c1.933-1.233,3.81-0.623,4.733,1.087c1.057,1.96-0.982,2.991-2.298,3.795c-3.936,2.404-6.616-0.875-9.235-2.715
		c-2.49-1.748-0.858-4.09,0.547-6.078c1.23-1.74,3.118-3.192,3.271-5.755c-2.438,0.03-3.735,1.352-5.078,2.556
		c-8.15,7.305-8.363,8.095,0.618,14.033c10.506,6.946,9.413,5.824,15.835-2.268c1.443-1.819,2.864-3.662,4.179-5.574
		c0.911-1.325,0.847-2.362-1.048-2.931c-6.018-1.805-11.444-0.15-15.541,4.896c-0.125,0.224-0.251,0.447-0.376,0.671
		C329.842,520.721,330.085,520.616,330.329,520.51z M380.389,405.337c11.214-0.064,16.209-7.064,12.815-17.219
		c-1.3-3.89-3.879-6.917-6.103-10.193c-1.046-1.542-2.624-1.856-4.425-1.424c-4.545,1.091-8.921,2.542-12.712,5.411
		c-3.283,2.484-4.927,5.209-2.403,9.325c1.816,2.962,3.079,6.256,4.705,9.341C374.045,403.952,376.704,405.921,380.389,405.337z
		 M506.022,270.036c-0.21-7.754-6.719-14.793-13.465-14.563c-5.375,0.183-11.354,9.721-11.295,18.019
		c0.021,2.934,9.556,7.663,15.087,7.483C501.894,280.795,506.182,275.945,506.022,270.036z M520.12,290.066
		c-0.052-4.463-3.844-8.918-7.575-8.899c-6.686,0.034-14.507,6.059-14.509,11.178c-0.001,4.221,5.73,8.816,10.995,8.815
		C513.803,301.159,520.175,294.784,520.12,290.066z M400.145,395.847c0.02,5.526,3.093,8.405,8.907,8.343
		c5.258-0.057,9.963-5.584,9.998-11.748c0.028-4.857-3.32-8.234-8.084-8.152C402.991,384.425,400.116,387.496,400.145,395.847z
		 M398.921,377.226c6.262-0.035,12.122-3.966,12.053-8.085c-0.06-3.579-5.406-8.809-8.944-8.75
		c-4.528,0.076-8.842,4.108-8.886,8.304C393.086,374.321,395.067,377.247,398.921,377.226z M325.088,118.827
		c10.834,2.309,19.918,1.487,27.851-4.972c2.344-1.908,3.631-4.378,1.35-7.348c-2.27-2.956-5.188-2.939-7.945-1.24
		c-2.068,1.274-3.926,3.106-5.427,5.04C337.153,115.159,332.302,117.934,325.088,118.827z M314.693,110.265
		c-1.764-5.982,0.025-11.179,2.965-16.215c0.992-1.7,1.855-3.51,2.508-5.365c1.283-3.643,1.218-6.923-3.189-8.476
		c-4.447-1.567-6.02,1.349-7.076,4.736C307.023,94.174,309.774,102.417,314.693,110.265z M523.206,268.841
		c-0.087-4-3.353-8.577-5.832-8.381c-2.062,0.163-6.145,5.037-6.041,7.209c0.158,3.271,3.806,6.806,6.973,6.467
		C521.461,273.8,523.545,272.216,523.206,268.841z M332.925,508.539c-0.107-0.263-0.215-0.526-0.322-0.789
		c-0.127,0.099-0.374,0.221-0.36,0.294c0.05,0.27,0.187,0.523,0.291,0.783C332.663,508.731,332.793,508.635,332.925,508.539z"/>
	<path fill="#5EB3E6" d="M530.162,493.321c16.615-0.05,33.272-0.642,49.527,3.89c0.956,0.267,1.956,0.441,2.852,0.844
		c4.434,1.996,9.316,3.851,9.598,9.667c0.275,5.666-4.672,7.636-8.495,10.054c-2.106,1.332-4.95,1.808-4.456,5.086
		c0.48,3.185,3.321,3.347,5.748,3.798c11.919,2.214,23.882,4.191,34.854,9.834c10.586,5.444,11.05,10.831,1.417,17.764
		c-13.058,9.398-28.245,13.003-43.618,16.042c-21.407,4.231-43.058,5.966-64.861,6.028c-6.158,0.018-7.21,1.455-5.418,7.116
		c0.3,0.948,0.602,1.898,0.831,2.865c1.648,6.955-0.422,9.683-7.446,9.962c-12.365,0.492-24.54-1.056-36.62-3.466
		c-17.546-3.499-34.352-9.189-50.143-17.649c-3.558-1.906-5.77-1.749-8.314,1.794c-7.04,9.804-16.884,12.645-28.593,10.879
		c-10.365-1.564-20.551-3.837-30.599-6.72c-1.808-0.519-4.624,0.255-5.318-2.698c63.992-19.691,124.958-46.205,182.301-80.883
		C525.677,496.155,527.911,494.724,530.162,493.321z"/>
	<path fill="#5EB3E6" d="M234.084,584.265c-15.598,8.013-31.776,14.732-49.274,16.679c-16.295,1.813-32.501,0.056-48.179-5.279
		c-3.01-1.024-3.704-2.798-2.94-5.746c0.752-2.903,1.678-5.714,2.727-8.522c1.289-3.449-0.811-6.088-4.435-5.501
		c-19.984,3.237-40.11,5.316-60.308,6.08c-20.545,0.778-40.975-0.229-58.912-12.349c-7.501-5.069-7.506-11.733,0.114-16.555
		c10.344-6.547,22.229-8.486,33.965-10.758c2.595-0.502,5.242-0.773,7.878-1.018c2.229-0.207,3.864-1.106,4.326-3.389
		c0.435-2.149-0.889-3.457-2.59-4.381c-3.349-1.82-6.833-3.314-9.75-5.953c-3.209-2.903-2.805-4.642,0.872-6.614
		c10.693-5.735,22.279-8.571,34.079-10.593c7.34-1.258,14.723-2.601,22.251-2.064c5.983,16.905,12.165,33.745,17.828,50.757
		c1.676,5.036,4.453,6.191,8.972,5.023c27.493-7.109,54.989-14.208,82.456-21.42c6.51-1.709,9.315,0.008,10.088,6.654
		C224.682,561.637,227.88,573.419,234.084,584.265z"/>
	<path fill="#62251A" d="M267.637,179.818c4.367,7.714,10.7,12.705,19.979,12.301c6.208-0.271,12.261-2.166,17.353-5.636
		c4.374-2.981,6.155-2.043,7.572,2.563c2.076,6.751,6.995,11.343,12.891,14.589c3.83,2.108,3.687,3.877,1.921,7.331
		c-4.47,8.745-6.319,17.845-1.78,27.282c5.683,11.818,15.326,16.151,27.884,12.279c2.99-0.922,5.921-2.207,8.662-3.719
		c2.794-1.541,4.187-1.685,4.089,2.148c-0.136,5.326-0.124,10.662,0.037,15.987c0.091,2.995-0.812,3.162-3.491,2.32
		c-18.952-5.957-38.317-10.202-58.257-8.777c-17.843,1.275-35.591,3.966-52.997,8.314c-3.686,0.921-5.298,0.255-6.619-3.439
		c-3.31-9.255-9.228-16.516-18.349-20.662c-2.603-1.183-2.835-1.858-0.422-3.431c3.618-2.36,7.094-4.937,10.714-7.294
		c7.715-5.022,12.038-12.712,16.158-20.519c5.048-9.566,9.549-19.391,13.095-29.629C266.353,181.029,266.52,180.22,267.637,179.818z
		"/>
	<path fill="#83B825" d="M222.762,199.656c-16.655-1.431-31.828,0.063-46.815,3.647c-1.13,0.27-2.255,0.573-3.395,0.791
		c-3.017,0.577-5.116,2.169-4.444,5.431c0.73,3.541,3.315,4.191,6.554,3.175c0.912-0.286,1.936-0.213,3.577-0.367
		c-9.805,16.223-19.521,31.867-26.909,49.615c-2.335-3.315-2.773-6.601-3.643-9.641c-5.102-17.821-8.164-35.883-8.106-54.556
		c0.075-24.415,12.014-42.772,28.643-58.831c10.123-9.776,22.147-16.058,36.682-15.526c15.881,0.581,28.789,8,41.451,19.109
		c-5.461,0.602-9.757,1.15-14.068,1.535c-9.279,0.828-18.566,1.562-27.848,2.36c-1.322,0.114-2.639,0.334-3.945,0.573
		c-2.249,0.413-3.531,1.73-3.628,4.079c-0.105,2.545,1.078,4.091,3.578,4.627c4.224,0.907,8.503,1.62,12.658,2.775
		c9.435,2.622,18.197,6.484,24.393,14.576c0.681,0.889,1.76,1.619,1.17,3.523c-6.283-0.588-12.679-1.178-19.073-1.788
		c-9.186-0.877-18.273-0.03-27.346,1.407c-2.914,0.462-4.735,1.923-4.682,4.821c0.047,2.596,1.69,3.968,4.396,4.575
		c8.444,1.894,16.787,4.162,24.421,8.455C218.535,195.23,220.52,196.561,222.762,199.656z"/>
	<path fill="#59BCE7" d="M486.14,190.043c0.557-2.546,3.056-2.396,4.716-3.055c15.448-6.138,30.984-12.297,47.885-12.675
		c21.304-0.476,31.969,6.918,39.17,26.941c5.476,15.227,8.499,31.004,9.304,47.197c0.279,5.609,0.245,11.427,7.773,12.954
		c1.765,0.358,3.478,2,4.781,3.443c7.386,8.179,5.161,15.117-5.992,19.049c-7.592,2.677-7.593,2.677-7.599,10.774
		c-0.004,6.459-1.668,12.241-7.22,16.149c-5.663,3.986-11.573,3.216-18.527-2.835c-2.887-2.512-5.451-3.112-9.036-1.99
		c-3.426,1.072-6.985,2.148-10.721,0.676c-3.877-1.527-5.664-3.969-4.235-8.121c0.611-1.776,0.903-3.537,0.537-5.388
		c0,0-0.012,0.037-0.012,0.037c1.213-0.353,1.171-1.24,0.939-2.207c0.008-0.256,0.103-0.473,0.287-0.652
		c0.912-0.618,0.971-1.458,0.627-2.404c-0.012-0.25,0.072-0.462,0.253-0.636c0.398-0.696,0.945-1.347,1.171-2.095
		c5.456-17.98,6.325-36.262,2.316-54.546c-3.139-14.316-15.588-25.124-29.045-26.5c-4.773-9.725-13.825-12.209-23.393-13.788
		C488.81,190.157,487.467,190.148,486.14,190.043z M576.157,252.849c0.666-3.164-0.653-7.384-1.076-11.665
		c-1.177-11.916-3.302-23.668-7.992-34.754c-2.583-6.107-5.462-12.201-11.14-16.224c-14.664-10.39-30.174-7.563-45.774-2.782
		c-1.439,0.441-2.34,1.565-1.759,3.068c0.756,1.956,2.499,2.1,4.188,1.43c4.836-1.917,9.936-2.697,15.022-3.268
		c16.055-1.803,28.369,3.095,34.742,19.871c6.024,15.859,8.379,32.325,8.79,49.163c0.028,1.163-0.094,2.371,0.18,3.478
		c0.348,1.4,0.709,3.146,2.765,2.866c1.619-0.22,2.025-1.556,2.045-2.98C576.181,258.721,576.157,256.389,576.157,252.849z
		 M558.102,259.458c0.395-8.655,0.104-17.3-1.199-25.846c-0.746-4.892-1.948-9.737-3.651-14.446
		c-4.924-13.618-20.207-23.941-34.161-22.935c-1.497,0.108-3.365-0.034-3.504,1.919c-0.141,1.98,1.508,2.781,3.284,3.033
		c0.818,0.116,1.668,0.002,2.492,0.09c11.281,1.204,20.324,5.928,25.53,16.495c5.043,10.237,6.056,21.318,6.156,32.459
		c0.092,10.119,0.802,20.276-0.857,30.367c-0.317,1.932-0.367,4.341,2.471,4.586c2.89,0.25,2.167-2.153,2.512-3.85
		C558.654,274.082,557.922,266.75,558.102,259.458z"/>
	<path fill="#FAD87F" d="M345.158,413.302c3.89,7.968,6.375,16.421,8.63,24.954c-1.764-0.434-3.58-0.723-5.285-1.326
		c-16.111-5.692-32.278-11.205-48.595-16.296c-27.988-8.733-56.105-16.862-84.895-22.668c-24.445-4.93-49.17-6.343-73.946-7.65
		c-1.868-9.899-2.926-19.892-3.484-29.943c8.425,0.601,16.856,1.18,25.279,1.742c15.422,1.029,30.628,3.464,45.687,6.566
		c37.031,7.628,72.52,20.351,107.807,33.665C325.967,405.972,335.168,410.676,345.158,413.302z"/>
	<path fill="#FAD87F" d="M170.045,493.134c0.64-0.5,1.206-1.223,1.932-1.462c3.779-1.246,2.98-3.147,1.398-5.898
		c-4.777-8.309-9.998-16.401-13.385-25.446c6.124,0.316,12.246,0.852,18.372,0.903c12.628,0.106,25.14,1.73,37.587,3.376
		c21.005,2.778,41.724,7.278,62.227,12.686c18.096,4.773,36.139,9.727,53.849,15.813c-15.277,7.668-29.954,16.372-44.372,26.376
		c-0.486-9.914-0.412-19.232-2.484-28.347c-0.586-2.576-0.832-5.448-4.262-5.97c-3.407-0.518-4.573,2.021-5.856,4.392
		c-2.439,4.506-4.899,9.002-7.853,14.427c-1.213-5.418-1.663-10.121-4.231-14.045c-1.493-2.281-2.586-5.251-6.185-4.968
		c-3.617,0.284-4.816,2.879-5.912,5.853c-1.867,5.066-4.021,10.026-6.271,15.562c-3.293-5.886-6.909-10.826-11.691-14.781
		c-1.779-1.472-3.597-3.105-6.252-1.879c-2.358,1.09-2.522,3.163-2.762,5.4c-1.317,12.256-1.899,24.539-1.701,36.863
		c0.089,5.508-0.055,5.517-5.137,3.919c-11.368-3.574-20.631-10.498-29.379-18.256c-1.109-0.984-1.927-2.314-3.526-2.622
		C179.449,507.731,174.747,500.433,170.045,493.134z"/>
	<path fill="#FAD87F" d="M329.352,381.2c5.48,7.746,9.58,16.204,12.925,25.051c-0.646-0.14-1.332-0.183-1.932-0.433
		c-29.61-12.346-59.774-23.155-90.472-32.463c-36.666-11.118-73.993-18.223-112.47-18.168c-0.37-10.985,1.627-21.672,4.059-32.304
		c11.418,1.839,22.883,3.429,34.246,5.561c46.333,8.693,90.808,23.064,133.288,43.624C315.67,375.298,322.122,379.158,329.352,381.2
		z"/>
	<path fill="#FAD87F" d="M355.518,445.112c2.319,7.57,3.992,15.274,4.831,23.153c-33.024-12.15-66.362-23.309-100.592-31.611
		c-14.478-3.512-29.02-6.667-43.845-8.501c-11.682-1.446-23.365-2.439-35.116-3.19c-11.148-0.712-22.226-0.712-33.345-0.303
		c-2.426-9.336-4.594-18.721-5.381-28.369c10.609,0.091,21.153,1.242,31.727,1.881c12.25,0.74,24.333,2.577,36.371,4.695
		c19.258,3.388,38.115,8.513,56.902,13.881c20.39,5.826,40.566,12.309,60.642,19.145
		C336.952,439.039,345.971,442.889,355.518,445.112z"/>
	<path fill="#FAD87F" d="M361.209,474.288c0.283,0.932,0.617,1.853,0.839,2.8c1.063,4.537,0.108,7.224-5.312,8.03
		c-5.498,0.818-10.807,2.912-16.198,4.446c-6.172-1.943-12.338-3.908-18.518-5.825c-18.363-5.697-36.876-10.906-55.584-15.293
		c-19.478-4.568-39.114-8.32-59.076-10.478c-16.521-1.785-32.991-3.233-49.607-2.543c-3.958-8.023-6.991-16.365-8.698-25.166
		c14.945-0.055,29.897-0.254,44.805,1.063c6.915,0.611,13.834,1.309,20.699,2.324c15.87,2.345,31.554,5.579,47.141,9.458
		c22.046,5.487,43.685,12.242,65.182,19.511C338.329,466.486,349.766,470.396,361.209,474.288z"/>
	<path fill="#FAD87F" d="M142.89,317.238c0.186-4.206,2.014-8.043,2.743-12.106c0.597-3.329,2.201-4.122,5.413-4.057
		c20.495,0.417,40.821,2.387,60.942,6.297c26.574,5.163,52.171,13.034,75.207,27.784c14.488,9.276,26.28,21.259,35.568,35.723
		c-2.132,0.835-3.864-0.262-5.65-1.149c-36.227-17.979-73.89-31.985-113.335-41.103C183.64,323.972,163.362,320.09,142.89,317.238z"
		/>
	<path fill="#59BCE7" d="M341.198,93.803c-2.02-3.19-1.79-6.134,0.623-9.111c2.384-2.94,4.85-2.588,7.939-1.188
		c2.79,1.264,3.553-0.639,3.212-3.079c-0.084-0.599-0.579-1.176-0.98-1.689c-2.354-3.009-4.458-6.626-2.232-10.004
		c2.565-3.892,6.993-2.932,10.946-1.766c2.158,0.637,4.23,0.259,6.378-0.188c17.092-3.561,34.023-3.599,50.083,4.11
		c18.705,8.979,27.534,24.722,28.923,44.947c1.044,15.204-0.683,30.162-5.065,44.769c-0.508,1.694-0.016,4.234-2.789,4.669
		c-1.013-9.805-6.175-17.074-13.911-22.771c0.649-0.205,1.281-0.464,1.313-1.269c0.46-11.733-12.68-30.732-23.843-34.491
		c-9.108-3.067-15.323-0.858-19.953,7.09c-3.308,5.68-6.643,6.567-12.842,3.416c1.084-2.56,2.825-4.807,3.14-7.735
		c1.563-14.556-9.87-19.835-21.826-18.024C347.229,91.957,344.234,93.016,341.198,93.803z M395.991,78.314
		c15.201-0.003,25.804,6.905,30.679,19.335c2.42,6.17,4.187,12.554,5.515,19.092c1.883,9.272,2.279,18.717,3.799,28.021
		c0.248,1.519,0.428,3.382,2.408,3.073c1.745-0.273,2.648-1.76,2.478-3.753c-1.182-13.877-2.713-27.732-6.884-41.06
		c-3.206-10.244-7.531-19.916-17.915-25.325c-10.005-5.211-20.396-5.051-31.004-2.892c-5.046,1.027-9.98,2.471-14.721,4.543
		c-1.602,0.7-2.532,1.757-2.084,3.45c0.54,2.042,2.316,1.628,3.722,1.302c1.606-0.372,3.137-1.073,4.694-1.649
		C383.416,79.959,390.417,78.795,395.991,78.314z M400.425,91.272c-5.651,0.175-11.165,1.212-16.471,3.208
		c-1.972,0.742-4.682,1.535-3.61,4.367c1.051,2.776,3.334,0.891,5.098,0.466c4.022-0.968,7.981-2.336,12.054-2.92
		c11.508-1.648,16.986,6.121,21.933,14.558c5.293,9.026,7.686,18.983,9.468,29.15c0.294,1.679,0.051,4.163,2.83,3.705
		c2.649-0.436,2.633-2.745,2.27-4.757c-2.161-11.976-5.352-23.633-12.071-33.958C416.884,97.339,410.839,90.854,400.425,91.272z"/>
	<path fill="#83B825" d="M170.045,493.134c4.702,7.298,9.404,14.597,14.105,21.895c-0.042,4.206,3.091,6.802,5.23,9.798
		c3.18,4.454,7.271,8.112,12.58,11.389c-5.393,2.531-10.465,3.21-15.328,4.487c-17.843,4.686-35.733,9.194-53.576,13.883
		c-2.264,0.595-3.541,0.73-4.46-1.96c-6.015-17.62-12.201-35.181-18.312-52.768c-0.097-0.28,0.04-0.641,0.131-1.689
		c2.391,2.147,3.49,4.618,4.685,6.961c3.417,6.699,5.718,13.824,7.691,21.05c0.821,3.008,2.031,5.669,5.628,4.901
		c3.561-0.76,3.603-3.668,3.217-6.761c-1.539-12.337-2.938-24.691-4.356-37.042c-0.025-0.215,0.36-0.477,0.948-1.207
		c3.595,5.647,3.846,11.942,4.826,17.964c1.044,6.415,1.249,12.917,1.057,19.417c-0.087,2.934,0.481,5.55,3.926,5.85
		c3.752,0.327,4.575-2.416,5.085-5.453c1.949-11.617,3.989-23.218,6.197-35.992c3.67,11.418,2.524,21.771,1.378,32.112
		c-0.384,3.469-1.063,6.906-1.441,10.376c-0.332,3.045,0.853,5.485,4.112,5.708c3.027,0.206,4.358-1.997,4.601-4.813
		c0.77-8.943,2.862-17.805,2.185-26.825c-0.326-4.348,0.618-7.375,4.985-8.897C166.845,494.924,168.414,493.94,170.045,493.134z"/>
	<path fill="#B23C27" d="M367.394,274.567c-3.231,2.881-5.747,5.03-8.143,7.304c-1.117,1.061-2.191,1.19-3.619,0.8
		c-10.088-2.757-19.759-0.297-29.414,2.414c-1.836,0.516-3.681,1.672-5.587-0.108c-8.428-7.871-21.051-5.926-30.498,1.949
		c-1.788,1.49-3.847,2.871-5.09,4.757c-3.165,4.803-6.186,4.099-10.437,1.173c-6.85-4.715-14.327-8.522-22.155-11.356
		c-3.533-1.279-3.801-3.917-4.066-6.565c-0.34-3.406,2.93-2.638,4.7-3.057c20.098-4.754,40.436-8.703,61.11-8.339
		C332.17,263.856,349.774,267.6,367.394,274.567z"/>
	<path fill="#B23C27" d="M330.318,307.695c0.257-5.073-0.569-10.137-3.186-14.749c-1.046-1.844-0.628-2.715,1.257-3.19
		c7.076-1.786,14.049-3.819,21.577-2.817c3.657,0.487,4.531,1.102,2.783,4.666c-3.05,6.221-3.484,12.791-1.093,19.407
		c3.247,8.988,11.115,14.022,22.414,14.382c8.314,0.266,8.673,0.908,4.801,8.588c-8.38,16.617-23.097,20.917-39.126,11.426
		c-1.575-0.933-3.209-1.795-4.672-2.883c-3.468-2.58-7.866-4.648-9.996-8.092c-2.411-3.901,2.087-7.76,3.033-11.8
		C329.249,317.759,330.485,312.935,330.318,307.695z"/>
	<path fill="#DFB74C" d="M355.518,445.112c-9.548-2.223-18.566-6.073-27.805-9.219c-20.075-6.837-40.252-13.319-60.642-19.145
		c-18.787-5.368-37.645-10.493-56.902-13.881c-12.038-2.118-24.121-3.955-36.371-4.695c-10.574-0.639-21.118-1.791-31.727-1.881
		c-1.003-1.879-1.049-3.919-1.004-5.974c24.776,1.307,49.501,2.721,73.946,7.65c28.79,5.806,56.907,13.935,84.895,22.668
		c16.316,5.091,32.483,10.604,48.595,16.296c1.705,0.602,3.521,0.891,5.285,1.326C354.365,440.542,354.941,442.827,355.518,445.112z
		"/>
	<path fill="#DFB74C" d="M361.209,474.288c-11.443-3.892-22.879-7.802-34.329-11.674c-21.497-7.269-43.136-14.024-65.182-19.511
		c-15.587-3.88-31.27-7.113-47.141-9.458c-6.865-1.014-13.784-1.713-20.699-2.324c-14.907-1.317-29.86-1.118-44.805-1.063
		c-1.107-1.702-1.243-3.682-1.602-5.599c11.119-0.41,22.196-0.409,33.345,0.303c11.751,0.75,23.434,1.744,35.116,3.19
		c14.825,1.835,29.366,4.99,43.845,8.501c34.23,8.302,67.568,19.461,100.592,31.611C361.33,470.173,361.304,472.226,361.209,474.288
		z"/>
	<path fill="#DFB74C" d="M137.404,355.187c38.477-0.055,75.804,7.051,112.47,18.168c30.697,9.308,60.861,20.117,90.472,32.463
		c0.6,0.25,1.286,0.293,1.932,0.433c1.626,2.078,2.364,4.519,2.88,7.05c-9.99-2.626-19.191-7.33-28.802-10.956
		c-35.287-13.314-70.775-26.037-107.807-33.665c-15.059-3.102-30.265-5.537-45.687-6.566c-8.422-0.562-16.854-1.141-25.279-1.742
		C137.11,358.659,137.069,356.93,137.404,355.187z"/>
	<path fill="#DFB74C" d="M142.89,317.238c20.473,2.852,40.75,6.734,60.889,11.389c39.446,9.118,77.109,23.123,113.335,41.103
		c1.786,0.887,3.518,1.984,5.65,1.149c0.001,0-0.022,0.012-0.033,0.013c-0.103,0.247-0.195,0.493-0.288,0.739
		c0.237-0.112,0.474-0.225,0.711-0.337c2.484,3.04,4.748,6.218,6.198,9.906c-7.23-2.041-13.681-5.902-20.355-9.132
		c-42.48-20.56-86.955-34.931-133.288-43.624c-11.363-2.132-22.828-3.722-34.246-5.561
		C141.75,320.954,141.841,318.975,142.89,317.238z"/>
	<path fill="#F9F9F9" d="M272.26,165.566c0.645-8.602,5.714-16.654,11.896-24.232c1.666-2.042,2.887-0.774,4.17,0.188
		c6.292,4.716,10.397,11.114,13.528,18.163c1.743,3.925,2.903,8.115,4.723,11.999c1.492,3.185,0.979,5.139-2.198,6.696
		c-3.42,1.676-6.63,3.742-10.299,4.948C281.618,187.422,272.007,180.308,272.26,165.566z"/>
	<path fill="#DFB74C" d="M157.752,455.425c16.617-0.69,33.087,0.758,49.607,2.543c19.962,2.157,39.597,5.909,59.076,10.478
		c18.707,4.387,37.221,9.596,55.584,15.293c6.18,1.917,12.346,3.882,18.518,5.825c-2.837,1.181-5.674,2.361-8.511,3.541
		c-17.711-6.086-35.754-11.039-53.849-15.813c-20.503-5.408-41.222-9.909-62.227-12.686c-12.447-1.646-24.959-3.27-37.587-3.376
		c-6.126-0.051-12.248-0.587-18.372-0.903C158.653,458.963,158.074,457.252,157.752,455.425z"/>
	<path fill="#F9F9F9" d="M241.457,277.384c-13.431-2.802-25.528-0.258-37.233,4.325c-4.322,1.692-4.632,0.213-4.453-3.424
		c0.312-6.335,0.824-12.577,3.075-18.602c4.508-12.059,16.13-15.234,25.98-6.928C236.223,258.993,239.098,267.609,241.457,277.384z"
		/>
	<path fill="#2574B5" d="M416.295,131.747c-1.471-8.286-12.212-18.899-19.735-19.732c-3.822-0.423-5.672,0.167-4.196,4.653
		c1.844,5.606,2.482,11.416,0.614,17.194c-2.079,6.429-6.051,11.124-12.919,12.546c-6.839,1.416-11.481-2.252-15.136-7.417
		c-1.528-2.16-2.668-3.384-5.425-1.558c-3.245,2.149-6.954,2.207-10.512,0.582c-1.584-0.723-3.201-0.784-4.843-0.952
		c-0.604-0.63-2.039-1.315-0.49-2.138c1.993-1.059,3.848-2.592,6.295-2.604c3.626,3.158,6.676,1.785,9.365-1.316
		c3.42-3.943,4.343-3.855,7.013,0.733c1.167,2.005,2.358,4.043,3.847,5.806c4.513,5.342,10.202,5.375,14.982,0.25
		c4.527-4.854,5.152-13.507,1.398-21.113c-3.637,5.076-8.109,8.446-14.706,7.491c-2.31-0.334-4.121-2.254-6.594-2.063
		c1.248-1.62,2.497-3.239,3.745-4.859c6.199,3.15,9.534,2.263,12.842-3.416c4.63-7.948,10.845-10.157,19.953-7.09
		c11.163,3.759,24.302,22.758,23.843,34.491c-0.032,0.805-0.663,1.064-1.312,1.269c-1.377-0.171-2.755-0.341-4.133-0.512
		c-0.341-0.355-0.683-0.71-1.023-1.066C419.097,137.587,418.895,134.291,416.295,131.747z"/>
	<path fill="#F9F9F9" d="M323.072,308.037c0.111,5.941-1.786,11.439-3.688,16.955c-0.905,2.626-1.93,2.479-3.666,0.684
		c-8.342-8.625-17.305-16.549-27.1-23.499c-1.573-1.116-1.964-2.067-0.368-3.472c2.494-2.195,4.764-4.673,7.402-6.671
		c4.916-3.723,10.296-6.631,16.598-3.717c6.789,3.139,10.017,8.954,10.804,16.226C323.179,305.694,323.072,306.871,323.072,308.037z
		"/>
	<path fill="#F9F9F9" d="M347.231,244.377c-10.303-0.037-16.841-7.642-16.647-17.257c0.117-5.788,2.193-10.994,4.811-16.057
		c0.987-1.908,2.301-2.175,4.07-1.433c11.27,4.729,20.599,11.399,24.092,23.967c0.448,1.613,1.3,3.146-0.675,4.347
		C357.462,241.239,351.883,244.09,347.231,244.377z"/>
	<path fill="#F9F9F9" d="M370.811,281.912c3.556,11.181,6.906,22.052,10.513,32.837c0.997,2.981-0.135,3.498-2.624,3.412
		c-1.825-0.063-3.665,0.055-5.475-0.128c-13.753-1.393-19.771-13.119-12.922-25.212C362.78,288.448,366.142,284.876,370.811,281.912
		z"/>
	<path fill="#2E5954" d="M477.074,437.892c0,0.998,0.169,2.032-0.03,2.989c-0.738,3.542-0.471,8.644-3.701,9.816
		c-3.716,1.348-7.398-2.277-10.175-5.05c-6.028-6.02-7.983-14.017-9.787-22.006c-0.504-2.233,1.023-2.421,2.591-2.633
		C467.823,419.398,477.437,424.216,477.074,437.892z"/>
	<path fill="#2574B5" d="M513.511,204.161c13.457,1.376,25.906,12.183,29.045,26.5c4.009,18.284,3.14,36.566-2.316,54.546
		c-0.227,0.748-0.774,1.398-1.171,2.095c1.777-9.492,1.332-18.973-0.149-28.449c0.582-9.846,0.324-19.628-2.931-29.063
		c-1.693-4.907-4.047-9.476-8.645-12.419c-1.839-2.554-4.514-3.859-7.352-4.917c-1.729-1.196-3.55-2.173-5.694-2.376
		C512.996,208.243,512.89,206.25,513.511,204.161z"/>
	<path fill="#9CD2FD" d="M365.254,122.108c2.473-0.191,4.284,1.729,6.594,2.063c6.597,0.955,11.069-2.416,14.706-7.491
		c3.755,7.606,3.13,16.259-1.398,21.113c-4.78,5.125-10.47,5.092-14.982-0.25c-1.489-1.762-2.68-3.8-3.847-5.806
		c-2.67-4.588-3.594-4.676-7.013-0.733c-2.69,3.101-5.739,4.473-9.365,1.316C355.979,130.31,361.181,127.055,365.254,122.108z"/>
	<path fill="#9CD2FD" d="M326.586,61.261c2.276-0.013,3.8-0.777,5.094-2.989c7.151-12.223,15.446-8.09,22.615-0.057
		c1.497,1.677,0.78,2.356-1.213,2.966c-8.262,2.529-9.675,4.566-8.952,13.242c0.331,3.97-3.148,3.557-5.028,5.005
		C338.079,71.204,333.252,65.599,326.586,61.261z"/>
	<path fill="#2E5954" d="M495.036,455.286c-3.539,0.495-3.926-0.955-2.839-3.961c3.18-8.786,8.602-11.992,15.575-9.047
		c1.908,0.806,3.377,2.096,4.501,3.753c3.034,4.471,2.297,6.285-3.055,7.197C504.512,454.031,499.766,454.609,495.036,455.286z"/>
	<path fill="#83B825" d="M473.324,198.671c10.542-4.139,20.84-4.611,30.482,2.428c1.456,1.063,2.679,2.456,3.956,3.749
		c1.731,1.753,1.413,3.454-0.06,5.269c-1.765,2.174-2.93,0.223-4.143-0.544C494.3,203.715,484.272,200.091,473.324,198.671z"/>
	<path fill="#2E5954" d="M463.431,378.363c0.968,7.702-2.943,13.026-8.442,17.597c-0.617,0.513-1.184,1.298-2.114,0.968
		c-1.011-0.359-0.777-1.352-0.784-2.131c-0.062-6.476,0.876-12.858,1.683-19.266c0.537-4.263,4.323-4.619,6.876-6.386
		c1.585-1.097,1.937,0.906,2.084,1.803C463.136,373.391,463.22,375.888,463.431,378.363z"/>
	<path fill="#62251A" d="M193.117,264.282c0.484,6.442-1.945,12.775-0.731,19.236c0.195,1.036-0.084,1.603-1.094,1.718
		c-1.521,0.173-3.083,0.156-4.006-1.31c-1.615-2.567-2.772-5.301-1.771-8.417c1.437-4.474,3.526-8.529,7.596-11.234L193.117,264.282
		z"/>
	<path fill="#2E5954" d="M528.964,443.932c0.237-4.179,0.87-7.522,4.823-8.988c3.36-1.246,5.319,0.43,6.736,3.226
		c1.534,3.025,0.254,4.543-2.707,5.45c-1.717,0.526-3.278,1.545-4.937,2.279C530.314,447.034,528.246,447.327,528.964,443.932z"/>
	<path fill="#62251A" d="M267.84,151.735c-0.667-4.134-1.184-7.33-1.696-10.527c-0.284-1.771,0.521-3.043,2.173-3.368
		c2.691-0.529,5.279-2.365,8.15-1.045c0.91,0.418,0.64,1.475,0.163,2.177C273.897,142.994,271.119,146.984,267.84,151.735z"/>
	<path fill="#83B825" d="M514.298,210.077c2.144,0.203,3.966,1.18,5.694,2.376c-0.599,0.975-1.027,2.135-1.836,2.884
		c-1.218,1.127-0.787,4.924-4.205,2.738c-2.897-1.853-2.957-3.938-0.731-6.36C513.656,211.241,513.942,210.627,514.298,210.077z"/>
	<path fill="#2574B5" d="M538.816,287.937c0.344,0.945,0.285,1.785-0.627,2.404C538.053,289.45,538.117,288.611,538.816,287.937z"/>
	<path fill="#2574B5" d="M537.902,290.993c0.232,0.967,0.274,1.854-0.939,2.207C536.899,292.304,537.102,291.521,537.902,290.993z"
		/>
	<path fill="#83B825" d="M218.153,184.254c-0.132-0.049-0.278-0.078-0.389-0.157c-0.051-0.037-0.033-0.171-0.047-0.26
		c0.116,0.164,0.233,0.328,0.349,0.492C218.066,184.33,218.153,184.254,218.153,184.254z"/>
	<path fill="#62251A" d="M193.111,264.275c0.145-0.138,0.289-0.277,0.434-0.415c-0.02,0.097-0.009,0.233-0.069,0.283
		c-0.094,0.077-0.237,0.096-0.359,0.14C193.117,264.282,193.111,264.275,193.111,264.275z"/>
	<path fill="#FAD87F" d="M323.154,371.293c-0.237,0.112-0.474,0.225-0.711,0.337c0.092-0.246,0.185-0.492,0.288-0.739
		C323.031,370.87,323.168,371.004,323.154,371.293z"/>
	<path fill="#FDFEFE" d="M324.963,59.306c1.048,0.018,1.217,0.701,1.172,1.547C325.713,60.361,324.542,60.437,324.963,59.306z"/>
	<path fill="#FDFEFE" d="M481.573,168.782c-0.463,0.35-0.952,0.761-1.424,0.091c-0.051-0.073,0.467-0.547,0.722-0.836
		C481.104,168.285,481.338,168.534,481.573,168.782z"/>
	<path fill="#050603" d="M420.192,141.99c1.378,0.171,2.756,0.341,4.133,0.512c7.735,5.697,12.897,12.967,13.91,22.772
		c0.824,6.728,0.194,13.402-0.964,20.539c2.92-1.569,2.704-4.649,4.316-6.485c11.804-6.983,19.6-17.189,23.678-30.159
		c3.411-10.848-1.339-17.015-12.759-17.101c-0.268-1.948-0.342-3.881,0.458-5.744c14.372,0.441,21.283,9.027,18.089,23.092
		c-3.235,14.246-12.815,24.161-23.793,32.878c-6.837,5.43-14.392,9.555-23.111,11.225c-17.258,3.305-27.516-8.357-22.232-25.164
		C405.289,157.635,412.544,149.697,420.192,141.99z M432.374,169.072c0.435-7.766-2.681-13.937-8.256-19.013
		c-0.98-0.892-2.134-2.482-3.743-0.743c-7.337,7.928-13.576,16.532-14.118,27.784c-0.329,6.827,3.825,10.787,10.624,11.227
		c9.784,0.633,13.009-1.489,14.182-9.404C431.548,175.647,431.939,172.356,432.374,169.072z"/>
	<path fill="#83B825" d="M452.507,132.067c11.42,0.087,16.17,6.254,12.759,17.101c-4.078,12.97-11.874,23.177-23.678,30.159
		C447.341,164.062,451.016,148.317,452.507,132.067z"/>
	<path fill="#59BCE7" d="M621.586,356.547c4.88-1.105,8.471,1.839,12.118,3.699c7.398,3.773,12.776,9.854,16.969,16.973
		c1.374,2.333,2.278,4.981,1.982,7.578c-0.431,3.789-1.224,7.591-6.144,8.481c-7.035,1.274-10.323,0.533-12.576-4.606
		c-2.983-6.805-5.225-13.934-7.853-20.898C624.686,364.074,623.146,360.428,621.586,356.547z"/>
	<path fill="#77DCFC" d="M88.358,234.393c-4.979,10.186-7.803,20.243-10.883,30.219c-2.43,7.872-8.517,10.601-15.943,7.417
		c-3.419-1.466-5.437-7.487-3.696-12.343c3.34-9.315,10.013-15.911,18.315-20.876C79.626,236.733,83.215,234.536,88.358,234.393z"/>
	<path fill="#77DCFC" d="M622.381,188.005c11.151,1.568,18.667,8.512,25.231,16.942c2.833,3.638,4.849,7.53,4.593,12.26
		c-0.205,3.799-0.937,7.214-5.511,8.302c-6.903,1.641-10.789,0.922-12.853-3.998c-2.933-6.992-5.01-14.34-7.523-21.512
		c-1.366-3.898-2.875-7.747-4.319-11.617C622.129,188.258,622.256,188.133,622.381,188.005z"/>
	<path fill="#77DCFC" d="M621.999,188.381c-0.12-0.216-0.239-0.433-0.359-0.649c0.244,0.094,0.489,0.187,0.737,0.277
		C622.256,188.133,622.129,188.258,621.999,188.381z"/>
	<path fill="#59BCE7" d="M577.814,142.383c6.592-9.569,23.711-19.977,35.13-16.24c5.56,1.819,8.32,3.867,8.138,8.392
		c-0.153,3.816-3.579,7.049-8.524,7.56c-3.46,0.357-6.972,0.262-10.461,0.278C594.325,142.407,586.553,142.383,577.814,142.383z"/>
	<path fill="#59BCE7" d="M345.66,14.915c-10.795,3.671-21.194,7.558-32.218,9.307c-7.678,1.218-11.57-1.485-11.457-7.647
		c0.062-3.386,2.192-4.969,4.648-6.519c7.802-4.924,16.152-4.622,24.484-2.117C336.144,9.451,341.138,11.382,345.66,14.915z"/>
	<path fill="#77DCFC" d="M523.186,369.111c9.969,9.125,18.448,17.851,17.913,31.667c-0.051,1.315-0.313,2.633-0.585,3.927
		c-0.93,4.42-2.712,7.953-8.141,7.548c-3.939-0.294-6.536-3.534-7.36-8.734C523.262,392.476,522.876,381.373,523.186,369.111z"/>
	<path fill="#77DCFC" d="M439.734,64.189c-8.738-9.702-16.064-18.635-21.982-28.647c-2.151-3.64-2.438-7.212,0.913-10.401
		c3.503-3.333,7.051-2.185,10.391,0.162c4.152,2.919,7.397,6.658,9.071,11.555C441.036,45.365,440.486,54.049,439.734,64.189z"/>
	<path fill="#59BCE7" d="M76.892,316.879c-2.984,11.859-5.462,22.684-10.015,32.873c-1.375,3.076-3.143,6.01-6.914,6.534
		c-5.582,0.776-9.302-4.121-8.553-10.53c1.447-12.38,9.702-19.522,19.294-25.693C72.356,319,74.206,318.247,76.892,316.879z"/>
	<path fill="#77DCFC" d="M269.792,623.954c-2.109-0.378-5.55-0.878-8.932-1.636c-2.711-0.607-5.238-1.976-5.563-4.989
		c-0.316-2.931,2.205-4.36,4.425-5.43c7.326-3.529,15.153-4.767,23.221-4.336c2.461,0.131,4.91,0.746,7.33,1.291
		c1.985,0.447,4.061,1.243,4.534,3.411c0.479,2.194-1.29,3.707-2.792,4.922C285.94,622.104,278.648,623.525,269.792,623.954z"/>
	<path fill="#59BCE7" d="M70.203,599.195c0.496-0.004,0.995,0.002,1.494-0.005c3.459-0.048,7.88,0.59,8.494,3.638
		c0.544,2.7-4.267,2.63-6.68,3.847c-4.198,2.116-8.303,1.912-12.355-0.398c-2.999-1.709-2.678-3.631-0.094-5.259
		C63.813,599.285,66.996,599.016,70.203,599.195z"/>
	<path fill="#77DCFC" d="M543.432,602.479c2.448,0.972,5.268,1.897,7.892,3.214c1.343,0.674,0.841,1.878-0.203,2.798
		c-2.445,2.156-10.268,1-12.142-1.832c-0.448-0.677-1.066-1.376-0.393-2.206C539.724,603.048,541.463,603.008,543.432,602.479z"/>
	<path fill="#44662B" d="M380.389,405.337c-3.685,0.585-6.344-1.385-8.123-4.76c-1.626-3.085-2.89-6.379-4.705-9.341
		c-2.523-4.116-0.88-6.841,2.403-9.325c3.791-2.868,8.166-4.32,12.712-5.411c1.801-0.432,3.379-0.118,4.425,1.424
		c2.224,3.277,4.803,6.304,6.103,10.193C396.598,398.273,391.603,405.272,380.389,405.337z"/>
	<path fill="#44662B" d="M506.022,270.036c0.16,5.909-4.129,10.759-9.673,10.939c-5.531,0.18-15.067-4.549-15.087-7.483
		c-0.059-8.298,5.92-17.836,11.295-18.019C499.304,255.243,505.812,262.282,506.022,270.036z"/>
	<path fill="#44662B" d="M520.12,290.066c0.055,4.718-6.316,11.093-11.089,11.094c-5.265,0.001-10.996-4.594-10.995-8.815
		c0.002-5.119,7.823-11.144,14.509-11.178C516.276,281.148,520.068,285.603,520.12,290.066z"/>
	<path fill="#44662B" d="M400.145,395.847c-0.03-8.351,2.846-11.422,10.821-11.558c4.764-0.081,8.112,3.295,8.084,8.152
		c-0.035,6.164-4.74,11.691-9.998,11.748C403.239,404.252,400.165,401.373,400.145,395.847z"/>
	<path fill="#44662B" d="M398.921,377.226c-3.853,0.021-5.834-2.905-5.776-8.531c0.043-4.196,4.358-8.228,8.886-8.304
		c3.538-0.059,8.884,5.171,8.944,8.75C411.043,373.26,405.182,377.191,398.921,377.226z"/>
	<path fill="#050603" d="M325.088,118.827c7.214-0.893,12.065-3.668,15.831-8.52c1.501-1.934,3.359-3.765,5.427-5.04
		c2.756-1.699,5.675-1.715,7.945,1.24c2.281,2.97,0.993,5.44-1.35,7.348C345.006,120.313,335.922,121.136,325.088,118.827z"/>
	<path fill="#44662B" d="M329.972,520.154c4.1-5.045,9.526-6.7,15.544-4.895c1.895,0.568,1.959,1.606,1.048,2.931
		c-1.314,1.912-2.735,3.755-4.179,5.574c-6.422,8.092-5.329,9.215-15.835,2.268c-8.982-5.938-8.768-6.728-0.618-14.033
		c1.343-1.204,2.64-2.525,5.078-2.556c-0.153,2.563-2.04,4.015-3.271,5.755c-1.405,1.988-3.037,4.329-0.547,6.078
		c2.62,1.839,5.3,5.119,9.235,2.715c1.316-0.804,3.356-1.835,2.298-3.795c-0.923-1.71-2.801-2.32-4.733-1.087
		c-1.132,0.722-2.255,1.424-3.665,1.401C330.215,520.387,330.096,520.268,329.972,520.154z"/>
	<path fill="#050603" d="M314.693,110.265c-4.918-7.848-7.669-16.092-4.792-25.32c1.056-3.387,2.629-6.302,7.076-4.736
		c4.408,1.553,4.472,4.833,3.189,8.476c-0.653,1.855-1.516,3.665-2.508,5.365C314.718,99.086,312.928,104.283,314.693,110.265z"/>
	<path fill="#44662B" d="M523.206,268.841c0.339,3.375-1.744,4.959-4.9,5.296c-3.167,0.338-6.815-3.197-6.973-6.467
		c-0.105-2.172,3.979-7.046,6.041-7.209C519.852,260.264,523.118,264.841,523.206,268.841z"/>
	<path fill="#44662B" d="M332.924,508.539c-0.131,0.096-0.261,0.192-0.39,0.287c-0.104-0.26-0.24-0.513-0.291-0.783
		c-0.014-0.073,0.233-0.195,0.36-0.294C332.71,508.013,332.817,508.276,332.924,508.539z"/>
	<path fill="#44662B" d="M330.329,520.51c-0.244,0.105-0.487,0.211-0.731,0.316c0.125-0.224,0.251-0.447,0.375-0.672
		C330.096,520.268,330.215,520.387,330.329,520.51z"/>
	<path fill="#13AAFB" d="M576.157,252.849c0,3.54,0.023,5.872-0.009,8.202c-0.02,1.424-0.426,2.76-2.045,2.98
		c-2.056,0.28-2.418-1.466-2.765-2.866c-0.275-1.106-0.152-2.314-0.18-3.478c-0.41-16.838-2.766-33.304-8.79-49.163
		c-6.373-16.777-18.687-21.674-34.742-19.871c-5.086,0.571-10.186,1.351-15.022,3.268c-1.689,0.669-3.432,0.526-4.188-1.43
		c-0.581-1.503,0.321-2.627,1.759-3.068c15.6-4.781,31.11-7.607,45.774,2.782c5.678,4.023,8.556,10.117,11.14,16.224
		c4.689,11.086,6.815,22.838,7.992,34.754C575.505,245.465,576.823,249.685,576.157,252.849z"/>
	<path fill="#13AAFB" d="M558.102,259.458c-0.18,7.291,0.552,14.623-0.925,21.872c-0.346,1.697,0.378,4.1-2.512,3.85
		c-2.838-0.245-2.788-2.654-2.471-4.586c1.658-10.091,0.948-20.247,0.857-30.367c-0.101-11.141-1.114-22.222-6.156-32.459
		c-5.206-10.568-14.249-15.291-25.53-16.495c-0.825-0.088-1.674,0.026-2.492-0.09c-1.777-0.252-3.426-1.053-3.284-3.033
		c0.139-1.953,2.007-1.811,3.504-1.919c13.953-1.006,29.237,9.317,34.161,22.935c1.703,4.709,2.905,9.554,3.651,14.446
		C558.206,242.159,558.497,250.804,558.102,259.458z"/>
	<path fill="#13AAFB" d="M395.991,78.314c-5.574,0.481-12.575,1.645-19.313,4.137c-1.557,0.576-3.088,1.277-4.694,1.649
		c-1.406,0.326-3.182,0.74-3.722-1.302c-0.447-1.694,0.482-2.75,2.084-3.45c4.741-2.072,9.675-3.516,14.721-4.543
		c10.608-2.159,21-2.319,31.004,2.892c10.384,5.409,14.71,15.081,17.915,25.325c4.171,13.328,5.702,27.183,6.884,41.06
		c0.17,1.992-0.733,3.48-2.478,3.753c-1.98,0.309-2.16-1.554-2.408-3.073c-1.52-9.304-1.915-18.75-3.799-28.021
		c-1.328-6.537-3.095-12.921-5.515-19.092C421.794,85.219,411.192,78.311,395.991,78.314z"/>
	<path fill="#13AAFB" d="M400.425,91.272c10.413-0.418,16.458,6.067,21.503,13.818c6.719,10.325,9.91,21.982,12.071,33.958
		c0.363,2.012,0.379,4.321-2.27,4.757c-2.779,0.458-2.536-2.026-2.83-3.705c-1.782-10.166-4.175-20.124-9.468-29.15
		c-4.948-8.437-10.425-16.206-21.933-14.558c-4.074,0.583-8.033,1.952-12.054,2.92c-1.764,0.425-4.048,2.31-5.098-0.466
		c-1.072-2.832,1.638-3.625,3.61-4.367C389.26,92.484,394.775,91.447,400.425,91.272z"/>
	<path fill="#83B825" d="M432.374,169.072c-0.434,3.284-0.826,6.575-1.311,9.852c-1.173,7.915-4.398,10.037-14.182,9.404
		c-6.799-0.44-10.952-4.4-10.624-11.227c0.542-11.252,6.781-19.856,14.118-27.784c1.609-1.739,2.763-0.149,3.743,0.743
		C429.693,155.135,432.809,161.306,432.374,169.072z"/>
</g>
</svg>
